{
.appVersion = "1325";
classes = (
{
code = "signOaAbove_maiSat-tham.blwf1 signOaAbove_tone1-tham.blwf1 maiKang_maiSat-tham.blwf1 maiKang_tone1-tham.blwf1 signO_maiSat-tham.blwf1 signO_tone1-tham.blwf1 maiSat-tham.blwf1 maiSat_maiSat-tham tone1-tham.blwf1 signKaran-tham.blwf tone3-tham.blwf tone4-tham.blwf tone5-tham.blwf signMaiSam-tham.blwf signI_maiKang-tham tone1-tham.blwf2 maiSat-tham.blwf2 maiSat_tone1-tham maiSat-tham.blwf3";
name = liga10;
},
{
code = "signI-tham.blwf1 signIi-tham.blwf1 signEu-tham.blwf1 signEuu-tham.blwf1 signO-tham.blwf1 signOaAbove-tham.blwf1";
name = liga11;
},
{

glyphs = (
{
glyphname = "wa_yaLow-tham";
layers = (
{
layerId = "5a955c31-bd75-46b6-b903-8760881f133b";
paths = (
{
closed = 1;
nodes = (
"-193.777 -454.472 OFFCURVE",
"-148.843 -391.956 OFFCURVE",
"-148.843 -325.533 CURVE SMOOTH",
"-148.843 -287.437 OFFCURVE",
"-166.426 -244.458 OFFCURVE",
"-187.916 -202.455 CURVE SMOOTH",
"-221.127 -137.008 OFFCURVE",
"-258.246 -87.191 OFFCURVE",
"-315.878 -87.191 CURVE SMOOTH",
"-375.463 -87.191 OFFCURVE",
"-414.536 -140.916 OFFCURVE",
"-447.747 -207.339 CURVE SMOOTH",
"-468.26 -248.365 OFFCURVE",
"-485.843 -285.484 OFFCURVE",
"-485.843 -321.626 CURVE SMOOTH",
"-485.843 -384.141 OFFCURVE",
"-440.91 -454.472 OFFCURVE",
"-312.947 -454.472 CURVE SMOOTH"
);
},
{
closed = 1;
nodes = (
"-373.51 -392.933 OFFCURVE",
"-418.443 -369.489 OFFCURVE",
"-418.443 -327.486 CURVE SMOOTH",
"-418.443 -285.484 OFFCURVE",
"-370.579 -148.73 OFFCURVE",
"-316.855 -148.73 CURVE SMOOTH",
"-262.153 -148.73 OFFCURVE",
"-216.243 -284.507 OFFCURVE",
"-216.243 -328.463 CURVE SMOOTH",
"-216.243 -372.42 OFFCURVE",
"-261.176 -392.933 OFFCURVE",
"-315.878 -392.933 CURVE SMOOTH"
);
},
{
closed = 1;
nodes = (
"46 -452 OFFCURVE",
"86 -435 OFFCURVE",
"116 -399 CURVE SMOOTH",
"151 -358 OFFCURVE",
"166 -300 OFFCURVE",
"166 -213 CURVE SMOOTH",
"166 534 LINE",
"91 534 LINE",
"91 -240 LINE SMOOTH",
"91 -344 OFFCURVE",
"49 -381 OFFCURVE",
"-3 -381 CURVE SMOOTH",
"-31 -381 OFFCURVE",
"-51 -368 OFFCURVE",
"-71 -347 CURVE",
"-99 -412 LINE",
"-73 -436 OFFCURVE",
"-41 -452 OFFCURVE",
"2 -452 CURVE SMOOTH"
);
}
);
userData = {
assembly = "PUSHW[ ]	/* 4 values pushed */\01273 5 67 4 \012CALL[ ]	/* CallFunction */\012PUSHW[ ]	/* 4 values pushed */\01257 5 83 4 \012CALL[ ]	/* CallFunction */\012PUSHW[ ]	/* 4 values pushed */\01223 5 15 4 \012CALL[ ]	/* CallFunction */\012PUSHW[ ]	/* 3 values pushed */\01238 67 23 \012SRP1[ ]	/* SetRefPoint1 */\012SRP2[ ]	/* SetRefPoint2 */\012IP[ ]	/* InterpolatePts */\012NPUSHW[ ]	/* 33 values pushed */\0126 57 22 57 38 57 54 57 70 57 86 57 102 57 118 57 134 57 150 57 166 57 182 57 198 57 214 57 230 57 246 57 16 \012DELTAP1[ ]	/* DeltaExceptionP1 */\012NPUSHW[ ]	/* 17 values pushed */\0126 57 22 57 38 57 54 57 70 57 86 57 102 57 118 57 8 \012DELTAP2[ ]	/* DeltaExceptionP2 */\012NPUSHW[ ]	/* 5 values pushed */\012133 57 149 57 2 \012DELTAP2[ ]	/* DeltaExceptionP2 */\012NPUSHW[ ]	/* 33 values pushed */\0126 73 22 73 38 73 54 73 70 73 86 73 102 73 118 73 134 73 150 73 166 73 182 73 198 73 214 73 230 73 246 73 16 \012DELTAP1[ ]	/* DeltaExceptionP1 */\012NPUSHW[ ]	/* 17 values pushed */\0126 73 22 73 38 73 54 73 70 73 86 73 102 73 118 73 8 \012DELTAP2[ ]	/* DeltaExceptionP2 */\012NPUSHW[ ]	/* 5 values pushed */\012133 73 149 73 2 \012DELTAP2[ ]	/* DeltaExceptionP2 */\012SVTCA[0]	/* SetFreedomAndProjectionVectorToAxis */\012PUSHW[ ]	/* 1 value pushed */\01219 \012MDAP[1]	/* MoveDirectAbsPt */\012PUSHW[ ]	/* 4 values pushed */\01278 4 62 4 \012CALL[ ]	/* CallFunction */\012PUSHW[ ]	/* 4 values pushed */\01250 4 68 4 \012CALL[ ]	/* CallFunction */\012PUSHW[ ]	/* 1 value pushed */\01278 \012SRP0[ ]	/* SetRefPoint0 */\012PUSHW[ ]	/* 1 value pushed */\01210 \012MDRP[10000]	/* MoveDirectRelPt */\012PUSHW[ ]	/* 1 value pushed */\01210 \012MDAP[1]	/* MoveDirectAbsPt */\012PUSHW[ ]	/* 1 value pushed */\01262 \012SRP0[ ]	/* SetRefPoint0 */\012PUSHW[ ]	/* 1 value pushed */\01228 \012MDRP[10000]	/* MoveDirectRelPt */\012PUSHW[ ]	/* 1 value pushed */\01228 \012MDAP[1]	/* MoveDirectAbsPt */\012IUP[0]	/* InterpolateUntPts */\012IUP[1]	/* InterpolateUntPts */";
};
width = 243;
},
{
layerId = "B90EB90F-4FA1-4BBD-888F-E38A605CBEB2";
paths = (
{
closed = 1;
nodes = (
"-191.078 -452.518 OFFCURVE",
"-141.261 -388.049 OFFCURVE",
"-141.261 -322.602 CURVE SMOOTH",
"-141.261 -282.553 OFFCURVE",
"-159.82 -237.62 OFFCURVE",
"-179.356 -202.455 CURVE SMOOTH",
"-219.406 -132.124 OFFCURVE",
"-273.13 -85.238 OFFCURVE",
"-325.878 -85.238 CURVE SMOOTH",
"-381.556 -85.238 OFFCURVE",
"-438.211 -136.032 OFFCURVE",
"-479.237 -212.223 CURVE SMOOTH",
"-495.843 -241.527 OFFCURVE",
"-513.425 -280.6 OFFCURVE",
"-513.425 -317.718 CURVE SMOOTH",
"-513.425 -380.234 OFFCURVE",
"-463.608 -452.518 OFFCURVE",
"-324.901 -452.518 CURVE SMOOTH"
);
},
{
closed = 1;
nodes = (
"-374.718 -353.86 OFFCURVE",
"-411.837 -339.208 OFFCURVE",
"-411.837 -313.811 CURVE SMOOTH",
"-411.837 -286.46 OFFCURVE",
"-367.881 -191.71 OFFCURVE",
"-326.855 -191.71 CURVE SMOOTH",
"-285.829 -191.71 OFFCURVE",
"-242.849 -285.484 OFFCURVE",
"-242.849 -315.765 CURVE SMOOTH",
"-242.849 -343.115 OFFCURVE",
"-279.968 -353.86 OFFCURVE",
"-323.924 -353.86 CURVE SMOOTH"
);
},
{
closed = 1;
nodes = (
"106 -452 OFFCURVE",
"176 -401 OFFCURVE",
"201 -323 CURVE SMOOTH",
"209 -298 OFFCURVE",
"216 -258 OFFCURVE",
"216 -213 CURVE SMOOTH",
"216 534 LINE",
"89 534 LINE",
"89 -221 LINE SMOOTH",
"89 -290 OFFCURVE",
"60 -327 OFFCURVE",
"16 -327 CURVE SMOOTH",
"-6 -327 OFFCURVE",
"-23 -320 OFFCURVE",
"-43 -304 CURVE",
"-87 -421 LINE",
"-52 -442 OFFCURVE",
"-15 -452 OFFCURVE",
"23 -452 CURVE SMOOTH"
);
}
);
userData = {
assembly = "PUSHW[ ]	/* 4 values pushed */\01273 5 67 4 \012CALL[ ]	/* CallFunction */\012PUSHW[ ]	/* 4 values pushed */\01257 5 83 4 \012CALL[ ]	/* CallFunction */\012PUSHW[ ]	/* 4 values pushed */\01223 5 15 4 \012CALL[ ]	/* CallFunction */\012PUSHW[ ]	/* 3 values pushed */\01238 67 23 \012SRP1[ ]	/* SetRefPoint1 */\012SRP2[ ]	/* SetRefPoint2 */\012IP[ ]	/* InterpolatePts */\012NPUSHW[ ]	/* 33 values pushed */\0126 57 22 57 38 57 54 57 70 57 86 57 102 57 118 57 134 57 150 57 166 57 182 57 198 57 214 57 230 57 246 57 16 \012DELTAP1[ ]	/* DeltaExceptionP1 */\012NPUSHW[ ]	/* 17 values pushed */\0126 57 22 57 38 57 54 57 70 57 86 57 102 57 118 57 8 \012DELTAP2[ ]	/* DeltaExceptionP2 */\012NPUSHW[ ]	/* 5 values pushed */\012133 57 149 57 2 \012DELTAP2[ ]	/* DeltaExceptionP2 */\012NPUSHW[ ]	/* 33 values pushed */\0126 73 22 73 38 73 54 73 70 73 86 73 102 73 118 73 134 73 150 73 166 73 182 73 198 73 214 73 230 73 246 73 16 \012DELTAP1[ ]	/* DeltaExceptionP1 */\012NPUSHW[ ]	/* 17 values pushed */\0126 73 22 73 38 73 54 73 70 73 86 73 102 73 118 73 8 \012DELTAP2[ ]	/* DeltaExceptionP2 */\012NPUSHW[ ]	/* 5 values pushed */\012133 73 149 73 2 \012DELTAP2[ ]	/* DeltaExceptionP2 */\012SVTCA[0]	/* SetFreedomAndProjectionVectorToAxis */\012PUSHW[ ]	/* 1 value pushed */\01219 \012MDAP[1]	/* MoveDirectAbsPt */\012PUSHW[ ]	/* 4 values pushed */\01278 4 62 4 \012CALL[ ]	/* CallFunction */\012PUSHW[ ]	/* 4 values pushed */\01250 4 68 4 \012CALL[ ]	/* CallFunction */\012PUSHW[ ]	/* 1 value pushed */\01278 \012SRP0[ ]	/* SetRefPoint0 */\012PUSHW[ ]	/* 1 value pushed */\01210 \012MDRP[10000]	/* MoveDirectRelPt */\012PUSHW[ ]	/* 1 value pushed */\01210 \012MDAP[1]	/* MoveDirectAbsPt */\012PUSHW[ ]	/* 1 value pushed */\01262 \012SRP0[ ]	/* SetRefPoint0 */\012PUSHW[ ]	/* 1 value pushed */\01228 \012MDRP[10000]	/* MoveDirectRelPt */\012PUSHW[ ]	/* 1 value pushed */\01228 \012MDAP[1]	/* MoveDirectAbsPt */\012IUP[0]	/* InterpolateUntPts */\012IUP[1]	/* InterpolateUntPts */";
};
width = 268;
}
);
note = uni1A45.3F;
},
{
glyphname = "wa_yaLow-tham.alt";
layers = (
{
anchors = (
{
name = caret_1;
position = "{572, 0}";
}
);
components = (
{
name = "wa-tham";
}
);
layerId = "5a955c31-bd75-46b6-b903-8760881f133b";
paths = (
{
closed = 1;
nodes = (
"633 -201 LINE SMOOTH",
"633 -347 OFFCURVE",
"557 -381 OFFCURVE",
"467 -381 CURVE SMOOTH",
"372 -381 OFFCURVE",
"325 -334 OFFCURVE",
"325 -228 CURVE SMOOTH",
"326 5 LINE",
"251 5 LINE",
"251 -184 LINE SMOOTH",
"251 -311 OFFCURVE",
"267 -338 OFFCURVE",
"282 -366 CURVE SMOOTH",
"308 -414 OFFCURVE",
"359 -452 OFFCURVE",
"465 -452 CURVE SMOOTH",
"575 -452 OFFCURVE",
"631 -416 OFFCURVE",
"662 -372 CURVE SMOOTH",
"690 -331 OFFCURVE",
"708 -282 OFFCURVE",
"708 -145 CURVE SMOOTH",
"708 534 LINE",
"633 534 LINE"
);
}
);
userData = {
assembly = "PUSHW[ ]	/* 4 values pushed */\01260 5 50 4 \012CALL[ ]	/* CallFunction */\012PUSHW[ ]	/* 4 values pushed */\01211 5 38 4 \012CALL[ ]	/* CallFunction */\012PUSHW[ ]	/* 4 values pushed */\0125 5 70 4 \012CALL[ ]	/* CallFunction */\012PUSHW[ ]	/* 4 values pushed */\01228 5 21 4 \012CALL[ ]	/* CallFunction */\012PUSHW[ ]	/* 1 value pushed */\01238 \012SRP0[ ]	/* SetRefPoint0 */\012PUSHW[ ]	/* 1 value pushed */\01243 \012MDRP[10000]	/* MoveDirectRelPt */\012PUSHW[ ]	/* 1 value pushed */\01243 \012MDAP[1]	/* MoveDirectAbsPt */\012NPUSHW[ ]	/* 33 values pushed */\0126 60 22 60 38 60 54 60 70 60 86 60 102 60 118 60 134 60 150 60 166 60 182 60 198 60 214 60 230 60 246 60 16 \012DELTAP1[ ]	/* DeltaExceptionP1 */\012NPUSHW[ ]	/* 17 values pushed */\0126 60 22 60 38 60 54 60 70 60 86 60 102 60 118 60 8 \012DELTAP2[ ]	/* DeltaExceptionP2 */\012NPUSHW[ ]	/* 5 values pushed */\012133 60 149 60 2 \012DELTAP2[ ]	/* DeltaExceptionP2 */\012NPUSHW[ ]	/* 5 values pushed */\012138 70 154 70 2 \012DELTAP2[ ]	/* DeltaExceptionP2 */\012NPUSHW[ ]	/* 33 values pushed */\0129 70 25 70 41 70 57 70 73 70 89 70 105 70 121 70 137 70 153 70 169 70 185 70 201 70 217 70 233 70 249 70 16 \012DELTAP1[ ]	/* DeltaExceptionP1 */\012NPUSHW[ ]	/* 17 values pushed */\0129 70 25 70 41 70 57 70 73 70 89 70 105 70 121 70 8 \012DELTAP2[ ]	/* DeltaExceptionP2 */\012PUSHW[ ]	/* 1 value pushed */\01228 \012SRP0[ ]	/* SetRefPoint0 */\012PUSHW[ ]	/* 1 value pushed */\01276 \012MDRP[11100]	/* MoveDirectRelPt */\012SVTCA[0]	/* SetFreedomAndProjectionVectorToAxis */\012PUSHW[ ]	/* 1 value pushed */\0120 \012RCVT[ ]	/* ReadCVT */\012IF[ ]	/* If */\012PUSHW[ ]	/* 1 value pushed */\01244 \012MDAP[1]	/* MoveDirectAbsPt */\012ELSE[ ]	/* Else */\012PUSHW[ ]	/* 2 values pushed */\01244 7 \012MIAP[0]	/* MoveIndirectAbsPt */\012EIF[ ]	/* EndIf */\012PUSHW[ ]	/* 4 values pushed */\01216 4 33 4 \012CALL[ ]	/* CallFunction */\012PUSHW[ ]	/* 4 values pushed */\0120 4 55 4 \012CALL[ ]	/* CallFunction */\012PUSHW[ ]	/* 1 value pushed */\01244 \012SRP0[ ]	/* SetRefPoint0 */\012PUSHW[ ]	/* 2 values pushed */\01265 4 \012MIRP[10100]	/* MoveIndirectRelPt */\012NPUSHW[ ]	/* 33 values pushed */\0127 65 23 65 39 65 55 65 71 65 87 65 103 65 119 65 135 65 151 65 167 65 183 65 199 65 215 65 231 65 247 65 16 \012DELTAP1[ ]	/* DeltaExceptionP1 */\012NPUSHW[ ]	/* 17 values pushed */\0127 65 23 65 39 65 55 65 71 65 87 65 103 65 119 65 8 \012DELTAP2[ ]	/* DeltaExceptionP2 */\012NPUSHW[ ]	/* 5 values pushed */\012134 65 150 65 2 \012DELTAP2[ ]	/* DeltaExceptionP2 */\012IUP[0]	/* InterpolateUntPts */\012IUP[1]	/* InterpolateUntPts */";
};
width = 795;
},
{
anchors = (
{
name = caret_1;
position = "{592, 0}";
}
);
components = (
{
name = "wa-tham";
}
);
layerId = "B90EB90F-4FA1-4BBD-888F-E38A605CBEB2";
paths = (
{
closed = 1;
nodes = (
"667 -166 LINE SMOOTH",
"667 -292 OFFCURVE",
"603 -327 OFFCURVE",
"528 -327 CURVE SMOOTH",
"457 -327 OFFCURVE",
"396 -302 OFFCURVE",
"397 -161 CURVE SMOOTH",
"399 5 LINE",
"271 5 LINE",
"271 -144 LINE SMOOTH",
"271 -250 OFFCURVE",
"285 -299 OFFCURVE",
"311 -349 CURVE SMOOTH",
"345 -414 OFFCURVE",
"422 -452 OFFCURVE",
"526 -452 CURVE SMOOTH",
"609 -452 OFFCURVE",
"679 -422 OFFCURVE",
"723 -368 CURVE SMOOTH",
"771 -310 OFFCURVE",
"794 -222 OFFCURVE",
"794 -104 CURVE SMOOTH",
"794 534 LINE",
"667 534 LINE"
);
}
);
userData = {
assembly = "PUSHW[ ]	/* 4 values pushed */\01260 5 50 4 \012CALL[ ]	/* CallFunction */\012PUSHW[ ]	/* 4 values pushed */\01211 5 38 4 \012CALL[ ]	/* CallFunction */\012PUSHW[ ]	/* 4 values pushed */\0125 5 70 4 \012CALL[ ]	/* CallFunction */\012PUSHW[ ]	/* 4 values pushed */\01228 5 21 4 \012CALL[ ]	/* CallFunction */\012PUSHW[ ]	/* 1 value pushed */\01238 \012SRP0[ ]	/* SetRefPoint0 */\012PUSHW[ ]	/* 1 value pushed */\01243 \012MDRP[10000]	/* MoveDirectRelPt */\012PUSHW[ ]	/* 1 value pushed */\01243 \012MDAP[1]	/* MoveDirectAbsPt */\012NPUSHW[ ]	/* 33 values pushed */\0126 60 22 60 38 60 54 60 70 60 86 60 102 60 118 60 134 60 150 60 166 60 182 60 198 60 214 60 230 60 246 60 16 \012DELTAP1[ ]	/* DeltaExceptionP1 */\012NPUSHW[ ]	/* 17 values pushed */\0126 60 22 60 38 60 54 60 70 60 86 60 102 60 118 60 8 \012DELTAP2[ ]	/* DeltaExceptionP2 */\012NPUSHW[ ]	/* 5 values pushed */\012133 60 149 60 2 \012DELTAP2[ ]	/* DeltaExceptionP2 */\012NPUSHW[ ]	/* 5 values pushed */\012138 70 154 70 2 \012DELTAP2[ ]	/* DeltaExceptionP2 */\012NPUSHW[ ]	/* 33 values pushed */\0129 70 25 70 41 70 57 70 73 70 89 70 105 70 121 70 137 70 153 70 169 70 185 70 201 70 217 70 233 70 249 70 16 \012DELTAP1[ ]	/* DeltaExceptionP1 */\012NPUSHW[ ]	/* 17 values pushed */\0129 70 25 70 41 70 57 70 73 70 89 70 105 70 121 70 8 \012DELTAP2[ ]	/* DeltaExceptionP2 */\012PUSHW[ ]	/* 1 value pushed */\01228 \012SRP0[ ]	/* SetRefPoint0 */\012PUSHW[ ]	/* 1 value pushed */\01276 \012MDRP[11100]	/* MoveDirectRelPt */\012SVTCA[0]	/* SetFreedomAndProjectionVectorToAxis */\012PUSHW[ ]	/* 1 value pushed */\0120 \012RCVT[ ]	/* ReadCVT */\012IF[ ]	/* If */\012PUSHW[ ]	/* 1 value pushed */\01244 \012MDAP[1]	/* MoveDirectAbsPt */\012ELSE[ ]	/* Else */\012PUSHW[ ]	/* 2 values pushed */\01244 7 \012MIAP[0]	/* MoveIndirectAbsPt */\012EIF[ ]	/* EndIf */\012PUSHW[ ]	/* 4 values pushed */\01216 4 33 4 \012CALL[ ]	/* CallFunction */\012PUSHW[ ]	/* 4 values pushed */\0120 4 55 4 \012CALL[ ]	/* CallFunction */\012PUSHW[ ]	/* 1 value pushed */\01244 \012SRP0[ ]	/* SetRefPoint0 */\012PUSHW[ ]	/* 2 values pushed */\01265 4 \012MIRP[10100]	/* MoveIndirectRelPt */\012NPUSHW[ ]	/* 33 values pushed */\0127 65 23 65 39 65 55 65 71 65 87 65 103 65 119 65 135 65 151 65 167 65 183 65 199 65 215 65 231 65 247 65 16 \012DELTAP1[ ]	/* DeltaExceptionP1 */\012NPUSHW[ ]	/* 17 values pushed */\0127 65 23 65 39 65 55 65 71 65 87 65 103 65 119 65 8 \012DELTAP2[ ]	/* DeltaExceptionP2 */\012NPUSHW[ ]	/* 5 values pushed */\012134 65 150 65 2 \012DELTAP2[ ]	/* DeltaExceptionP2 */\012IUP[0]	/* InterpolateUntPts */\012IUP[1]	/* InterpolateUntPts */";
};
width = 872;
}
);
note = uni1A45.3F.2;
},
{
glyphname = "kaLow-tham";
layers = (
{
layerId = "5a955c31-bd75-46b6-b903-8760881f133b";
paths = (
{
closed = 1;
nodes = (
"277 56 LINE",
"206 100 OFFCURVE",
"156 171 OFFCURVE",
"156 266 CURVE SMOOTH",
"156 380 OFFCURVE",
"222 473 OFFCURVE",
"331 473 CURVE SMOOTH",
"438 473 OFFCURVE",
"502 380 OFFCURVE",
"502 266 CURVE SMOOTH",
"502 171 OFFCURVE",
"453 100 OFFCURVE",
"382 56 CURVE",
"431 -5 LINE",
"511 58 OFFCURVE",
"581 135 OFFCURVE",
"581 266 CURVE SMOOTH",
"581 424 OFFCURVE",
"477 544 OFFCURVE",
"331 544 CURVE SMOOTH",
"183 544 OFFCURVE",
"78 424 OFFCURVE",
"78 266 CURVE SMOOTH",
"78 135 OFFCURVE",
"147 58 OFFCURVE",
"228 -5 CURVE"
);
}
);
width = 659;
},
{
layerId = "B90EB90F-4FA1-4BBD-888F-E38A605CBEB2";
paths = (
{
closed = 1;
nodes = (
"294 80 LINE",
"237 121 OFFCURVE",
"198 175 OFFCURVE",
"198 261 CURVE SMOOTH",
"198 351 OFFCURVE",
"245 420 OFFCURVE",
"328 420 CURVE SMOOTH",
"411 420 OFFCURVE",
"458 351 OFFCURVE",
"458 261 CURVE SMOOTH",
"458 177 OFFCURVE",
"420 121 OFFCURVE",
"364 81 CURVE",
"452 -9 LINE",
"526 41 OFFCURVE",
"587 135 OFFCURVE",
"587 263 CURVE SMOOTH",
"587 425 OFFCURVE",
"489 544 OFFCURVE",
"328 544 CURVE SMOOTH",
"167 544 OFFCURVE",
"68 425 OFFCURVE",
"68 260 CURVE SMOOTH",
"68 134 OFFCURVE",
"126 36 OFFCURVE",
"211 -10 CURVE"
);
}
);
width = 655;
}
);
unicode = 1A23;
},
{
glyphname = "khaHigh-tham";
layers = (
{
layerId = "5a955c31-bd75-46b6-b903-8760881f133b";
paths = (
{
closed = 1;
nodes = (
"125 382 LINE",
"169 441 OFFCURVE",
"217 473 OFFCURVE",
"281 473 CURVE SMOOTH",
"375 473 OFFCURVE",
"437 400 OFFCURVE",
"437 276 CURVE SMOOTH",
"437 149 OFFCURVE",
"370 60 OFFCURVE",
"259 60 CURVE SMOOTH",
"190 60 OFFCURVE",
"153 96 OFFCURVE",
"153 138 CURVE SMOOTH",
"153 177 OFFCURVE",
"185 216 OFFCURVE",
"245 216 CURVE SMOOTH",
"342 216 OFFCURVE",
"429 113 OFFCURVE",
"481 -30 CURVE",
"546 0 LINE",
"486 164 OFFCURVE",
"371 284 OFFCURVE",
"243 284 CURVE SMOOTH",
"173 284 OFFCURVE",
"112 248 OFFCURVE",
"86 192 CURVE SMOOTH",
"78 174 OFFCURVE",
"73 153 OFFCURVE",
"73 132 CURVE SMOOTH",
"73 44 OFFCURVE",
"159 -10 OFFCURVE",
"252 -10 CURVE SMOOTH",
"402 -10 OFFCURVE",
"514 130 OFFCURVE",
"514 289 CURVE SMOOTH",
"514 431 OFFCURVE",
"424 544 OFFCURVE",
"283 544 CURVE SMOOTH",
"194 544 OFFCURVE",
"124 500 OFFCURVE",
"73 429 CURVE"
);
}
);
width = 613;
},
{
layerId = "B90EB90F-4FA1-4BBD-888F-E38A605CBEB2";
paths = (
{
closed = 1;
nodes = (
"148 355 LINE",
"183 394 OFFCURVE",
"226 420 OFFCURVE",
"273 420 CURVE SMOOTH",
"336 420 OFFCURVE",
"411 372 OFFCURVE",
"411 274 CURVE SMOOTH",
"411 183 OFFCURVE",
"349 95 OFFCURVE",
"263 95 CURVE SMOOTH",
"219 95 OFFCURVE",
"191 117 OFFCURVE",
"191 145 CURVE SMOOTH",
"191 171 OFFCURVE",
"214 198 OFFCURVE",
"261 198 CURVE SMOOTH",
"354 198 OFFCURVE",
"438 99 OFFCURVE",
"494 -31 CURVE",
"590 30 LINE",
"526 182 OFFCURVE",
"397 303 OFFCURVE",
"259 303 CURVE SMOOTH",
"177 303 OFFCURVE",
"111 260 OFFCURVE",
"86 201 CURVE SMOOTH",
"80 186 OFFCURVE",
"74 164 OFFCURVE",
"74 138 CURVE SMOOTH",
"74 34 OFFCURVE",
"170 -10 OFFCURVE",
"259 -10 CURVE SMOOTH",
"413 -10 OFFCURVE",
"535 126 OFFCURVE",
"535 281 CURVE SMOOTH",
"535 424 OFFCURVE",
"432 544 OFFCURVE",
"277 544 CURVE SMOOTH",
"180 544 OFFCURVE",
"114 498 OFFCURVE",
"81 456 CURVE"
);
}
);
width = 620;
}
);
unicode = 1A21;
},
{
glyphname = "kxaHigh-tham";
layers = (
{
layerId = "5a955c31-bd75-46b6-b903-8760881f133b";
paths = (
{
closed = 1;
nodes = (
"420 -10 OFFCURVE",
"528 129 OFFCURVE",
"528 288 CURVE SMOOTH",
"528 432 OFFCURVE",
"439 544 OFFCURVE",
"303 544 CURVE SMOOTH",
"241 544 OFFCURVE",
"194 521 OFFCURVE",
"164 483 CURVE",
"168 472 LINE",
"168 704 LINE SMOOTH",
"171 828 OFFCURVE",
"228 932 OFFCURVE",
"359 930 CURVE SMOOTH",
"417 929 OFFCURVE",
"457 909 OFFCURVE",
"483 895 CURVE",
"524 961 LINE",
"477 987 OFFCURVE",
"421 1000 OFFCURVE",
"362 1000 CURVE SMOOTH",
"217 1000 OFFCURVE",
"93 912 OFFCURVE",
"93 636 CURVE SMOOTH",
"93 419 LINE",
"172 411 LINE",
"197 452 OFFCURVE",
"240 474 OFFCURVE",
"293 474 CURVE SMOOTH",
"385 474 OFFCURVE",
"451 407 OFFCURVE",
"451 280 CURVE SMOOTH",
"451 150 OFFCURVE",
"379 60 OFFCURVE",
"272 60 CURVE SMOOTH",
"205 60 OFFCURVE",
"160 94 OFFCURVE",
"160 136 CURVE SMOOTH",
"160 175 OFFCURVE",
"198 209 OFFCURVE",
"255 209 CURVE SMOOTH",
"352 209 OFFCURVE",
"431 108 OFFCURVE",
"486 -31 CURVE",
"554 0 LINE",
"493 167 OFFCURVE",
"378 279 OFFCURVE",
"248 279 CURVE SMOOTH",
"174 279 OFFCURVE",
"114 245 OFFCURVE",
"92 184 CURVE SMOOTH",
"85 166 OFFCURVE",
"83 149 OFFCURVE",
"83 135 CURVE SMOOTH",
"83 44 OFFCURVE",
"170 -10 OFFCURVE",
"267 -10 CURVE SMOOTH"
);
}
);
width = 608;
},
{
layerId = "B90EB90F-4FA1-4BBD-888F-E38A605CBEB2";
paths = (
{
closed = 1;
nodes = (
"430 -10 OFFCURVE",
"551 135 OFFCURVE",
"551 291 CURVE SMOOTH",
"551 432 OFFCURVE",
"456 544 OFFCURVE",
"319 544 CURVE SMOOTH",
"255 544 OFFCURVE",
"208 520 OFFCURVE",
"173 476 CURVE",
"200 435 LINE",
"200 698 LINE SMOOTH",
"200 817 OFFCURVE",
"260 903 OFFCURVE",
"384 901 CURVE SMOOTH",
"436 900 OFFCURVE",
"480 884 OFFCURVE",
"508 869 CURVE",
"552 985 LINE",
"500 1011 OFFCURVE",
"446 1025 OFFCURVE",
"381 1025 CURVE SMOOTH",
"220 1025 OFFCURVE",
"73 936 OFFCURVE",
"73 660 CURVE SMOOTH",
"73 391 LINE",
"193 367 LINE",
"214 412 OFFCURVE",
"260 433 OFFCURVE",
"300 433 CURVE SMOOTH",
"368 432 OFFCURVE",
"431 371 OFFCURVE",
"431 271 CURVE SMOOTH",
"431 169 OFFCURVE",
"363 95 OFFCURVE",
"273 95 CURVE SMOOTH",
"229 95 OFFCURVE",
"202 113 OFFCURVE",
"202 142 CURVE SMOOTH",
"202 172 OFFCURVE",
"231 198 OFFCURVE",
"281 198 CURVE SMOOTH",
"372 198 OFFCURVE",
"449 98 OFFCURVE",
"505 -31 CURVE",
"601 30 LINE",
"533 190 OFFCURVE",
"419 303 OFFCURVE",
"278 303 CURVE SMOOTH",
"197 303 OFFCURVE",
"128 265 OFFCURVE",
"99 206 CURVE SMOOTH",
"88 184 OFFCURVE",
"84 161 OFFCURVE",
"84 140 CURVE SMOOTH",
"84 38 OFFCURVE",
"180 -10 OFFCURVE",
"271 -10 CURVE SMOOTH"
);
}
);
width = 640;
}
);
unicode = 1A22;
},
{
glyphname = "kaHigh-tham";
layers = (
{
layerId = "B90EB90F-4FA1-4BBD-888F-E38A605CBEB2";
paths = (
{
closed = 1;
nodes = (
"294 80 LINE",
"237 121 OFFCURVE",
"198 175 OFFCURVE",
"198 261 CURVE SMOOTH",
"198 351 OFFCURVE",
"245 420 OFFCURVE",
"328 420 CURVE SMOOTH",
"411 420 OFFCURVE",
"458 351 OFFCURVE",
"458 261 CURVE SMOOTH",
"458 177 OFFCURVE",
"420 121 OFFCURVE",
"364 81 CURVE",
"452 -9 LINE",
"526 41 OFFCURVE",
"587 135 OFFCURVE",
"587 263 CURVE SMOOTH",
"587 425 OFFCURVE",
"489 544 OFFCURVE",
"328 544 CURVE SMOOTH",
"167 544 OFFCURVE",
"68 425 OFFCURVE",
"68 260 CURVE SMOOTH",
"68 134 OFFCURVE",
"126 36 OFFCURVE",
"211 -10 CURVE"
);
},
{
closed = 1;
nodes = (
"587 267 LINE",
"595 371 OFFCURVE",
"651 419 OFFCURVE",
"722 419 CURVE SMOOTH",
"805 419 OFFCURVE",
"848 352 OFFCURVE",
"848 268 CURVE SMOOTH",
"848 183 OFFCURVE",
"802 114 OFFCURVE",
"717 114 CURVE SMOOTH",
"693 114 OFFCURVE",
"673 119 OFFCURVE",
"644 133 CURVE",
"609 14 LINE",
"641 -1 OFFCURVE",
"683 -10 OFFCURVE",
"726 -10 CURVE SMOOTH",
"879 -10 OFFCURVE",
"975 109 OFFCURVE",
"975 267 CURVE SMOOTH",
"975 426 OFFCURVE",
"879 544 OFFCURVE",
"722 544 CURVE SMOOTH",
"602 544 OFFCURVE",
"522 473 OFFCURVE",
"506 354 CURVE"
);
}
);
width = 1041;
},
{
layerId = "5a955c31-bd75-46b6-b903-8760881f133b";
paths = (
{
closed = 1;
nodes = (
"277 56 LINE",
"206 100 OFFCURVE",
"156 171 OFFCURVE",
"156 266 CURVE SMOOTH",
"156 380 OFFCURVE",
"222 473 OFFCURVE",
"331 473 CURVE SMOOTH",
"438 473 OFFCURVE",
"502 380 OFFCURVE",
"502 266 CURVE SMOOTH",
"502 171 OFFCURVE",
"453 100 OFFCURVE",
"382 56 CURVE",
"431 -5 LINE",
"511 58 OFFCURVE",
"581 135 OFFCURVE",
"581 266 CURVE SMOOTH",
"581 424 OFFCURVE",
"477 544 OFFCURVE",
"331 544 CURVE SMOOTH",
"183 544 OFFCURVE",
"78 424 OFFCURVE",
"78 266 CURVE SMOOTH",
"78 135 OFFCURVE",
"147 58 OFFCURVE",
"228 -5 CURVE"
);
},
{
closed = 1;
nodes = (
"581 266 LINE",
"574 402 OFFCURVE",
"646 473 OFFCURVE",
"737 473 CURVE SMOOTH",
"842 473 OFFCURVE",
"902 380 OFFCURVE",
"902 266 CURVE SMOOTH",
"902 152 OFFCURVE",
"842 61 OFFCURVE",
"737 61 CURVE SMOOTH",
"706 61 OFFCURVE",
"679 69 OFFCURVE",
"655 82 CURVE",
"615 24 LINE",
"652 2 OFFCURVE",
"692 -10 OFFCURVE",
"739 -10 CURVE SMOOTH",
"886 -10 OFFCURVE",
"980 111 OFFCURVE",
"980 269 CURVE SMOOTH",
"980 425 OFFCURVE",
"888 544 OFFCURVE",
"738 544 CURVE SMOOTH",
"633 544 OFFCURVE",
"568 486 OFFCURVE",
"534 421 CURVE"
);
}
);
width = 1058;
}
);
unicode = 1A20;
},
{
glyphname = "nga-tham";
layers = (
{
layerId = "5a955c31-bd75-46b6-b903-8760881f133b";
paths = (
{
closed = 1;
nodes = (
"152 205 OFFCURVE",
"210 241 OFFCURVE",
"298 245 CURVE",
"298 296 LINE",
"211 305 OFFCURVE",
"152 339 OFFCURVE",
"152 391 CURVE SMOOTH",
"152 452 OFFCURVE",
"232 473 OFFCURVE",
"307 473 CURVE SMOOTH",
"451 473 OFFCURVE",
"538 389 OFFCURVE",
"538 234 CURVE SMOOTH",
"538 150 OFFCURVE",
"514 59 OFFCURVE",
"497 8 CURVE",
"575 -10 LINE",
"593 48 OFFCURVE",
"616 152 OFFCURVE",
"616 240 CURVE SMOOTH",
"616 432 OFFCURVE",
"497 544 OFFCURVE",
"305 544 CURVE SMOOTH",
"164 544 OFFCURVE",
"73 486 OFFCURVE",
"73 398 CURVE SMOOTH",
"73 340 OFFCURVE",
"113 294 OFFCURVE",
"173 273 CURVE",
"109 245 OFFCURVE",
"73 198 OFFCURVE",
"73 142 CURVE SMOOTH",
"73 85 OFFCURVE",
"105 36 OFFCURVE",
"133 13 CURVE",
"207 -2 LINE",
"259 99 OFFCURVE",
"289 119 OFFCURVE",
"317 119 CURVE SMOOTH",
"344 119 OFFCURVE",
"364 99 OFFCURVE",
"364 75 CURVE SMOOTH",
"364 51 OFFCURVE",
"344 23 OFFCURVE",
"332 5 CURVE",
"404 -10 LINE",
"427 24 OFFCURVE",
"437 56 OFFCURVE",
"437 84 CURVE SMOOTH",
"437 140 OFFCURVE",
"398 190 OFFCURVE",
"324 190 CURVE SMOOTH",
"269 190 OFFCURVE",
"227 163 OFFCURVE",
"168 66 CURVE",
"189 74 LINE",
"170 86 OFFCURVE",
"151 113 OFFCURVE",
"151 141 CURVE SMOOTH"
);
}
);
width = 694;
},
{
layerId = "B90EB90F-4FA1-4BBD-888F-E38A605CBEB2";
paths = (
{
closed = 1;
nodes = (
"170 204 OFFCURVE",
"231 244 OFFCURVE",
"287 252 CURVE",
"287 329 LINE",
"235 335 OFFCURVE",
"198 350 OFFCURVE",
"198 378 CURVE SMOOTH",
"198 408 OFFCURVE",
"263 419 OFFCURVE",
"324 419 CURVE SMOOTH",
"461 419 OFFCURVE",
"544 354 OFFCURVE",
"544 213 CURVE SMOOTH",
"544 163 OFFCURVE",
"533 72 OFFCURVE",
"522 16 CURVE",
"652 -10 LINE",
"663 48 OFFCURVE",
"673 152 OFFCURVE",
"673 224 CURVE SMOOTH",
"673 435 OFFCURVE",
"536 544 OFFCURVE",
"331 544 CURVE SMOOTH",
"167 544 OFFCURVE",
"68 480 OFFCURVE",
"68 386 CURVE SMOOTH",
"68 337 OFFCURVE",
"95 305 OFFCURVE",
"152 288 CURVE",
"86 260 OFFCURVE",
"55 208 OFFCURVE",
"55 148 CURVE SMOOTH",
"55 95 OFFCURVE",
"82 52 OFFCURVE",
"123 21 CURVE",
"219 1 LINE",
"257 75 OFFCURVE",
"297 99 OFFCURVE",
"326 99 CURVE SMOOTH",
"351 99 OFFCURVE",
"360 80 OFFCURVE",
"360 61 CURVE SMOOTH",
"360 45 OFFCURVE",
"356 31 OFFCURVE",
"350 16 CURVE",
"461 -10 LINE",
"473 14 OFFCURVE",
"483 53 OFFCURVE",
"483 83 CURVE SMOOTH",
"483 153 OFFCURVE",
"428 212 OFFCURVE",
"342 212 CURVE SMOOTH",
"284 212 OFFCURVE",
"204 178 OFFCURVE",
"171 86 CURVE",
"196 95 LINE",
"185 112 OFFCURVE",
"170 126 OFFCURVE",
"170 150 CURVE SMOOTH"
);
}
);
width = 739;
}
);
unicode = 1A26;
},
{
glyphname = "kxaLow-tham";
layers = (
{
layerId = "B90EB90F-4FA1-4BBD-888F-E38A605CBEB2";
paths = (
{
closed = 1;
nodes = (
"89 134 OFFCURVE",
"148 36 OFFCURVE",
"236 -10 CURVE",
"319 80 LINE",
"260 121 OFFCURVE",
"219 175 OFFCURVE",
"219 254 CURVE SMOOTH",
"219 351 OFFCURVE",
"286 419 OFFCURVE",
"385 419 CURVE SMOOTH",
"481 419 OFFCURVE",
"546 353 OFFCURVE",
"546 254 CURVE SMOOTH",
"546 177 OFFCURVE",
"507 121 OFFCURVE",
"447 81 CURVE",
"535 -9 LINE",
"612 41 OFFCURVE",
"676 135 OFFCURVE",
"676 255 CURVE SMOOTH",
"676 419 OFFCURVE",
"558 544 OFFCURVE",
"394 544 CURVE SMOOTH",
"312 544 OFFCURVE",
"233 510 OFFCURVE",
"178 433 CURVE",
"216 411 LINE",
"216 671 LINE SMOOTH",
"216 797 OFFCURVE",
"300 903 OFFCURVE",
"454 901 CURVE SMOOTH",
"523 900 OFFCURVE",
"581 881 OFFCURVE",
"615 862 CURVE",
"662 978 LINE",
"603 1010 OFFCURVE",
"535 1025 OFFCURVE",
"457 1025 CURVE SMOOTH",
"265 1025 OFFCURVE",
"89 910 OFFCURVE",
"89 634 CURVE SMOOTH",
"89 267 LINE SMOOTH"
);
}
);
width = 770;
},
{
layerId = "5a955c31-bd75-46b6-b903-8760881f133b";
paths = (
{
closed = 1;
nodes = (
"89 135 OFFCURVE",
"158 58 OFFCURVE",
"242 -5 CURVE",
"292 56 LINE",
"216 100 OFFCURVE",
"166 171 OFFCURVE",
"166 267 CURVE SMOOTH",
"166 380 OFFCURVE",
"236 474 OFFCURVE",
"355 474 CURVE SMOOTH",
"476 474 OFFCURVE",
"540 380 OFFCURVE",
"540 267 CURVE SMOOTH",
"540 171 OFFCURVE",
"490 100 OFFCURVE",
"415 56 CURVE",
"464 -5 LINE",
"549 58 OFFCURVE",
"618 135 OFFCURVE",
"618 267 CURVE SMOOTH",
"618 425 OFFCURVE",
"514 544 OFFCURVE",
"358 544 CURVE SMOOTH",
"276 544 OFFCURVE",
"196 508 OFFCURVE",
"144 422 CURVE",
"164 407 LINE",
"164 664 LINE SMOOTH",
"164 839 OFFCURVE",
"246 932 OFFCURVE",
"396 930 CURVE SMOOTH",
"448 929 OFFCURVE",
"496 913 OFFCURVE",
"536 881 CURVE",
"581 950 LINE",
"526 985 OFFCURVE",
"470 1001 OFFCURVE",
"408 1001 CURVE SMOOTH",
"208 1001 OFFCURVE",
"90 866 OFFCURVE",
"89 636 CURVE SMOOTH",
"89 267 LINE SMOOTH"
);
}
);
width = 701;
}
);
unicode = 1A24;
},
{
glyphname = "caHigh-tham";
layers = (
{
layerId = "5a955c31-bd75-46b6-b903-8760881f133b";
paths = (
{
closed = 1;
nodes = (
"369 -10 OFFCURVE",
"418 6 OFFCURVE",
"458 31 CURVE SMOOTH",
"538 80 OFFCURVE",
"581 166 OFFCURVE",
"581 269 CURVE SMOOTH",
"581 327 OFFCURVE",
"567 375 OFFCURVE",
"546 414 CURVE SMOOTH",
"501 499 OFFCURVE",
"418 546 OFFCURVE",
"303 546 CURVE SMOOTH",
"168 546 OFFCURVE",
"73 484 OFFCURVE",
"73 397 CURVE SMOOTH",
"73 340 OFFCURVE",
"113 294 OFFCURVE",
"173 273 CURVE",
"109 245 OFFCURVE",
"73 198 OFFCURVE",
"73 140 CURVE SMOOTH",
"73 48 OFFCURVE",
"161 -10 OFFCURVE",
"297 -10 CURVE SMOOTH"
);
},
{
closed = 1;
nodes = (
"211 61 OFFCURVE",
"151 86 OFFCURVE",
"151 146 CURVE SMOOTH",
"151 205 OFFCURVE",
"210 241 OFFCURVE",
"298 245 CURVE",
"298 296 LINE",
"211 305 OFFCURVE",
"151 339 OFFCURVE",
"151 391 CURVE SMOOTH",
"151 446 OFFCURVE",
"216 475 OFFCURVE",
"297 475 CURVE SMOOTH",
"424 475 OFFCURVE",
"503 403 OFFCURVE",
"503 273 CURVE SMOOTH",
"503 231 OFFCURVE",
"495 192 OFFCURVE",
"482 163 CURVE SMOOTH",
"451 91 OFFCURVE",
"385 61 OFFCURVE",
"293 61 CURVE SMOOTH"
);
}
);
width = 659;
},
{
layerId = "B90EB90F-4FA1-4BBD-888F-E38A605CBEB2";
paths = (
{
closed = 1;
nodes = (
"379 -10 OFFCURVE",
"434 8 OFFCURVE",
"477 32 CURVE SMOOTH",
"572 83 OFFCURVE",
"613 166 OFFCURVE",
"613 265 CURVE SMOOTH",
"613 327 OFFCURVE",
"597 380 OFFCURVE",
"572 421 CURVE SMOOTH",
"523 504 OFFCURVE",
"434 544 OFFCURVE",
"324 544 CURVE SMOOTH",
"175 544 OFFCURVE",
"68 474 OFFCURVE",
"68 381 CURVE SMOOTH",
"68 327 OFFCURVE",
"105 290 OFFCURVE",
"161 273 CURVE",
"102 250 OFFCURVE",
"68 212 OFFCURVE",
"68 156 CURVE SMOOTH",
"68 58 OFFCURVE",
"167 -10 OFFCURVE",
"310 -10 CURVE SMOOTH"
);
},
{
closed = 1;
nodes = (
"247 115 OFFCURVE",
"196 133 OFFCURVE",
"196 168 CURVE SMOOTH",
"196 203 OFFCURVE",
"247 223 OFFCURVE",
"321 226 CURVE",
"321 316 LINE",
"247 320 OFFCURVE",
"196 339 OFFCURVE",
"196 366 CURVE SMOOTH",
"196 402 OFFCURVE",
"251 419 OFFCURVE",
"313 419 CURVE SMOOTH",
"415 419 OFFCURVE",
"486 370 OFFCURVE",
"486 269 CURVE SMOOTH",
"486 232 OFFCURVE",
"477 208 OFFCURVE",
"469 193 CURVE SMOOTH",
"440 139 OFFCURVE",
"382 115 OFFCURVE",
"310 115 CURVE SMOOTH"
);
}
);
width = 689;
}
);
unicode = 1A27;
},
{
glyphname = "chaHigh-tham";
layers = (
{
components = (
{
name = "signAa-tham";
}
);
layerId = "5a955c31-bd75-46b6-b903-8760881f133b";
paths = (
{
closed = 1;
nodes = (
"791 -10 OFFCURVE",
"897 86 OFFCURVE",
"897 241 CURVE SMOOTH",
"897 313 OFFCURVE",
"874 368 OFFCURVE",
"837 410 CURVE SMOOTH",
"794 460 OFFCURVE",
"733 491 OFFCURVE",
"662 516 CURVE SMOOTH",
"593 541 OFFCURVE",
"499 566 OFFCURVE",
"414 623 CURVE SMOOTH",
"349 665 OFFCURVE",
"279 735 OFFCURVE",
"279 812 CURVE SMOOTH",
"279 876 OFFCURVE",
"328 920 OFFCURVE",
"375 938 CURVE",
"326 994 LINE",
"255 961 OFFCURVE",
"201 899 OFFCURVE",
"201 809 CURVE SMOOTH",
"201 759 OFFCURVE",
"218 716 OFFCURVE",
"247 676 CURVE SMOOTH",
"275 637 OFFCURVE",
"316 601 OFFCURVE",
"365 568 CURVE SMOOTH",
"475 495 OFFCURVE",
"584 471 OFFCURVE",
"666 438 CURVE SMOOTH",
"756 402 OFFCURVE",
"819 349 OFFCURVE",
"819 241 CURVE SMOOTH",
"819 130 OFFCURVE",
"752 61 OFFCURVE",
"652 61 CURVE SMOOTH",
"564 61 OFFCURVE",
"484 113 OFFCURVE",
"489 267 CURVE",
"436 161 LINE",
"456 50 OFFCURVE",
"544 -10 OFFCURVE",
"653 -10 CURVE SMOOTH"
);
}
);
width = 975;
},
{
components = (
{
name = "signAa-tham";
transform = "{1, 0, 0, 1, 3, 0}";
}
);
layerId = "B90EB90F-4FA1-4BBD-888F-E38A605CBEB2";
paths = (
{
closed = 1;
nodes = (
"847 -10 OFFCURVE",
"967 86 OFFCURVE",
"967 253 CURVE SMOOTH",
"967 324 OFFCURVE",
"945 389 OFFCURVE",
"901 439 CURVE SMOOTH",
"861 485 OFFCURVE",
"801 527 OFFCURVE",
"712 562 CURVE SMOOTH",
"619 598 OFFCURVE",
"522 627 OFFCURVE",
"454 665 CURVE SMOOTH",
"402 694 OFFCURVE",
"377 730 OFFCURVE",
"377 777 CURVE SMOOTH",
"377 857 OFFCURVE",
"443 900 OFFCURVE",
"480 918 CURVE",
"373 990 LINE",
"317 958 OFFCURVE",
"250 883 OFFCURVE",
"250 781 CURVE SMOOTH",
"250 736 OFFCURVE",
"260 698 OFFCURVE",
"280 664 CURVE SMOOTH",
"300 629 OFFCURVE",
"332 597 OFFCURVE",
"371 571 CURVE SMOOTH",
"469 507 OFFCURVE",
"613 477 OFFCURVE",
"707 431 CURVE SMOOTH",
"789 392 OFFCURVE",
"836 339 OFFCURVE",
"836 257 CURVE SMOOTH",
"836 151 OFFCURVE",
"763 115 OFFCURVE",
"699 115 CURVE SMOOTH",
"621 115 OFFCURVE",
"544 170 OFFCURVE",
"544 257 CURVE",
"480 120 LINE",
"499 45 OFFCURVE",
"581 -10 OFFCURVE",
"694 -10 CURVE SMOOTH"
);
}
);
width = 1049;
}
);
unicode = 1A28;
},
{
glyphname = "caLow-tham";
layers = (
{
layerId = "5a955c31-bd75-46b6-b903-8760881f133b";
paths = (
{
closed = 1;
nodes = (
"297 64 LINE",
"200 87 OFFCURVE",
"152 154 OFFCURVE",
"152 267 CURVE SMOOTH",
"152 399 OFFCURVE",
"222 473 OFFCURVE",
"337 473 CURVE SMOOTH",
"409 473 OFFCURVE",
"477 445 OFFCURVE",
"477 391 CURVE SMOOTH",
"477 339 OFFCURVE",
"416 305 OFFCURVE",
"330 297 CURVE",
"330 246 LINE",
"425 236 OFFCURVE",
"481 181 OFFCURVE",
"481 80 CURVE SMOOTH",
"481 66 OFFCURVE",
"480 39 OFFCURVE",
"474 9 CURVE",
"548 -5 LINE",
"556 21 OFFCURVE",
"560 54 OFFCURVE",
"560 81 CURVE SMOOTH",
"560 157 OFFCURVE",
"527 231 OFFCURVE",
"455 273 CURVE",
"515 294 OFFCURVE",
"555 340 OFFCURVE",
"555 397 CURVE SMOOTH",
"555 487 OFFCURVE",
"455 544 OFFCURVE",
"341 544 CURVE SMOOTH",
"175 544 OFFCURVE",
"74 423 OFFCURVE",
"74 265 CURVE SMOOTH",
"74 152 OFFCURVE",
"124 29 OFFCURVE",
"266 -7 CURVE"
);
}
);
width = 633;
},
{
layerId = "B90EB90F-4FA1-4BBD-888F-E38A605CBEB2";
paths = (
{
closed = 1;
nodes = (
"320 103 LINE",
"238 134 OFFCURVE",
"200 183 OFFCURVE",
"200 259 CURVE SMOOTH",
"200 367 OFFCURVE",
"270 421 OFFCURVE",
"380 421 CURVE SMOOTH",
"437 421 OFFCURVE",
"487 407 OFFCURVE",
"487 375 CURVE SMOOTH",
"487 340 OFFCURVE",
"427 312 OFFCURVE",
"343 307 CURVE",
"343 234 LINE",
"435 225 OFFCURVE",
"489 174 OFFCURVE",
"489 79 CURVE SMOOTH",
"489 66 OFFCURVE",
"488 39 OFFCURVE",
"482 9 CURVE",
"610 -5 LINE",
"617 21 OFFCURVE",
"621 54 OFFCURVE",
"621 80 CURVE SMOOTH",
"621 156 OFFCURVE",
"589 229 OFFCURVE",
"521 271 CURVE",
"576 293 OFFCURVE",
"616 339 OFFCURVE",
"616 397 CURVE SMOOTH",
"616 488 OFFCURVE",
"510 546 OFFCURVE",
"377 546 CURVE SMOOTH",
"212 546 OFFCURVE",
"70 456 OFFCURVE",
"70 259 CURVE SMOOTH",
"70 125 OFFCURVE",
"134 27 OFFCURVE",
"258 -10 CURVE"
);
}
);
width = 687;
}
);
unicode = 1A29;
},
{
glyphname = "da-tham";
layers = (
{
layerId = "5a955c31-bd75-46b6-b903-8760881f133b";
paths = (
{
closed = 1;
nodes = (
"130 2 OFFCURVE",
"174 7 OFFCURVE",
"212 7 CURVE SMOOTH",
"327 7 OFFCURVE",
"405 -40 OFFCURVE",
"475 -132 CURVE",
"540 -85 LINE",
"462 -4 OFFCURVE",
"399 59 OFFCURVE",
"277 69 CURVE",
"423 131 OFFCURVE",
"490 222 OFFCURVE",
"490 325 CURVE SMOOTH",
"490 441 OFFCURVE",
"405 546 OFFCURVE",
"260 546 CURVE SMOOTH",
"173 546 OFFCURVE",
"99 508 OFFCURVE",
"52 440 CURVE",
"110 393 LINE",
"147 449 OFFCURVE",
"195 475 OFFCURVE",
"256 475 CURVE SMOOTH",
"346 475 OFFCURVE",
"411 418 OFFCURVE",
"411 327 CURVE SMOOTH",
"411 181 OFFCURVE",
"238 106 OFFCURVE",
"54 60 CURVE",
"69 -8 LINE"
);
}
);
width = 570;
},
{
layerId = "B90EB90F-4FA1-4BBD-888F-E38A605CBEB2";
paths = (
{
closed = 1;
nodes = (
"125 2 OFFCURVE",
"170 10 OFFCURVE",
"223 10 CURVE SMOOTH",
"317 10 OFFCURVE",
"397 -13 OFFCURVE",
"505 -130 CURVE",
"603 -58 LINE",
"533 19 OFFCURVE",
"474 77 OFFCURVE",
"370 98 CURVE",
"476 139 OFFCURVE",
"532 226 OFFCURVE",
"532 318 CURVE SMOOTH",
"532 432 OFFCURVE",
"449 544 OFFCURVE",
"294 544 CURVE SMOOTH",
"217 544 OFFCURVE",
"128 516 OFFCURVE",
"54 429 CURVE",
"139 338 LINE",
"175 381 OFFCURVE",
"225 419 OFFCURVE",
"286 419 CURVE SMOOTH",
"355 419 OFFCURVE",
"402 370 OFFCURVE",
"402 310 CURVE SMOOTH",
"402 208 OFFCURVE",
"271 144 OFFCURVE",
"62 106 CURVE",
"87 -8 LINE"
);
}
);
width = 618;
}
);
unicode = 1A2F;
},
{
glyphname = "rata-tham";
layers = (
{
layerId = "5a955c31-bd75-46b6-b903-8760881f133b";
paths = (
{
closed = 1;
nodes = (
"419 518 LINE",
"547 425 OFFCURVE",
"590 313 OFFCURVE",
"590 211 CURVE SMOOTH",
"590 105 OFFCURVE",
"543 61 OFFCURVE",
"499 61 CURVE SMOOTH",
"458 61 OFFCURVE",
"430 99 OFFCURVE",
"413 153 CURVE",
"341 180 LINE",
"317 102 OFFCURVE",
"281 62 OFFCURVE",
"228 62 CURVE SMOOTH",
"184 62 OFFCURVE",
"151 92 OFFCURVE",
"151 132 CURVE SMOOTH",
"151 185 OFFCURVE",
"205 237 OFFCURVE",
"302 249 CURVE",
"302 312 LINE",
"219 317 OFFCURVE",
"171 358 OFFCURVE",
"171 409 CURVE SMOOTH",
"171 451 OFFCURVE",
"203 473 OFFCURVE",
"238 473 CURVE SMOOTH",
"263 473 OFFCURVE",
"287 462 OFFCURVE",
"303 424 CURVE",
"360 466 LINE",
"334 522 OFFCURVE",
"291 544 OFFCURVE",
"240 544 CURVE SMOOTH",
"165 544 OFFCURVE",
"93 496 OFFCURVE",
"93 409 CURVE SMOOTH",
"93 356 OFFCURVE",
"119 311 OFFCURVE",
"181 281 CURVE",
"113 249 OFFCURVE",
"73 195 OFFCURVE",
"73 132 CURVE SMOOTH",
"73 52 OFFCURVE",
"138 -9 OFFCURVE",
"226 -9 CURVE SMOOTH",
"284 -9 OFFCURVE",
"332 17 OFFCURVE",
"368 77 CURVE",
"405 3 OFFCURVE",
"460 -10 OFFCURVE",
"498 -10 CURVE SMOOTH",
"595 -10 OFFCURVE",
"667 76 OFFCURVE",
"667 213 CURVE SMOOTH",
"667 324 OFFCURVE",
"619 452 OFFCURVE",
"498 549 CURVE"
);
}
);
width = 746;
},
{
layerId = "B90EB90F-4FA1-4BBD-888F-E38A605CBEB2";
paths = (
{
closed = 1;
nodes = (
"445 507 LINE",
"553 401 OFFCURVE",
"586 317 OFFCURVE",
"586 236 CURVE SMOOTH",
"586 155 OFFCURVE",
"555 113 OFFCURVE",
"519 113 CURVE SMOOTH",
"493 113 OFFCURVE",
"461 136 OFFCURVE",
"448 183 CURVE",
"371 210 LINE",
"331 149 OFFCURVE",
"292 115 OFFCURVE",
"252 115 CURVE SMOOTH",
"218 115 OFFCURVE",
"198 140 OFFCURVE",
"198 163 CURVE SMOOTH",
"198 201 OFFCURVE",
"252 233 OFFCURVE",
"331 236 CURVE",
"331 322 LINE",
"260 325 OFFCURVE",
"219 355 OFFCURVE",
"219 386 CURVE SMOOTH",
"219 410 OFFCURVE",
"239 419 OFFCURVE",
"261 419 CURVE SMOOTH",
"285 419 OFFCURVE",
"309 408 OFFCURVE",
"331 380 CURVE",
"406 478 LINE",
"367 524 OFFCURVE",
"319 544 OFFCURVE",
"263 544 CURVE SMOOTH",
"175 544 OFFCURVE",
"90 492 OFFCURVE",
"90 399 CURVE SMOOTH",
"90 351 OFFCURVE",
"113 312 OFFCURVE",
"170 284 CURVE",
"111 266 OFFCURVE",
"68 218 OFFCURVE",
"68 152 CURVE SMOOTH",
"68 59 OFFCURVE",
"151 -9 OFFCURVE",
"238 -9 CURVE SMOOTH",
"297 -9 OFFCURVE",
"347 19 OFFCURVE",
"390 76 CURVE",
"429 0 OFFCURVE",
"495 -10 OFFCURVE",
"527 -10 CURVE SMOOTH",
"626 -10 OFFCURVE",
"716 91 OFFCURVE",
"716 232 CURVE SMOOTH",
"716 334 OFFCURVE",
"664 456 OFFCURVE",
"582 539 CURVE"
);
}
);
width = 789;
}
);
unicode = 1A2D;
},
{
glyphname = "nya-tham";
layers = (
{
components = (
{
name = _part.backC;
transform = "{1, 0, 0, 1, 447, 0}";
},
{
name = "signAa-tham";
transform = "{1, 0, 0, 1, 29, 0}";
}
);
layerId = "5a955c31-bd75-46b6-b903-8760881f133b";
paths = (
{
closed = 1;
nodes = (
"825 -275 LINE",
"808 -347 OFFCURVE",
"773 -381 OFFCURVE",
"677 -381 CURVE SMOOTH",
"306 -381 LINE SMOOTH",
"271 -381 OFFCURVE",
"243 -375 OFFCURVE",
"219 -360 CURVE SMOOTH",
"177 -335 OFFCURVE",
"157 -293 OFFCURVE",
"157 -148 CURVE SMOOTH",
"157 43 LINE",
"81 128 LINE",
"81 -182 LINE SMOOTH",
"81 -348 OFFCURVE",
"150 -452 OFFCURVE",
"296 -452 CURVE SMOOTH",
"693 -452 LINE SMOOTH",
"806 -452 OFFCURVE",
"877 -391 OFFCURVE",
"895 -301 CURVE"
);
}
);
width = 1000;
},
{
components = (
{
name = _part.backC;
transform = "{1, 0, 0, 1, 30, 0}";
},
{
name = "signAa-tham";
transform = "{1, 0, 0, 1, 17, 0}";
}
);
layerId = "B90EB90F-4FA1-4BBD-888F-E38A605CBEB2";
paths = (
{
closed = 1;
nodes = (
"829 -224 LINE",
"797 -294 OFFCURVE",
"773 -330 OFFCURVE",
"661 -330 CURVE SMOOTH",
"342 -330 LINE SMOOTH",
"307 -330 OFFCURVE",
"279 -326 OFFCURVE",
"252 -310 CURVE SMOOTH",
"217 -289 OFFCURVE",
"200 -259 OFFCURVE",
"200 -148 CURVE SMOOTH",
"200 95 LINE",
"71 159 LINE",
"71 -182 LINE SMOOTH",
"71 -348 OFFCURVE",
"143 -452 OFFCURVE",
"294 -452 CURVE SMOOTH",
"677 -452 LINE SMOOTH",
"814 -452 OFFCURVE",
"895 -402 OFFCURVE",
"937 -282 CURVE"
);
}
);
width = 1014;
}
);
unicode = 1A2C;
},
{
glyphname = "saLow-tham";
layers = (
{
layerId = "5a955c31-bd75-46b6-b903-8760881f133b";
paths = (
{
closed = 1;
nodes = (
"87 127 OFFCURVE",
"160 33 OFFCURVE",
"251 -10 CURVE",
"290 59 LINE",
"220 85 OFFCURVE",
"163 163 OFFCURVE",
"163 260 CURVE SMOOTH",
"163 398 OFFCURVE",
"268 475 OFFCURVE",
"397 475 CURVE SMOOTH",
"479 475 OFFCURVE",
"547 446 OFFCURVE",
"547 389 CURVE SMOOTH",
"547 339 OFFCURVE",
"486 305 OFFCURVE",
"400 297 CURVE",
"400 246 LINE",
"495 236 OFFCURVE",
"552 181 OFFCURVE",
"552 86 CURVE SMOOTH",
"552 66 OFFCURVE",
"550 39 OFFCURVE",
"544 9 CURVE",
"618 -5 LINE",
"626 21 OFFCURVE",
"630 54 OFFCURVE",
"630 79 CURVE SMOOTH",
"630 157 OFFCURVE",
"598 231 OFFCURVE",
"525 273 CURVE",
"585 294 OFFCURVE",
"625 340 OFFCURVE",
"625 396 CURVE SMOOTH",
"625 488 OFFCURVE",
"525 546 OFFCURVE",
"396 546 CURVE SMOOTH",
"303 546 OFFCURVE",
"210 518 OFFCURVE",
"147 431 CURVE",
"165 405 LINE",
"165 663 LINE SMOOTH",
"165 839 OFFCURVE",
"247 932 OFFCURVE",
"397 930 CURVE SMOOTH",
"453 929 OFFCURVE",
"504 913 OFFCURVE",
"548 881 CURVE",
"593 950 LINE",
"534 985 OFFCURVE",
"475 1001 OFFCURVE",
"409 1001 CURVE SMOOTH",
"210 1001 OFFCURVE",
"91 866 OFFCURVE",
"90 635 CURVE SMOOTH",
"88 271 LINE SMOOTH"
);
}
);
width = 713;
},
{
layerId = "B90EB90F-4FA1-4BBD-888F-E38A605CBEB2";
paths = (
{
closed = 1;
nodes = (
"85 127 OFFCURVE",
"156 39 OFFCURVE",
"259 -10 CURVE",
"320 103 LINE",
"267 130 OFFCURVE",
"215 176 OFFCURVE",
"215 256 CURVE SMOOTH",
"215 363 OFFCURVE",
"304 419 OFFCURVE",
"423 419 CURVE SMOOTH",
"481 419 OFFCURVE",
"528 407 OFFCURVE",
"528 375 CURVE SMOOTH",
"528 340 OFFCURVE",
"468 312 OFFCURVE",
"384 307 CURVE",
"384 234 LINE",
"476 225 OFFCURVE",
"530 174 OFFCURVE",
"530 82 CURVE SMOOTH",
"530 66 OFFCURVE",
"529 39 OFFCURVE",
"523 9 CURVE",
"651 -5 LINE",
"658 21 OFFCURVE",
"662 54 OFFCURVE",
"662 80 CURVE SMOOTH",
"662 156 OFFCURVE",
"630 229 OFFCURVE",
"562 271 CURVE",
"617 293 OFFCURVE",
"657 339 OFFCURVE",
"657 396 CURVE SMOOTH",
"657 488 OFFCURVE",
"557 544 OFFCURVE",
"430 544 CURVE SMOOTH",
"332 544 OFFCURVE",
"226 510 OFFCURVE",
"175 420 CURVE",
"212 409 LINE",
"212 671 LINE SMOOTH",
"212 813 OFFCURVE",
"309 903 OFFCURVE",
"450 901 CURVE SMOOTH",
"517 900 OFFCURVE",
"573 881 OFFCURVE",
"606 862 CURVE",
"646 978 LINE",
"590 1010 OFFCURVE",
"526 1025 OFFCURVE",
"453 1025 CURVE SMOOTH",
"261 1025 OFFCURVE",
"85 910 OFFCURVE",
"85 640 CURVE SMOOTH",
"85 271 LINE SMOOTH"
);
}
);
width = 754;
}
);
unicode = 1A2A;
},
{
glyphname = "chaLow-tham";
layers = (
{
components = (
{
name = "caHigh-tham";
}
);
layerId = "5a955c31-bd75-46b6-b903-8760881f133b";
paths = (
{
closed = 1;
nodes = (
"882 -10 OFFCURVE",
"981 102 OFFCURVE",
"981 264 CURVE SMOOTH",
"981 354 OFFCURVE",
"948 439 OFFCURVE",
"869 498 CURVE SMOOTH",
"818 535 OFFCURVE",
"759 554 OFFCURVE",
"688 572 CURVE SMOOTH",
"622 588 OFFCURVE",
"551 604 OFFCURVE",
"487 637 CURVE SMOOTH",
"416 673 OFFCURVE",
"359 729 OFFCURVE",
"359 802 CURVE SMOOTH",
"359 868 OFFCURVE",
"408 914 OFFCURVE",
"455 932 CURVE",
"408 980 LINE",
"339 949 OFFCURVE",
"281 883 OFFCURVE",
"281 798 CURVE SMOOTH",
"281 726 OFFCURVE",
"323 657 OFFCURVE",
"392 607 CURVE SMOOTH",
"424 584 OFFCURVE",
"463 564 OFFCURVE",
"502 549 CURVE SMOOTH",
"591 515 OFFCURVE",
"678 506 OFFCURVE",
"747 480 CURVE SMOOTH",
"841 444 OFFCURVE",
"903 375 OFFCURVE",
"903 260 CURVE SMOOTH",
"903 146 OFFCURVE",
"844 61 OFFCURVE",
"735 61 CURVE SMOOTH",
"665 61 OFFCURVE",
"587 98 OFFCURVE",
"574 208 CURVE",
"526 144 LINE",
"544 44 OFFCURVE",
"631 -10 OFFCURVE",
"734 -10 CURVE SMOOTH"
);
}
);
width = 1060;
},
{
components = (
{
name = "caHigh-tham";
}
);
layerId = "B90EB90F-4FA1-4BBD-888F-E38A605CBEB2";
paths = (
{
closed = 1;
nodes = (
"916 -5 OFFCURVE",
"1036 91 OFFCURVE",
"1036 258 CURVE SMOOTH",
"1036 329 OFFCURVE",
"1014 394 OFFCURVE",
"970 444 CURVE SMOOTH",
"930 490 OFFCURVE",
"870 532 OFFCURVE",
"781 567 CURVE SMOOTH",
"688 603 OFFCURVE",
"591 632 OFFCURVE",
"523 670 CURVE SMOOTH",
"471 699 OFFCURVE",
"446 735 OFFCURVE",
"446 782 CURVE SMOOTH",
"446 862 OFFCURVE",
"512 905 OFFCURVE",
"549 923 CURVE",
"442 995 LINE",
"386 963 OFFCURVE",
"319 888 OFFCURVE",
"319 786 CURVE SMOOTH",
"319 741 OFFCURVE",
"329 703 OFFCURVE",
"349 669 CURVE SMOOTH",
"369 634 OFFCURVE",
"401 602 OFFCURVE",
"440 576 CURVE SMOOTH",
"537 511 OFFCURVE",
"682 482 OFFCURVE",
"776 436 CURVE SMOOTH",
"858 396 OFFCURVE",
"905 344 OFFCURVE",
"905 262 CURVE SMOOTH",
"905 156 OFFCURVE",
"832 120 OFFCURVE",
"768 120 CURVE SMOOTH",
"690 120 OFFCURVE",
"613 175 OFFCURVE",
"613 262 CURVE",
"549 125 LINE",
"568 50 OFFCURVE",
"650 -5 OFFCURVE",
"763 -5 CURVE SMOOTH"
);
}
);
width = 1109;
}
);
unicode = 1A2B;
},
{
glyphname = "taHigh-tham";
layers = (
{
layerId = "5a955c31-bd75-46b6-b903-8760881f133b";
paths = (
{
closed = 1;
nodes = (
"451 -10 OFFCURVE",
"539 108 OFFCURVE",
"539 267 CURVE SMOOTH",
"539 425 OFFCURVE",
"451 544 OFFCURVE",
"309 544 CURVE SMOOTH",
"166 544 OFFCURVE",
"78 425 OFFCURVE",
"78 267 CURVE SMOOTH",
"78 108 OFFCURVE",
"166 -10 OFFCURVE",
"309 -10 CURVE SMOOTH"
);
},
{
closed = 1;
nodes = (
"212 61 OFFCURVE",
"156 152 OFFCURVE",
"156 267 CURVE SMOOTH",
"156 380 OFFCURVE",
"212 474 OFFCURVE",
"309 474 CURVE SMOOTH",
"405 474 OFFCURVE",
"460 380 OFFCURVE",
"460 267 CURVE SMOOTH",
"460 152 OFFCURVE",
"405 61 OFFCURVE",
"309 61 CURVE SMOOTH"
);
},
{
closed = 1;
nodes = (
"539 266 LINE",
"532 402 OFFCURVE",
"604 473 OFFCURVE",
"695 473 CURVE SMOOTH",
"800 473 OFFCURVE",
"860 380 OFFCURVE",
"860 266 CURVE SMOOTH",
"860 152 OFFCURVE",
"800 61 OFFCURVE",
"695 61 CURVE SMOOTH",
"664 61 OFFCURVE",
"637 69 OFFCURVE",
"613 82 CURVE",
"573 24 LINE",
"610 2 OFFCURVE",
"650 -10 OFFCURVE",
"697 -10 CURVE SMOOTH",
"844 -10 OFFCURVE",
"938 111 OFFCURVE",
"938 269 CURVE SMOOTH",
"938 425 OFFCURVE",
"846 544 OFFCURVE",
"696 544 CURVE SMOOTH",
"591 544 OFFCURVE",
"526 486 OFFCURVE",
"492 421 CURVE"
);
}
);
width = 1016;
},
{
layerId = "B90EB90F-4FA1-4BBD-888F-E38A605CBEB2";
paths = (
{
closed = 1;
nodes = (
"473 -10 OFFCURVE",
"568 108 OFFCURVE",
"568 267 CURVE SMOOTH",
"568 425 OFFCURVE",
"473 544 OFFCURVE",
"318 544 CURVE SMOOTH",
"163 544 OFFCURVE",
"68 425 OFFCURVE",
"68 267 CURVE SMOOTH",
"68 108 OFFCURVE",
"163 -10 OFFCURVE",
"318 -10 CURVE SMOOTH"
);
},
{
closed = 1;
nodes = (
"242 115 OFFCURVE",
"198 182 OFFCURVE",
"198 267 CURVE SMOOTH",
"198 351 OFFCURVE",
"242 420 OFFCURVE",
"318 420 CURVE SMOOTH",
"395 420 OFFCURVE",
"438 351 OFFCURVE",
"438 267 CURVE SMOOTH",
"438 182 OFFCURVE",
"395 115 OFFCURVE",
"318 115 CURVE SMOOTH"
);
},
{
closed = 1;
nodes = (
"567 268 LINE",
"575 372 OFFCURVE",
"631 420 OFFCURVE",
"702 420 CURVE SMOOTH",
"785 420 OFFCURVE",
"828 353 OFFCURVE",
"828 269 CURVE SMOOTH",
"828 184 OFFCURVE",
"782 115 OFFCURVE",
"697 115 CURVE SMOOTH",
"673 115 OFFCURVE",
"653 120 OFFCURVE",
"624 134 CURVE",
"589 15 LINE",
"621 0 OFFCURVE",
"663 -9 OFFCURVE",
"706 -9 CURVE SMOOTH",
"859 -9 OFFCURVE",
"955 110 OFFCURVE",
"955 268 CURVE SMOOTH",
"955 427 OFFCURVE",
"859 545 OFFCURVE",
"702 545 CURVE SMOOTH",
"582 545 OFFCURVE",
"502 474 OFFCURVE",
"486 355 CURVE"
);
}
);
width = 1020;
}
);
unicode = 1A32;
},
{
glyphname = "rana-tham";
layers = (
{
layerId = "5a955c31-bd75-46b6-b903-8760881f133b";
paths = (
{
closed = 1;
nodes = (
"329 -10 OFFCURVE",
"335 -10 OFFCURVE",
"341 -10 CURVE",
"331 61 LINE",
"221 61 OFFCURVE",
"156 142 OFFCURVE",
"156 267 CURVE SMOOTH",
"156 380 OFFCURVE",
"217 473 OFFCURVE",
"323 473 CURVE SMOOTH",
"422 473 OFFCURVE",
"470 395 OFFCURVE",
"470 283 CURVE SMOOTH",
"470 236 OFFCURVE",
"458 202 OFFCURVE",
"452 178 CURVE SMOOTH",
"446 152 OFFCURVE",
"438 123 OFFCURVE",
"438 100 CURVE SMOOTH",
"438 38 OFFCURVE",
"493 -10 OFFCURVE",
"580 -10 CURVE SMOOTH",
"661 -10 OFFCURVE",
"723 31 OFFCURVE",
"723 98 CURVE SMOOTH",
"723 123 OFFCURVE",
"714 152 OFFCURVE",
"708 174 CURVE SMOOTH",
"702 202 OFFCURVE",
"691 236 OFFCURVE",
"691 283 CURVE SMOOTH",
"691 404 OFFCURVE",
"748 473 OFFCURVE",
"839 473 CURVE SMOOTH",
"945 473 OFFCURVE",
"1006 380 OFFCURVE",
"1006 267 CURVE SMOOTH",
"1006 147 OFFCURVE",
"951 61 OFFCURVE",
"826 61 CURVE",
"815 -10 LINE",
"822 -10 OFFCURVE",
"832 -10 OFFCURVE",
"837 -10 CURVE SMOOTH",
"985 -10 OFFCURVE",
"1084 114 OFFCURVE",
"1084 267 CURVE SMOOTH",
"1084 425 OFFCURVE",
"992 544 OFFCURVE",
"843 544 CURVE SMOOTH",
"701 544 OFFCURVE",
"613 429 OFFCURVE",
"613 286 CURVE SMOOTH",
"613 253 OFFCURVE",
"618 220 OFFCURVE",
"627 183 CURVE SMOOTH",
"637 144 OFFCURVE",
"642 121 OFFCURVE",
"642 112 CURVE SMOOTH",
"642 81 OFFCURVE",
"619 61 OFFCURVE",
"578 61 CURVE SMOOTH",
"540 61 OFFCURVE",
"519 78 OFFCURVE",
"519 112 CURVE SMOOTH",
"519 121 OFFCURVE",
"524 144 OFFCURVE",
"534 183 CURVE SMOOTH",
"543 220 OFFCURVE",
"548 253 OFFCURVE",
"548 286 CURVE SMOOTH",
"548 427 OFFCURVE",
"463 544 OFFCURVE",
"319 544 CURVE SMOOTH",
"170 544 OFFCURVE",
"78 425 OFFCURVE",
"78 267 CURVE SMOOTH",
"78 114 OFFCURVE",
"177 -10 OFFCURVE",
"323 -10 CURVE SMOOTH"
);
}
);
width = 1162;
},
{
layerId = "B90EB90F-4FA1-4BBD-888F-E38A605CBEB2";
paths = (
{
closed = 1;
nodes = (
"333 -10 OFFCURVE",
"340 -10 OFFCURVE",
"346 -9 CURVE",
"335 115 LINE",
"248 115 OFFCURVE",
"198 175 OFFCURVE",
"198 267 CURVE SMOOTH",
"198 351 OFFCURVE",
"244 420 OFFCURVE",
"324 420 CURVE SMOOTH",
"403 420 OFFCURVE",
"438 363 OFFCURVE",
"438 283 CURVE SMOOTH",
"438 241 OFFCURVE",
"428 211 OFFCURVE",
"421 187 CURVE SMOOTH",
"415 164 OFFCURVE",
"409 147 OFFCURVE",
"409 123 CURVE SMOOTH",
"409 41 OFFCURVE",
"482 -10 OFFCURVE",
"599 -10 CURVE SMOOTH",
"715 -10 OFFCURVE",
"789 41 OFFCURVE",
"789 124 CURVE SMOOTH",
"789 147 OFFCURVE",
"783 164 OFFCURVE",
"776 191 CURVE SMOOTH",
"770 211 OFFCURVE",
"760 241 OFFCURVE",
"760 283 CURVE SMOOTH",
"760 370 OFFCURVE",
"802 420 OFFCURVE",
"876 420 CURVE SMOOTH",
"957 420 OFFCURVE",
"1002 351 OFFCURVE",
"1002 267 CURVE SMOOTH",
"1002 177 OFFCURVE",
"958 115 OFFCURVE",
"861 115 CURVE",
"850 -9 LINE",
"857 -9 OFFCURVE",
"865 -10 OFFCURVE",
"874 -10 CURVE SMOOTH",
"1027 -10 OFFCURVE",
"1132 114 OFFCURVE",
"1132 267 CURVE SMOOTH",
"1132 425 OFFCURVE",
"1035 544 OFFCURVE",
"876 544 CURVE SMOOTH",
"734 544 OFFCURVE",
"634 434 OFFCURVE",
"634 293 CURVE SMOOTH",
"634 259 OFFCURVE",
"640 228 OFFCURVE",
"650 193 CURVE SMOOTH",
"658 163 OFFCURVE",
"665 146 OFFCURVE",
"665 132 CURVE SMOOTH",
"665 112 OFFCURVE",
"640 95 OFFCURVE",
"598 95 CURVE SMOOTH",
"556 95 OFFCURVE",
"535 109 OFFCURVE",
"535 132 CURVE SMOOTH",
"535 146 OFFCURVE",
"542 163 OFFCURVE",
"550 193 CURVE SMOOTH",
"559 228 OFFCURVE",
"565 259 OFFCURVE",
"565 291 CURVE SMOOTH",
"565 430 OFFCURVE",
"469 544 OFFCURVE",
"324 544 CURVE SMOOTH",
"165 544 OFFCURVE",
"68 425 OFFCURVE",
"68 267 CURVE SMOOTH",
"68 114 OFFCURVE",
"173 -10 OFFCURVE",
"327 -10 CURVE SMOOTH"
);
}
);
width = 1200;
}
);
unicode = 1A31;
},
{
glyphname = "rathaLow-tham";
layers = (
{
layerId = "5a955c31-bd75-46b6-b903-8760881f133b";
paths = (
{
closed = 1;
nodes = (
"578 406 OFFCURVE",
"631 285 OFFCURVE",
"631 191 CURVE SMOOTH",
"631 92 OFFCURVE",
"570 59 OFFCURVE",
"520 59 CURVE SMOOTH",
"469 59 OFFCURVE",
"431 93 OFFCURVE",
"411 155 CURVE",
"344 179 LINE",
"321 106 OFFCURVE",
"284 59 OFFCURVE",
"214 59 CURVE SMOOTH",
"163 59 OFFCURVE",
"148 82 OFFCURVE",
"148 104 CURVE SMOOTH",
"148 151 OFFCURVE",
"218 179 OFFCURVE",
"293 218 CURVE SMOOTH",
"339 243 OFFCURVE",
"385 274 OFFCURVE",
"415 317 CURVE SMOOTH",
"434 346 OFFCURVE",
"446 380 OFFCURVE",
"446 418 CURVE SMOOTH",
"446 482 OFFCURVE",
"410 544 OFFCURVE",
"341 544 CURVE SMOOTH",
"312 544 OFFCURVE",
"282 533 OFFCURVE",
"259 496 CURVE",
"246 524 OFFCURVE",
"218 544 OFFCURVE",
"179 544 CURVE SMOOTH",
"122 544 OFFCURVE",
"75 501 OFFCURVE",
"75 447 CURVE SMOOTH",
"75 416 OFFCURVE",
"91 381 OFFCURVE",
"122 342 CURVE",
"180 365 LINE",
"151 396 OFFCURVE",
"143 419 OFFCURVE",
"143 438 CURVE SMOOTH",
"143 467 OFFCURVE",
"162 480 OFFCURVE",
"181 480 CURVE SMOOTH",
"205 480 OFFCURVE",
"223 460 OFFCURVE",
"219 426 CURVE",
"271 406 LINE",
"293 460 OFFCURVE",
"309 479 OFFCURVE",
"334 479 CURVE SMOOTH",
"368 479 OFFCURVE",
"377 442 OFFCURVE",
"377 415 CURVE SMOOTH",
"377 354 OFFCURVE",
"333 316 OFFCURVE",
"278 286 CURVE SMOOTH",
"215 250 OFFCURVE",
"136 217 OFFCURVE",
"100 172 CURVE SMOOTH",
"83 152 OFFCURVE",
"73 127 OFFCURVE",
"73 101 CURVE SMOOTH",
"73 42 OFFCURVE",
"124 -9 OFFCURVE",
"209 -9 CURVE SMOOTH",
"281 -9 OFFCURVE",
"344 27 OFFCURVE",
"372 92 CURVE",
"408 6 OFFCURVE",
"473 -10 OFFCURVE",
"518 -10 CURVE SMOOTH",
"623 -10 OFFCURVE",
"707 72 OFFCURVE",
"707 202 CURVE SMOOTH",
"707 254 OFFCURVE",
"694 402 OFFCURVE",
"523 560 CURVE",
"476 500 LINE"
);
}
);
width = 785;
},
{
layerId = "B90EB90F-4FA1-4BBD-888F-E38A605CBEB2";
paths = (
{
closed = 1;
nodes = (
"594 407 OFFCURVE",
"639 299 OFFCURVE",
"639 215 CURVE SMOOTH",
"639 133 OFFCURVE",
"596 105 OFFCURVE",
"556 105 CURVE SMOOTH",
"514 105 OFFCURVE",
"485 134 OFFCURVE",
"475 180 CURVE",
"373 204 LINE",
"348 144 OFFCURVE",
"307 105 OFFCURVE",
"249 105 CURVE SMOOTH",
"218 105 OFFCURVE",
"200 116 OFFCURVE",
"200 131 CURVE SMOOTH",
"200 158 OFFCURVE",
"240 181 OFFCURVE",
"345 226 CURVE SMOOTH",
"390 246 OFFCURVE",
"436 272 OFFCURVE",
"466 309 CURVE SMOOTH",
"488 334 OFFCURVE",
"501 367 OFFCURVE",
"501 405 CURVE SMOOTH",
"501 475 OFFCURVE",
"456 544 OFFCURVE",
"372 544 CURVE SMOOTH",
"338 544 OFFCURVE",
"305 533 OFFCURVE",
"281 496 CURVE",
"266 524 OFFCURVE",
"236 544 OFFCURVE",
"192 544 CURVE SMOOTH",
"119 544 OFFCURVE",
"66 490 OFFCURVE",
"66 426 CURVE SMOOTH",
"66 390 OFFCURVE",
"82 355 OFFCURVE",
"109 313 CURVE",
"196 351 LINE",
"176 376 OFFCURVE",
"168 394 OFFCURVE",
"168 406 CURVE SMOOTH",
"168 421 OFFCURVE",
"180 435 OFFCURVE",
"200 435 CURVE SMOOTH",
"223 435 OFFCURVE",
"241 418 OFFCURVE",
"232 382 CURVE",
"311 360 LINE",
"321 417 OFFCURVE",
"337 436 OFFCURVE",
"359 436 CURVE SMOOTH",
"385 436 OFFCURVE",
"389 409 OFFCURVE",
"389 401 CURVE SMOOTH",
"389 356 OFFCURVE",
"345 331 OFFCURVE",
"292 309 CURVE SMOOTH",
"234 286 OFFCURVE",
"163 255 OFFCURVE",
"126 222 CURVE SMOOTH",
"97 196 OFFCURVE",
"79 161 OFFCURVE",
"80 119 CURVE SMOOTH",
"82 50 OFFCURVE",
"135 -9 OFFCURVE",
"244 -9 CURVE SMOOTH",
"308 -9 OFFCURVE",
"369 12 OFFCURVE",
"413 75 CURVE",
"444 13 OFFCURVE",
"509 -10 OFFCURVE",
"564 -10 CURVE SMOOTH",
"675 -10 OFFCURVE",
"766 82 OFFCURVE",
"766 230 CURVE SMOOTH",
"766 275 OFFCURVE",
"755 413 OFFCURVE",
"630 560 CURVE",
"526 474 LINE"
);
}
);
width = 834;
}
);
unicode = 1A30;
},
{
glyphname = "ba-tham";
layers = (
{
layerId = "5a955c31-bd75-46b6-b903-8760881f133b";
paths = (
{
closed = 1;
nodes = (
"147 476 OFFCURVE",
"78 399 OFFCURVE",
"78 268 CURVE SMOOTH",
"78 110 OFFCURVE",
"183 -10 OFFCURVE",
"331 -10 CURVE SMOOTH",
"477 -10 OFFCURVE",
"581 110 OFFCURVE",
"581 268 CURVE SMOOTH",
"581 399 OFFCURVE",
"511 476 OFFCURVE",
"431 539 CURVE",
"382 478 LINE",
"453 434 OFFCURVE",
"502 363 OFFCURVE",
"502 268 CURVE SMOOTH",
"502 154 OFFCURVE",
"438 61 OFFCURVE",
"331 61 CURVE SMOOTH",
"222 61 OFFCURVE",
"156 154 OFFCURVE",
"156 268 CURVE SMOOTH",
"156 363 OFFCURVE",
"206 434 OFFCURVE",
"277 478 CURVE",
"228 539 LINE"
);
}
);
width = 659;
},
{
layerId = "B90EB90F-4FA1-4BBD-888F-E38A605CBEB2";
paths = (
{
closed = 1;
nodes = (
"126 500 OFFCURVE",
"68 402 OFFCURVE",
"68 276 CURVE SMOOTH",
"68 111 OFFCURVE",
"167 -8 OFFCURVE",
"328 -8 CURVE SMOOTH",
"489 -8 OFFCURVE",
"587 111 OFFCURVE",
"587 273 CURVE SMOOTH",
"587 401 OFFCURVE",
"526 495 OFFCURVE",
"452 545 CURVE",
"364 455 LINE",
"420 415 OFFCURVE",
"458 359 OFFCURVE",
"458 275 CURVE SMOOTH",
"458 185 OFFCURVE",
"411 116 OFFCURVE",
"328 116 CURVE SMOOTH",
"245 116 OFFCURVE",
"198 185 OFFCURVE",
"198 275 CURVE SMOOTH",
"198 361 OFFCURVE",
"237 415 OFFCURVE",
"294 456 CURVE",
"211 546 LINE"
);
}
);
width = 656;
}
);
unicode = 1A37;
},
{
glyphname = "na-tham";
layers = (
{
layerId = "5a955c31-bd75-46b6-b903-8760881f133b";
paths = (
{
closed = 1;
nodes = (
"317 114 OFFCURVE",
"275 100 OFFCURVE",
"217 71 CURVE",
"264 67 LINE",
"195 119 OFFCURVE",
"156 185 OFFCURVE",
"156 269 CURVE SMOOTH",
"156 381 OFFCURVE",
"222 473 OFFCURVE",
"331 473 CURVE SMOOTH",
"435 473 OFFCURVE",
"498 388 OFFCURVE",
"502 282 CURVE",
"580 295 LINE",
"569 438 OFFCURVE",
"468 544 OFFCURVE",
"331 544 CURVE SMOOTH",
"183 544 OFFCURVE",
"78 425 OFFCURVE",
"78 269 CURVE SMOOTH",
"78 138 OFFCURVE",
"147 61 OFFCURVE",
"228 -2 CURVE",
"257 19 OFFCURVE",
"304 44 OFFCURVE",
"367 44 CURVE SMOOTH",
"451 44 OFFCURVE",
"510 1 OFFCURVE",
"592 -89 CURVE",
"657 -43 LINE",
"556 63 OFFCURVE",
"488 115 OFFCURVE",
"375 114 CURVE SMOOTH"
);
}
);
width = 671;
},
{
layerId = "B90EB90F-4FA1-4BBD-888F-E38A605CBEB2";
paths = (
{
closed = 1;
nodes = (
"341 168 OFFCURVE",
"293 153 OFFCURVE",
"224 115 CURVE",
"283 109 LINE",
"226 163 OFFCURVE",
"199 208 OFFCURVE",
"199 269 CURVE SMOOTH",
"199 354 OFFCURVE",
"253 419 OFFCURVE",
"342 419 CURVE SMOOTH",
"426 419 OFFCURVE",
"476 358 OFFCURVE",
"479 273 CURVE",
"609 291 LINE",
"598 438 OFFCURVE",
"491 544 OFFCURVE",
"341 544 CURVE SMOOTH",
"183 544 OFFCURVE",
"68 427 OFFCURVE",
"68 269 CURVE SMOOTH",
"68 138 OFFCURVE",
"143 61 OFFCURVE",
"228 -2 CURVE",
"263 19 OFFCURVE",
"317 44 OFFCURVE",
"380 44 CURVE SMOOTH",
"462 44 OFFCURVE",
"512 4 OFFCURVE",
"601 -95 CURVE",
"709 -18 LINE",
"597 107 OFFCURVE",
"513 169 OFFCURVE",
"397 168 CURVE SMOOTH"
);
}
);
width = 688;
}
);
unicode = 1A36;
},
{
glyphname = "rathaHigh-tham";
layers = (
{
layerId = "5a955c31-bd75-46b6-b903-8760881f133b";
paths = (
{
closed = 1;
nodes = (
"330 -453 OFFCURVE",
"359 -449 OFFCURVE",
"384 -442 CURVE SMOOTH",
"468 -417 OFFCURVE",
"510 -353 OFFCURVE",
"510 -232 CURVE SMOOTH",
"510 124 LINE",
"435 38 LINE",
"435 -257 LINE SMOOTH",
"435 -273 OFFCURVE",
"434 -287 OFFCURVE",
"432 -299 CURVE SMOOTH",
"422 -358 OFFCURVE",
"386 -382 OFFCURVE",
"301 -382 CURVE SMOOTH",
"200 -382 OFFCURVE",
"158 -346 OFFCURVE",
"158 -307 CURVE SMOOTH",
"158 -264 OFFCURVE",
"207 -230 OFFCURVE",
"268 -230 CURVE SMOOTH",
"294 -230 OFFCURVE",
"323 -236 OFFCURVE",
"348 -246 CURVE",
"378 -184 LINE",
"346 -167 OFFCURVE",
"305 -159 OFFCURVE",
"270 -159 CURVE SMOOTH",
"175 -159 OFFCURVE",
"80 -216 OFFCURVE",
"80 -310 CURVE SMOOTH",
"80 -326 OFFCURVE",
"83 -340 OFFCURVE",
"88 -353 CURVE SMOOTH",
"111 -414 OFFCURVE",
"181 -453 OFFCURVE",
"297 -453 CURVE SMOOTH"
);
},
{
closed = 1;
nodes = (
"436 508 LINE",
"483 451 OFFCURVE",
"528 368 OFFCURVE",
"528 270 CURVE SMOOTH",
"528 138 OFFCURVE",
"446 59 OFFCURVE",
"297 60 CURVE SMOOTH",
"187 61 OFFCURVE",
"151 106 OFFCURVE",
"151 147 CURVE SMOOTH",
"151 200 OFFCURVE",
"213 246 OFFCURVE",
"302 249 CURVE",
"302 312 LINE",
"219 317 OFFCURVE",
"171 358 OFFCURVE",
"171 409 CURVE SMOOTH",
"171 450 OFFCURVE",
"203 473 OFFCURVE",
"238 473 CURVE SMOOTH",
"263 473 OFFCURVE",
"287 461 OFFCURVE",
"303 424 CURVE",
"360 466 LINE",
"334 521 OFFCURVE",
"290 544 OFFCURVE",
"239 544 CURVE SMOOTH",
"165 544 OFFCURVE",
"93 495 OFFCURVE",
"93 409 CURVE SMOOTH",
"93 357 OFFCURVE",
"119 314 OFFCURVE",
"181 284 CURVE",
"113 259 OFFCURVE",
"73 207 OFFCURVE",
"73 143 CURVE SMOOTH",
"74 55 OFFCURVE",
"148 -10 OFFCURVE",
"297 -11 CURVE SMOOTH",
"433 -12 OFFCURVE",
"522 40 OFFCURVE",
"571 129 CURVE SMOOTH",
"594 172 OFFCURVE",
"606 221 OFFCURVE",
"606 272 CURVE SMOOTH",
"606 369 OFFCURVE",
"562 466 OFFCURVE",
"508 539 CURVE"
);
}
);
width = 684;
},
{
layerId = "B90EB90F-4FA1-4BBD-888F-E38A605CBEB2";
paths = (
{
closed = 1;
nodes = (
"362 -453 OFFCURVE",
"401 -447 OFFCURVE",
"431 -437 CURVE SMOOTH",
"523 -408 OFFCURVE",
"565 -326 OFFCURVE",
"565 -219 CURVE SMOOTH",
"565 95 LINE",
"443 26 LINE",
"443 -222 LINE SMOOTH",
"443 -236 OFFCURVE",
"443 -250 OFFCURVE",
"441 -263 CURVE SMOOTH",
"431 -313 OFFCURVE",
"398 -333 OFFCURVE",
"316 -333 CURVE SMOOTH",
"248 -333 OFFCURVE",
"204 -320 OFFCURVE",
"204 -287 CURVE SMOOTH",
"204 -259 OFFCURVE",
"236 -242 OFFCURVE",
"273 -242 CURVE SMOOTH",
"297 -242 OFFCURVE",
"323 -249 OFFCURVE",
"338 -257 CURVE",
"388 -151 LINE",
"358 -135 OFFCURVE",
"321 -123 OFFCURVE",
"278 -123 CURVE SMOOTH",
"179 -123 OFFCURVE",
"79 -187 OFFCURVE",
"79 -288 CURVE SMOOTH",
"79 -311 OFFCURVE",
"84 -330 OFFCURVE",
"91 -346 CURVE SMOOTH",
"119 -413 OFFCURVE",
"197 -453 OFFCURVE",
"317 -453 CURVE SMOOTH"
);
},
{
closed = 1;
nodes = (
"436 507 LINE",
"484 445 OFFCURVE",
"526 370 OFFCURVE",
"526 280 CURVE SMOOTH",
"526 168 OFFCURVE",
"458 113 OFFCURVE",
"324 115 CURVE SMOOTH",
"234 116 OFFCURVE",
"198 142 OFFCURVE",
"198 169 CURVE SMOOTH",
"198 203 OFFCURVE",
"252 234 OFFCURVE",
"330 236 CURVE",
"330 322 LINE",
"260 325 OFFCURVE",
"219 355 OFFCURVE",
"219 387 CURVE SMOOTH",
"219 409 OFFCURVE",
"239 419 OFFCURVE",
"261 419 CURVE SMOOTH",
"285 419 OFFCURVE",
"308 407 OFFCURVE",
"331 380 CURVE",
"406 478 LINE",
"367 523 OFFCURVE",
"319 544 OFFCURVE",
"263 544 CURVE SMOOTH",
"175 544 OFFCURVE",
"90 491 OFFCURVE",
"90 399 CURVE SMOOTH",
"90 351 OFFCURVE",
"113 312 OFFCURVE",
"170 284 CURVE",
"106 260 OFFCURVE",
"68 213 OFFCURVE",
"68 152 CURVE SMOOTH",
"69 60 OFFCURVE",
"157 -8 OFFCURVE",
"329 -10 CURVE SMOOTH",
"472 -11 OFFCURVE",
"563 37 OFFCURVE",
"617 129 CURVE SMOOTH",
"641 170 OFFCURVE",
"656 217 OFFCURVE",
"656 272 CURVE SMOOTH",
"656 365 OFFCURVE",
"612 478 OFFCURVE",
"566 539 CURVE"
);
}
);
width = 729;
}
);
unicode = 1A2E;
},
{
glyphname = "thaLow-tham";
layers = (
{
layerId = "5a955c31-bd75-46b6-b903-8760881f133b";
paths = (
{
closed = 1;
nodes = (
"289 -11 OFFCURVE",
"324 18 OFFCURVE",
"343 67 CURVE",
"368 15 OFFCURVE",
"405 -11 OFFCURVE",
"453 -11 CURVE SMOOTH",
"553 -11 OFFCURVE",
"614 103 OFFCURVE",
"614 230 CURVE SMOOTH",
"614 407 OFFCURVE",
"500 544 OFFCURVE",
"347 544 CURVE SMOOTH",
"190 544 OFFCURVE",
"78 399 OFFCURVE",
"78 227 CURVE SMOOTH",
"78 110 OFFCURVE",
"131 -11 OFFCURVE",
"237 -11 CURVE SMOOTH"
);
},
{
closed = 1;
nodes = (
"186 61 OFFCURVE",
"156 162 OFFCURVE",
"156 238 CURVE SMOOTH",
"156 356 OFFCURVE",
"226 473 OFFCURVE",
"348 473 CURVE SMOOTH",
"470 473 OFFCURVE",
"537 360 OFFCURVE",
"537 238 CURVE SMOOTH",
"537 157 OFFCURVE",
"508 61 OFFCURVE",
"450 61 CURVE SMOOTH",
"408 61 OFFCURVE",
"385 113 OFFCURVE",
"382 177 CURVE",
"310 177 LINE",
"303 114 OFFCURVE",
"283 61 OFFCURVE",
"242 61 CURVE SMOOTH"
);
}
);
width = 693;
},
{
layerId = "B90EB90F-4FA1-4BBD-888F-E38A605CBEB2";
paths = (
{
closed = 1;
nodes = (
"305 -11 OFFCURVE",
"340 16 OFFCURVE",
"360 62 CURVE",
"386 13 OFFCURVE",
"424 -11 OFFCURVE",
"474 -11 CURVE SMOOTH",
"580 -11 OFFCURVE",
"658 98 OFFCURVE",
"658 241 CURVE SMOOTH",
"659 412 OFFCURVE",
"545 544 OFFCURVE",
"362 544 CURVE SMOOTH",
"178 544 OFFCURVE",
"69 405 OFFCURVE",
"68 241 CURVE SMOOTH",
"68 105 OFFCURVE",
"139 -11 OFFCURVE",
"251 -11 CURVE SMOOTH"
);
},
{
closed = 1;
nodes = (
"222 114 OFFCURVE",
"198 182 OFFCURVE",
"198 242 CURVE SMOOTH",
"198 333 OFFCURVE",
"251 419 OFFCURVE",
"367 419 CURVE SMOOTH",
"480 419 OFFCURVE",
"529 336 OFFCURVE",
"529 241 CURVE SMOOTH",
"529 177 OFFCURVE",
"507 114 OFFCURVE",
"471 114 CURVE SMOOTH",
"438 114 OFFCURVE",
"420 164 OFFCURVE",
"417 225 CURVE",
"308 225 LINE",
"303 165 OFFCURVE",
"289 114 OFFCURVE",
"258 114 CURVE SMOOTH"
);
}
);
width = 737;
}
);
unicode = 1A35;
},
{
glyphname = "thaHigh-tham";
layers = (
{
layerId = "5a955c31-bd75-46b6-b903-8760881f133b";
paths = (
{
closed = 1;
nodes = (
"277 -10 OFFCURVE",
"313 9 OFFCURVE",
"336 52 CURVE",
"359 9 OFFCURVE",
"394 -10 OFFCURVE",
"441 -10 CURVE SMOOTH",
"513 -10 OFFCURVE",
"557 35 OFFCURVE",
"572 123 CURVE",
"503 141 LINE",
"497 83 OFFCURVE",
"469 61 OFFCURVE",
"434 61 CURVE SMOOTH",
"396 61 OFFCURVE",
"375 87 OFFCURVE",
"365 157 CURVE",
"308 157 LINE",
"297 88 OFFCURVE",
"276 61 OFFCURVE",
"228 61 CURVE SMOOTH",
"179 61 OFFCURVE",
"151 90 OFFCURVE",
"151 144 CURVE SMOOTH",
"151 218 OFFCURVE",
"204 248 OFFCURVE",
"305 247 CURVE",
"305 306 LINE",
"211 306 OFFCURVE",
"151 338 OFFCURVE",
"151 391 CURVE SMOOTH",
"151 447 OFFCURVE",
"220 473 OFFCURVE",
"315 473 CURVE SMOOTH",
"515 473 OFFCURVE",
"623 354 OFFCURVE",
"623 106 CURVE SMOOTH",
"623 55 OFFCURVE",
"619 19 OFFCURVE",
"613 -10 CURVE",
"693 2 LINE",
"698 30 OFFCURVE",
"702 64 OFFCURVE",
"702 108 CURVE SMOOTH",
"702 189 OFFCURVE",
"688 271 OFFCURVE",
"662 335 CURVE SMOOTH",
"605 476 OFFCURVE",
"480 544 OFFCURVE",
"322 544 CURVE SMOOTH",
"193 544 OFFCURVE",
"73 499 OFFCURVE",
"73 393 CURVE SMOOTH",
"73 341 OFFCURVE",
"103 304 OFFCURVE",
"163 282 CURVE",
"105 253 OFFCURVE",
"73 207 OFFCURVE",
"73 147 CURVE SMOOTH",
"73 59 OFFCURVE",
"141 -10 OFFCURVE",
"230 -10 CURVE SMOOTH"
);
}
);
width = 782;
},
{
layerId = "B90EB90F-4FA1-4BBD-888F-E38A605CBEB2";
paths = (
{
closed = 1;
nodes = (
"280 -10 OFFCURVE",
"318 12 OFFCURVE",
"343 55 CURVE",
"364 12 OFFCURVE",
"395 -10 OFFCURVE",
"442 -10 CURVE SMOOTH",
"518 -10 OFFCURVE",
"566 48 OFFCURVE",
"585 162 CURVE",
"492 180 LINE",
"486 125 OFFCURVE",
"463 105 OFFCURVE",
"444 105 CURVE SMOOTH",
"404 105 OFFCURVE",
"393 129 OFFCURVE",
"386 196 CURVE",
"301 196 LINE",
"292 131 OFFCURVE",
"281 105 OFFCURVE",
"246 105 CURVE SMOOTH",
"215 105 OFFCURVE",
"195 125 OFFCURVE",
"195 160 CURVE SMOOTH",
"195 216 OFFCURVE",
"244 243 OFFCURVE",
"338 242 CURVE",
"338 320 LINE",
"250 320 OFFCURVE",
"195 340 OFFCURVE",
"195 373 CURVE SMOOTH",
"195 408 OFFCURVE",
"256 423 OFFCURVE",
"338 423 CURVE SMOOTH",
"546 423 OFFCURVE",
"625 328 OFFCURVE",
"625 111 CURVE SMOOTH",
"625 55 OFFCURVE",
"620 16 OFFCURVE",
"615 -10 CURVE",
"748 2 LINE",
"752 30 OFFCURVE",
"756 66 OFFCURVE",
"756 113 CURVE SMOOTH",
"756 189 OFFCURVE",
"745 271 OFFCURVE",
"713 341 CURVE SMOOTH",
"650 478 OFFCURVE",
"514 544 OFFCURVE",
"347 544 CURVE SMOOTH",
"200 544 OFFCURVE",
"66 493 OFFCURVE",
"66 383 CURVE SMOOTH",
"66 331 OFFCURVE",
"95 300 OFFCURVE",
"153 282 CURVE",
"97 254 OFFCURVE",
"66 209 OFFCURVE",
"66 152 CURVE SMOOTH",
"66 61 OFFCURVE",
"146 -10 OFFCURVE",
"232 -10 CURVE SMOOTH"
);
}
);
width = 829;
}
);
unicode = 1A33;
},
{
glyphname = "taLow-tham";
layers = (
{
layerId = "5a955c31-bd75-46b6-b903-8760881f133b";
paths = (
{
closed = 1;
nodes = (
"122 466 OFFCURVE",
"78 369 OFFCURVE",
"78 272 CURVE SMOOTH",
"78 221 OFFCURVE",
"90 172 OFFCURVE",
"113 129 CURVE SMOOTH",
"162 40 OFFCURVE",
"251 -12 OFFCURVE",
"387 -11 CURVE SMOOTH",
"536 -10 OFFCURVE",
"610 55 OFFCURVE",
"611 143 CURVE SMOOTH",
"611 207 OFFCURVE",
"571 259 OFFCURVE",
"503 284 CURVE",
"565 314 OFFCURVE",
"591 357 OFFCURVE",
"591 409 CURVE SMOOTH",
"591 495 OFFCURVE",
"519 544 OFFCURVE",
"445 544 CURVE SMOOTH",
"394 544 OFFCURVE",
"350 521 OFFCURVE",
"324 466 CURVE",
"381 424 LINE",
"397 461 OFFCURVE",
"421 473 OFFCURVE",
"446 473 CURVE SMOOTH",
"481 473 OFFCURVE",
"513 450 OFFCURVE",
"513 409 CURVE SMOOTH",
"513 358 OFFCURVE",
"465 317 OFFCURVE",
"382 312 CURVE",
"382 249 LINE",
"471 246 OFFCURVE",
"533 200 OFFCURVE",
"533 147 CURVE SMOOTH",
"533 106 OFFCURVE",
"497 61 OFFCURVE",
"387 60 CURVE SMOOTH",
"238 59 OFFCURVE",
"156 138 OFFCURVE",
"156 270 CURVE SMOOTH",
"156 368 OFFCURVE",
"201 451 OFFCURVE",
"248 508 CURVE",
"176 539 LINE"
);
}
);
width = 684;
},
{
layerId = "B90EB90F-4FA1-4BBD-888F-E38A605CBEB2";
paths = (
{
closed = 1;
nodes = (
"112 478 OFFCURVE",
"68 365 OFFCURVE",
"68 272 CURVE SMOOTH",
"68 217 OFFCURVE",
"83 170 OFFCURVE",
"107 129 CURVE SMOOTH",
"161 37 OFFCURVE",
"252 -11 OFFCURVE",
"395 -10 CURVE SMOOTH",
"567 -8 OFFCURVE",
"655 60 OFFCURVE",
"656 152 CURVE SMOOTH",
"656 213 OFFCURVE",
"618 260 OFFCURVE",
"554 284 CURVE",
"611 312 OFFCURVE",
"634 351 OFFCURVE",
"634 399 CURVE SMOOTH",
"634 491 OFFCURVE",
"549 544 OFFCURVE",
"461 544 CURVE SMOOTH",
"405 544 OFFCURVE",
"357 523 OFFCURVE",
"318 478 CURVE",
"393 380 LINE",
"416 407 OFFCURVE",
"439 419 OFFCURVE",
"463 419 CURVE SMOOTH",
"485 419 OFFCURVE",
"505 409 OFFCURVE",
"505 387 CURVE SMOOTH",
"505 355 OFFCURVE",
"464 325 OFFCURVE",
"394 322 CURVE",
"394 236 LINE",
"472 234 OFFCURVE",
"526 203 OFFCURVE",
"526 169 CURVE SMOOTH",
"526 142 OFFCURVE",
"490 116 OFFCURVE",
"400 115 CURVE SMOOTH",
"266 113 OFFCURVE",
"198 168 OFFCURVE",
"198 280 CURVE SMOOTH",
"198 370 OFFCURVE",
"240 445 OFFCURVE",
"288 507 CURVE",
"158 539 LINE"
);
}
);
width = 722;
}
);
unicode = 1A34;
},
{
glyphname = "paHigh-tham";
layers = (
{
layerId = "5a955c31-bd75-46b6-b903-8760881f133b";
paths = (
{
closed = 1;
nodes = (
"598 1000 OFFCURVE",
"527 905 OFFCURVE",
"527 758 CURVE SMOOTH",
"527 310 LINE SMOOTH",
"527 153 OFFCURVE",
"467 61 OFFCURVE",
"341 61 CURVE SMOOTH",
"224 61 OFFCURVE",
"156 147 OFFCURVE",
"156 261 CURVE SMOOTH",
"156 353 OFFCURVE",
"201 433 OFFCURVE",
"261 493 CURVE",
"210 541 LINE",
"142 478 OFFCURVE",
"78 364 OFFCURVE",
"78 252 CURVE SMOOTH",
"78 224 OFFCURVE",
"82 198 OFFCURVE",
"89 174 CURVE SMOOTH",
"118 68 OFFCURVE",
"212 -10 OFFCURVE",
"343 -10 CURVE SMOOTH",
"506 -10 OFFCURVE",
"603 109 OFFCURVE",
"603 315 CURVE SMOOTH",
"603 774 LINE SMOOTH",
"603 872 OFFCURVE",
"643 928 OFFCURVE",
"714 928 CURVE SMOOTH",
"723 928 OFFCURVE",
"733 927 OFFCURVE",
"744 925 CURVE",
"759 997 LINE",
"746 999 OFFCURVE",
"731 1000 OFFCURVE",
"719 1000 CURVE SMOOTH"
);
}
);
width = 691;
},
{
layerId = "B90EB90F-4FA1-4BBD-888F-E38A605CBEB2";
paths = (
{
closed = 1;
nodes = (
"607 1000 OFFCURVE",
"517 905 OFFCURVE",
"517 758 CURVE SMOOTH",
"517 291 LINE SMOOTH",
"517 173 OFFCURVE",
"444 115 OFFCURVE",
"355 115 CURVE SMOOTH",
"260 115 OFFCURVE",
"198 181 OFFCURVE",
"198 275 CURVE SMOOTH",
"198 353 OFFCURVE",
"239 423 OFFCURVE",
"299 489 CURVE",
"182 542 LINE",
"113 463 OFFCURVE",
"68 367 OFFCURVE",
"68 270 CURVE SMOOTH",
"68 238 OFFCURVE",
"73 207 OFFCURVE",
"85 175 CURVE SMOOTH",
"124 69 OFFCURVE",
"220 -10 OFFCURVE",
"361 -10 CURVE SMOOTH",
"530 -10 OFFCURVE",
"646 102 OFFCURVE",
"646 311 CURVE SMOOTH",
"646 774 LINE SMOOTH",
"646 839 OFFCURVE",
"697 876 OFFCURVE",
"753 876 CURVE SMOOTH",
"762 876 OFFCURVE",
"772 875 OFFCURVE",
"783 873 CURVE",
"798 997 LINE",
"785 999 OFFCURVE",
"770 1000 OFFCURVE",
"754 1000 CURVE SMOOTH"
);
}
);
width = 710;
}
);
unicode = 1A38;
},
{
glyphname = "phaHigh-tham";
layers = (
{
layerId = "5a955c31-bd75-46b6-b903-8760881f133b";
paths = (
{
closed = 1;
nodes = (
"284 -10 OFFCURVE",
"332 17 OFFCURVE",
"368 77 CURVE",
"404 3 OFFCURVE",
"458 -10 OFFCURVE",
"494 -10 CURVE SMOOTH",
"614 -9 OFFCURVE",
"681 154 OFFCURVE",
"681 293 CURVE SMOOTH",
"681 408 OFFCURVE",
"628 544 OFFCURVE",
"545 544 CURVE SMOOTH",
"523 544 OFFCURVE",
"506 535 OFFCURVE",
"489 516 CURVE SMOOTH",
"455 478 OFFCURVE",
"435 413 OFFCURVE",
"435 351 CURVE SMOOTH",
"435 250 OFFCURVE",
"491 158 OFFCURVE",
"583 90 CURVE",
"602 71 LINE",
"628 54 OFFCURVE",
"657 38 OFFCURVE",
"687 24 CURVE",
"718 91 LINE",
"686 104 OFFCURVE",
"657 119 OFFCURVE",
"631 137 CURVE",
"613 155 LINE",
"545 208 OFFCURVE",
"508 276 OFFCURVE",
"508 358 CURVE SMOOTH",
"508 405 OFFCURVE",
"518 448 OFFCURVE",
"536 477 CURVE",
"578 463 OFFCURVE",
"607 383 OFFCURVE",
"607 289 CURVE SMOOTH",
"607 189 OFFCURVE",
"575 61 OFFCURVE",
"498 61 CURVE SMOOTH",
"457 61 OFFCURVE",
"429 99 OFFCURVE",
"412 153 CURVE",
"341 180 LINE",
"317 102 OFFCURVE",
"281 61 OFFCURVE",
"228 61 CURVE SMOOTH",
"184 61 OFFCURVE",
"151 92 OFFCURVE",
"151 132 CURVE SMOOTH",
"151 185 OFFCURVE",
"205 237 OFFCURVE",
"302 249 CURVE",
"302 312 LINE",
"219 317 OFFCURVE",
"171 358 OFFCURVE",
"171 409 CURVE SMOOTH",
"171 451 OFFCURVE",
"203 473 OFFCURVE",
"238 473 CURVE SMOOTH",
"263 473 OFFCURVE",
"287 462 OFFCURVE",
"303 424 CURVE",
"360 466 LINE",
"334 522 OFFCURVE",
"291 544 OFFCURVE",
"239 544 CURVE SMOOTH",
"165 544 OFFCURVE",
"93 496 OFFCURVE",
"93 409 CURVE SMOOTH",
"93 356 OFFCURVE",
"119 311 OFFCURVE",
"181 281 CURVE",
"113 249 OFFCURVE",
"73 195 OFFCURVE",
"73 135 CURVE SMOOTH",
"73 52 OFFCURVE",
"138 -10 OFFCURVE",
"226 -10 CURVE SMOOTH"
);
}
);
width = 755;
},
{
layerId = "B90EB90F-4FA1-4BBD-888F-E38A605CBEB2";
paths = (
{
closed = 1;
nodes = (
"297 -9 OFFCURVE",
"347 19 OFFCURVE",
"390 76 CURVE",
"429 0 OFFCURVE",
"492 -10 OFFCURVE",
"526 -10 CURVE SMOOTH",
"661 -9 OFFCURVE",
"735 154 OFFCURVE",
"735 293 CURVE SMOOTH",
"735 408 OFFCURVE",
"674 544 OFFCURVE",
"578 544 CURVE SMOOTH",
"549 544 OFFCURVE",
"523 531 OFFCURVE",
"504 511 CURVE SMOOTH",
"466 471 OFFCURVE",
"447 396 OFFCURVE",
"447 344 CURVE SMOOTH",
"447 252 OFFCURVE",
"508 167 OFFCURVE",
"612 104 CURVE",
"630 84 LINE",
"666 62 OFFCURVE",
"706 43 OFFCURVE",
"750 28 CURVE",
"790 120 LINE",
"754 131 OFFCURVE",
"709 150 OFFCURVE",
"674 172 CURVE",
"659 190 LINE",
"593 234 OFFCURVE",
"549 293 OFFCURVE",
"548 357 CURVE SMOOTH",
"548 382 OFFCURVE",
"554 409 OFFCURVE",
"567 437 CURVE",
"602 422 OFFCURVE",
"626 364 OFFCURVE",
"626 292 CURVE SMOOTH",
"626 206 OFFCURVE",
"599 99 OFFCURVE",
"532 99 CURVE SMOOTH",
"500 99 OFFCURVE",
"463 126 OFFCURVE",
"448 183 CURVE",
"371 210 LINE",
"331 146 OFFCURVE",
"292 110 OFFCURVE",
"252 110 CURVE SMOOTH",
"218 110 OFFCURVE",
"198 138 OFFCURVE",
"198 162 CURVE SMOOTH",
"198 201 OFFCURVE",
"252 233 OFFCURVE",
"331 236 CURVE",
"331 322 LINE",
"260 325 OFFCURVE",
"219 355 OFFCURVE",
"219 387 CURVE SMOOTH",
"219 410 OFFCURVE",
"239 419 OFFCURVE",
"261 419 CURVE SMOOTH",
"285 419 OFFCURVE",
"309 408 OFFCURVE",
"331 380 CURVE",
"406 478 LINE",
"367 524 OFFCURVE",
"319 544 OFFCURVE",
"264 544 CURVE SMOOTH",
"175 544 OFFCURVE",
"90 492 OFFCURVE",
"90 399 CURVE SMOOTH",
"90 351 OFFCURVE",
"113 312 OFFCURVE",
"170 284 CURVE",
"111 266 OFFCURVE",
"68 218 OFFCURVE",
"68 151 CURVE SMOOTH",
"68 59 OFFCURVE",
"151 -9 OFFCURVE",
"239 -9 CURVE SMOOTH"
);
}
);
width = 809;
}
);
unicode = 1A39;
},
{
glyphname = "ma-tham";
layers = (
{
layerId = "5a955c31-bd75-46b6-b903-8760881f133b";
paths = (
{
closed = 1;
nodes = (
"539 109 OFFCURVE",
"455 184 OFFCURVE",
"342 240 CURVE",
"303 184 LINE",
"406 132 OFFCURVE",
"470 60 OFFCURVE",
"512 -32 CURVE",
"582 0 LINE"
);
},
{
closed = 1;
nodes = (
"147 476 OFFCURVE",
"78 399 OFFCURVE",
"78 268 CURVE SMOOTH",
"78 110 OFFCURVE",
"183 -10 OFFCURVE",
"331 -10 CURVE SMOOTH",
"477 -10 OFFCURVE",
"581 110 OFFCURVE",
"581 268 CURVE SMOOTH",
"581 399 OFFCURVE",
"511 476 OFFCURVE",
"431 539 CURVE",
"382 478 LINE",
"453 434 OFFCURVE",
"502 363 OFFCURVE",
"502 268 CURVE SMOOTH",
"502 154 OFFCURVE",
"438 61 OFFCURVE",
"331 61 CURVE SMOOTH",
"222 61 OFFCURVE",
"156 154 OFFCURVE",
"156 268 CURVE SMOOTH",
"156 363 OFFCURVE",
"206 434 OFFCURVE",
"277 478 CURVE",
"228 539 LINE"
);
}
);
width = 661;
},
{
layerId = "B90EB90F-4FA1-4BBD-888F-E38A605CBEB2";
paths = (
{
closed = 1;
nodes = (
"561 132 OFFCURVE",
"467 220 OFFCURVE",
"349 270 CURVE",
"302 194 LINE",
"409 138 OFFCURVE",
"466 76 OFFCURVE",
"523 -30 CURVE",
"613 13 LINE"
);
},
{
closed = 1;
nodes = (
"133 498 OFFCURVE",
"75 400 OFFCURVE",
"75 274 CURVE SMOOTH",
"75 109 OFFCURVE",
"174 -10 OFFCURVE",
"335 -10 CURVE SMOOTH",
"496 -10 OFFCURVE",
"594 109 OFFCURVE",
"594 271 CURVE SMOOTH",
"594 399 OFFCURVE",
"533 493 OFFCURVE",
"459 543 CURVE",
"371 453 LINE",
"427 413 OFFCURVE",
"465 357 OFFCURVE",
"465 273 CURVE SMOOTH",
"465 183 OFFCURVE",
"418 114 OFFCURVE",
"335 114 CURVE SMOOTH",
"252 114 OFFCURVE",
"205 183 OFFCURVE",
"205 273 CURVE SMOOTH",
"205 359 OFFCURVE",
"244 413 OFFCURVE",
"301 454 CURVE",
"218 544 LINE"
);
}
);
width = 674;
}
);
unicode = 1A3E;
},
{
glyphname = "paLow-tham";
layers = (
{
layerId = "5a955c31-bd75-46b6-b903-8760881f133b";
paths = (
{
closed = 1;
nodes = (
"572 75 OFFCURVE",
"624 179 OFFCURVE",
"624 298 CURVE SMOOTH",
"624 439 OFFCURVE",
"553 544 OFFCURVE",
"456 544 CURVE SMOOTH",
"407 544 OFFCURVE",
"372 518 OFFCURVE",
"351 467 CURVE",
"330 518 OFFCURVE",
"295 544 OFFCURVE",
"246 544 CURVE SMOOTH",
"149 544 OFFCURVE",
"78 439 OFFCURVE",
"78 298 CURVE SMOOTH",
"78 179 OFFCURVE",
"130 75 OFFCURVE",
"230 -6 CURVE",
"278 54 LINE",
"195 118 OFFCURVE",
"156 194 OFFCURVE",
"156 290 CURVE SMOOTH",
"156 391 OFFCURVE",
"197 473 OFFCURVE",
"248 473 CURVE SMOOTH",
"281 473 OFFCURVE",
"301 439 OFFCURVE",
"315 357 CURVE",
"387 357 LINE",
"401 439 OFFCURVE",
"421 473 OFFCURVE",
"454 473 CURVE SMOOTH",
"505 473 OFFCURVE",
"546 391 OFFCURVE",
"546 290 CURVE SMOOTH",
"546 194 OFFCURVE",
"507 118 OFFCURVE",
"424 54 CURVE",
"472 -6 LINE"
);
}
);
width = 703;
},
{
layerId = "B90EB90F-4FA1-4BBD-888F-E38A605CBEB2";
paths = (
{
closed = 1;
nodes = (
"600 61 OFFCURVE",
"664 179 OFFCURVE",
"664 302 CURVE SMOOTH",
"664 439 OFFCURVE",
"587 545 OFFCURVE",
"486 545 CURVE SMOOTH",
"434 545 OFFCURVE",
"390 516 OFFCURVE",
"368 467 CURVE",
"346 516 OFFCURVE",
"302 545 OFFCURVE",
"250 545 CURVE SMOOTH",
"149 545 OFFCURVE",
"72 439 OFFCURVE",
"72 302 CURVE SMOOTH",
"72 179 OFFCURVE",
"136 61 OFFCURVE",
"239 -5 CURVE",
"319 93 LINE",
"241 141 OFFCURVE",
"198 218 OFFCURVE",
"198 313 CURVE SMOOTH",
"198 380 OFFCURVE",
"219 420 OFFCURVE",
"254 420 CURVE SMOOTH",
"289 420 OFFCURVE",
"315 381 OFFCURVE",
"319 321 CURVE",
"417 321 LINE",
"421 381 OFFCURVE",
"447 420 OFFCURVE",
"482 420 CURVE SMOOTH",
"517 420 OFFCURVE",
"538 380 OFFCURVE",
"538 313 CURVE SMOOTH",
"538 218 OFFCURVE",
"495 141 OFFCURVE",
"417 93 CURVE",
"497 -5 LINE"
);
}
);
width = 732;
}
);
unicode = 1A3B;
},
{
glyphname = "faLow-tham";
layers = (
{
layerId = "5a955c31-bd75-46b6-b903-8760881f133b";
paths = (
{
closed = 1;
nodes = (
"88 164 OFFCURVE",
"150 56 OFFCURVE",
"249 -6 CURVE",
"295 48 LINE",
"213 98 OFFCURVE",
"166 190 OFFCURVE",
"166 285 CURVE SMOOTH",
"166 375 OFFCURVE",
"211 473 OFFCURVE",
"266 473 CURVE SMOOTH",
"307 473 OFFCURVE",
"323 420 OFFCURVE",
"329 357 CURVE",
"402 357 LINE",
"405 421 OFFCURVE",
"427 473 OFFCURVE",
"469 473 CURVE SMOOTH",
"524 473 OFFCURVE",
"566 380 OFFCURVE",
"566 287 CURVE SMOOTH",
"566 183 OFFCURVE",
"517 93 OFFCURVE",
"426 44 CURVE",
"471 -10 LINE",
"577 48 OFFCURVE",
"645 154 OFFCURVE",
"644 288 CURVE SMOOTH",
"644 435 OFFCURVE",
"566 544 OFFCURVE",
"469 544 CURVE SMOOTH",
"423 544 OFFCURVE",
"387 520 OFFCURVE",
"363 467 CURVE",
"345 516 OFFCURVE",
"313 544 OFFCURVE",
"263 544 CURVE SMOOTH",
"227 544 OFFCURVE",
"183 526 OFFCURVE",
"143 444 CURVE",
"164 417 LINE",
"164 664 LINE SMOOTH",
"164 838 OFFCURVE",
"246 932 OFFCURVE",
"396 930 CURVE SMOOTH",
"458 929 OFFCURVE",
"514 913 OFFCURVE",
"562 881 CURVE",
"607 950 LINE",
"543 985 OFFCURVE",
"479 1001 OFFCURVE",
"408 1001 CURVE SMOOTH",
"208 1001 OFFCURVE",
"89 866 OFFCURVE",
"88 636 CURVE SMOOTH",
"88 291 LINE SMOOTH"
);
}
);
width = 727;
},
{
layerId = "B90EB90F-4FA1-4BBD-888F-E38A605CBEB2";
paths = (
{
closed = 1;
nodes = (
"78 157 OFFCURVE",
"136 63 OFFCURVE",
"240 -5 CURVE",
"321 93 LINE",
"254 135 OFFCURVE",
"208 204 OFFCURVE",
"208 301 CURVE SMOOTH",
"208 390 OFFCURVE",
"247 420 OFFCURVE",
"281 420 CURVE SMOOTH",
"319 420 OFFCURVE",
"345 383 OFFCURVE",
"344 321 CURVE",
"445 321 LINE",
"449 380 OFFCURVE",
"476 420 OFFCURVE",
"518 420 CURVE SMOOTH",
"552 420 OFFCURVE",
"578 393 OFFCURVE",
"578 316 CURVE SMOOTH",
"578 207 OFFCURVE",
"519 135 OFFCURVE",
"457 93 CURVE",
"536 -5 LINE",
"617 45 OFFCURVE",
"706 166 OFFCURVE",
"705 307 CURVE SMOOTH",
"705 441 OFFCURVE",
"632 545 OFFCURVE",
"526 545 CURVE SMOOTH",
"472 545 OFFCURVE",
"427 518 OFFCURVE",
"406 467 CURVE",
"382 516 OFFCURVE",
"338 545 OFFCURVE",
"288 545 CURVE SMOOTH",
"250 545 OFFCURVE",
"209 527 OFFCURVE",
"177 474 CURVE",
"205 454 LINE",
"205 671 LINE SMOOTH",
"205 797 OFFCURVE",
"299 903 OFFCURVE",
"470 901 CURVE SMOOTH",
"537 900 OFFCURVE",
"593 881 OFFCURVE",
"626 862 CURVE",
"670 978 LINE",
"613 1010 OFFCURVE",
"548 1025 OFFCURVE",
"473 1025 CURVE SMOOTH",
"267 1025 OFFCURVE",
"78 910 OFFCURVE",
"78 634 CURVE SMOOTH",
"78 308 LINE SMOOTH"
);
}
);
width = 778;
}
);
unicode = 1A3C;
},
{
glyphname = "yaHigh-tham";
layers = (
{
layerId = "5a955c31-bd75-46b6-b903-8760881f133b";
paths = (
{
closed = 1;
nodes = (
"561 1000 OFFCURVE",
"492 905 OFFCURVE",
"492 758 CURVE SMOOTH",
"492 350 LINE SMOOTH",
"492 152 OFFCURVE",
"419 62 OFFCURVE",
"283 61 CURVE SMOOTH",
"173 60 OFFCURVE",
"151 110 OFFCURVE",
"151 146 CURVE SMOOTH",
"151 200 OFFCURVE",
"208 246 OFFCURVE",
"297 249 CURVE",
"297 312 LINE",
"214 317 OFFCURVE",
"166 358 OFFCURVE",
"166 409 CURVE SMOOTH",
"166 451 OFFCURVE",
"198 473 OFFCURVE",
"233 473 CURVE SMOOTH",
"258 473 OFFCURVE",
"282 462 OFFCURVE",
"298 424 CURVE",
"355 466 LINE",
"329 522 OFFCURVE",
"286 544 OFFCURVE",
"235 544 CURVE SMOOTH",
"160 544 OFFCURVE",
"88 496 OFFCURVE",
"88 409 CURVE SMOOTH",
"88 357 OFFCURVE",
"114 314 OFFCURVE",
"176 284 CURVE",
"108 261 OFFCURVE",
"73 211 OFFCURVE",
"73 148 CURVE SMOOTH",
"73 74 OFFCURVE",
"119 -10 OFFCURVE",
"276 -10 CURVE SMOOTH",
"451 -10 OFFCURVE",
"567 98 OFFCURVE",
"567 372 CURVE SMOOTH",
"567 774 LINE SMOOTH",
"567 875 OFFCURVE",
"605 932 OFFCURVE",
"671 932 CURVE SMOOTH",
"683 932 OFFCURVE",
"693 931 OFFCURVE",
"704 929 CURVE",
"719 997 LINE",
"706 999 OFFCURVE",
"691 1000 OFFCURVE",
"675 1000 CURVE SMOOTH"
);
}
);
width = 651;
},
{
layerId = "B90EB90F-4FA1-4BBD-888F-E38A605CBEB2";
paths = (
{
closed = 1;
nodes = (
"602 1000 OFFCURVE",
"505 896 OFFCURVE",
"505 758 CURVE SMOOTH",
"505 338 LINE SMOOTH",
"505 209 OFFCURVE",
"442 115 OFFCURVE",
"302 115 CURVE SMOOTH",
"227 115 OFFCURVE",
"198 141 OFFCURVE",
"198 168 CURVE SMOOTH",
"198 195 OFFCURVE",
"228 231 OFFCURVE",
"311 236 CURVE",
"311 327 LINE",
"245 330 OFFCURVE",
"207 356 OFFCURVE",
"207 384 CURVE SMOOTH",
"207 407 OFFCURVE",
"233 419 OFFCURVE",
"263 419 CURVE SMOOTH",
"297 419 OFFCURVE",
"324 404 OFFCURVE",
"343 384 CURVE",
"410 483 LINE",
"374 522 OFFCURVE",
"312 544 OFFCURVE",
"252 544 CURVE SMOOTH",
"158 544 OFFCURVE",
"77 489 OFFCURVE",
"77 399 CURVE SMOOTH",
"77 346 OFFCURVE",
"105 310 OFFCURVE",
"166 284 CURVE",
"104 261 OFFCURVE",
"68 214 OFFCURVE",
"68 153 CURVE SMOOTH",
"68 76 OFFCURVE",
"126 -10 OFFCURVE",
"298 -10 CURVE SMOOTH",
"525 -10 OFFCURVE",
"632 145 OFFCURVE",
"632 332 CURVE SMOOTH",
"632 764 LINE SMOOTH",
"632 839 OFFCURVE",
"670 876 OFFCURVE",
"737 876 CURVE SMOOTH",
"748 876 OFFCURVE",
"758 875 OFFCURVE",
"769 873 CURVE",
"784 997 LINE",
"771 999 OFFCURVE",
"756 1000 OFFCURVE",
"742 1000 CURVE SMOOTH"
);
}
);
width = 711;
}
);
unicode = 1A40;
},
{
glyphname = "faHigh-tham";
layers = (
{
layerId = "5a955c31-bd75-46b6-b903-8760881f133b";
paths = (
{
closed = 1;
nodes = (
"254 581 OFFCURVE",
"193 569 OFFCURVE",
"158 553 CURVE",
"179 533 LINE",
"180 652 LINE SMOOTH",
"181 835 OFFCURVE",
"271 934 OFFCURVE",
"457 931 CURVE SMOOTH",
"525 930 OFFCURVE",
"576 903 OFFCURVE",
"609 880 CURVE",
"654 950 LINE",
"589 987 OFFCURVE",
"530 1001 OFFCURVE",
"471 1001 CURVE SMOOTH",
"286 1001 OFFCURVE",
"105 912 OFFCURVE",
"104 636 CURVE SMOOTH",
"104 513 LINE",
"164 484 LINE",
"217 504 OFFCURVE",
"255 510 OFFCURVE",
"295 510 CURVE SMOOTH",
"458 510 OFFCURVE",
"613 409 OFFCURVE",
"613 223 CURVE SMOOTH",
"613 124 OFFCURVE",
"571 62 OFFCURVE",
"514 61 CURVE SMOOTH",
"468 61 OFFCURVE",
"440 99 OFFCURVE",
"429 153 CURVE",
"362 180 LINE",
"331 109 OFFCURVE",
"275 62 OFFCURVE",
"224 62 CURVE SMOOTH",
"190 62 OFFCURVE",
"162 84 OFFCURVE",
"162 114 CURVE SMOOTH",
"162 155 OFFCURVE",
"210 185 OFFCURVE",
"306 191 CURVE",
"306 255 LINE",
"229 258 OFFCURVE",
"185 288 OFFCURVE",
"185 327 CURVE SMOOTH",
"185 359 OFFCURVE",
"216 388 OFFCURVE",
"252 388 CURVE SMOOTH",
"276 388 OFFCURVE",
"301 375 OFFCURVE",
"316 337 CURVE",
"374 379 LINE",
"348 435 OFFCURVE",
"304 459 OFFCURVE",
"255 459 CURVE SMOOTH",
"179 459 OFFCURVE",
"107 404 OFFCURVE",
"107 328 CURVE SMOOTH",
"107 283 OFFCURVE",
"132 247 OFFCURVE",
"190 225 CURVE",
"117 203 OFFCURVE",
"85 154 OFFCURVE",
"85 104 CURVE SMOOTH",
"85 34 OFFCURVE",
"148 -9 OFFCURVE",
"221 -9 CURVE SMOOTH",
"282 -9 OFFCURVE",
"341 21 OFFCURVE",
"382 87 CURVE",
"408 11 OFFCURVE",
"470 -10 OFFCURVE",
"518 -9 CURVE SMOOTH",
"618 -8 OFFCURVE",
"691 89 OFFCURVE",
"691 227 CURVE SMOOTH",
"691 287 OFFCURVE",
"677 336 OFFCURVE",
"657 378 CURVE SMOOTH",
"599 503 OFFCURVE",
"472 581 OFFCURVE",
"314 581 CURVE SMOOTH"
);
}
);
width = 774;
},
{
layerId = "B90EB90F-4FA1-4BBD-888F-E38A605CBEB2";
paths = (
{
closed = 1;
nodes = (
"262 585 OFFCURVE",
"204 578 OFFCURVE",
"170 569 CURVE",
"208 523 LINE",
"208 669 LINE SMOOTH",
"208 822 OFFCURVE",
"297 905 OFFCURVE",
"487 903 CURVE SMOOTH",
"560 902 OFFCURVE",
"636 878 OFFCURVE",
"677 856 CURVE",
"726 978 LINE",
"646 1013 OFFCURVE",
"560 1026 OFFCURVE",
"493 1026 CURVE SMOOTH",
"295 1026 OFFCURVE",
"81 936 OFFCURVE",
"81 639 CURVE SMOOTH",
"81 498 LINE",
"146 465 LINE",
"206 481 OFFCURVE",
"250 484 OFFCURVE",
"293 484 CURVE SMOOTH",
"499 484 OFFCURVE",
"632 375 OFFCURVE",
"632 229 CURVE SMOOTH",
"632 163 OFFCURVE",
"604 116 OFFCURVE",
"552 116 CURVE SMOOTH",
"516 116 OFFCURVE",
"495 139 OFFCURVE",
"488 182 CURVE",
"400 214 LINE",
"369 143 OFFCURVE",
"308 96 OFFCURVE",
"247 96 CURVE SMOOTH",
"215 96 OFFCURVE",
"196 107 OFFCURVE",
"196 124 CURVE SMOOTH",
"196 153 OFFCURVE",
"249 178 OFFCURVE",
"324 181 CURVE",
"324 252 LINE",
"257 253 OFFCURVE",
"217 277 OFFCURVE",
"217 305 CURVE SMOOTH",
"217 323 OFFCURVE",
"235 336 OFFCURVE",
"260 336 CURVE SMOOTH",
"283 336 OFFCURVE",
"310 325 OFFCURVE",
"327 293 CURVE",
"402 361 LINE",
"372 417 OFFCURVE",
"319 441 OFFCURVE",
"263 441 CURVE SMOOTH",
"177 441 OFFCURVE",
"99 386 OFFCURVE",
"99 308 CURVE SMOOTH",
"99 265 OFFCURVE",
"122 235 OFFCURVE",
"180 217 CURVE",
"114 199 OFFCURVE",
"78 156 OFFCURVE",
"78 106 CURVE SMOOTH",
"78 36 OFFCURVE",
"151 -9 OFFCURVE",
"236 -9 CURVE SMOOTH",
"297 -9 OFFCURVE",
"360 11 OFFCURVE",
"415 79 CURVE",
"438 16 OFFCURVE",
"497 -10 OFFCURVE",
"560 -9 CURVE SMOOTH",
"677 -8 OFFCURVE",
"761 94 OFFCURVE",
"761 234 CURVE SMOOTH",
"761 308 OFFCURVE",
"739 364 OFFCURVE",
"714 405 CURVE SMOOTH",
"645 523 OFFCURVE",
"495 585 OFFCURVE",
"328 585 CURVE SMOOTH"
);
}
);
width = 834;
}
);
unicode = 1A3A;
},
{
glyphname = "ra-tham";
layers = (
{
layerId = "5a955c31-bd75-46b6-b903-8760881f133b";
paths = (
{
closed = 1;
nodes = (
"386 -10 OFFCURVE",
"470 74 OFFCURVE",
"470 180 CURVE SMOOTH",
"470 258 OFFCURVE",
"427 311 OFFCURVE",
"279 363 CURVE SMOOTH",
"242 376 OFFCURVE",
"218 387 OFFCURVE",
"205 395 CURVE SMOOTH",
"192 403 OFFCURVE",
"186 412 OFFCURVE",
"186 421 CURVE SMOOTH",
"186 454 OFFCURVE",
"236 473 OFFCURVE",
"317 473 CURVE SMOOTH",
"487 473 OFFCURVE",
"603 392 OFFCURVE",
"603 208 CURVE SMOOTH",
"603 161 OFFCURVE",
"595 107 OFFCURVE",
"567 21 CURVE",
"634 -10 LINE",
"663 61 OFFCURVE",
"680 147 OFFCURVE",
"680 222 CURVE SMOOTH",
"680 429 OFFCURVE",
"524 544 OFFCURVE",
"323 544 CURVE SMOOTH",
"278 544 OFFCURVE",
"240 539 OFFCURVE",
"205 527 CURVE SMOOTH",
"139 504 OFFCURVE",
"99 463 OFFCURVE",
"99 419 CURVE SMOOTH",
"99 388 OFFCURVE",
"118 365 OFFCURVE",
"144 349 CURVE SMOOTH",
"163 337 OFFCURVE",
"195 323 OFFCURVE",
"244 305 CURVE SMOOTH",
"330 273 OFFCURVE",
"392 242 OFFCURVE",
"392 169 CURVE SMOOTH",
"392 104 OFFCURVE",
"341 58 OFFCURVE",
"271 58 CURVE SMOOTH",
"202 58 OFFCURVE",
"155 102 OFFCURVE",
"155 170 CURVE SMOOTH",
"155 190 OFFCURVE",
"159 206 OFFCURVE",
"167 220 CURVE",
"100 261 LINE",
"82 236 OFFCURVE",
"73 208 OFFCURVE",
"73 173 CURVE SMOOTH",
"73 65 OFFCURVE",
"159 -10 OFFCURVE",
"269 -10 CURVE SMOOTH"
);
}
);
width = 760;
},
{
layerId = "B90EB90F-4FA1-4BBD-888F-E38A605CBEB2";
paths = (
{
closed = 1;
nodes = (
"421 -10 OFFCURVE",
"537 66 OFFCURVE",
"537 184 CURVE SMOOTH",
"537 246 OFFCURVE",
"505 294 OFFCURVE",
"386 332 CURVE SMOOTH",
"330 350 OFFCURVE",
"268 363 OFFCURVE",
"240 377 CURVE SMOOTH",
"230 382 OFFCURVE",
"224 387 OFFCURVE",
"224 392 CURVE SMOOTH",
"224 412 OFFCURVE",
"273 424 OFFCURVE",
"345 424 CURVE SMOOTH",
"523 424 OFFCURVE",
"621 354 OFFCURVE",
"621 208 CURVE SMOOTH",
"621 168 OFFCURVE",
"613 122 OFFCURVE",
"588 55 CURVE",
"698 -6 LINE",
"729 60 OFFCURVE",
"750 151 OFFCURVE",
"750 222 CURVE SMOOTH",
"750 417 OFFCURVE",
"597 544 OFFCURVE",
"362 544 CURVE SMOOTH",
"308 544 OFFCURVE",
"254 537 OFFCURVE",
"208 519 CURVE SMOOTH",
"144 494 OFFCURVE",
"95 451 OFFCURVE",
"95 394 CURVE SMOOTH",
"95 361 OFFCURVE",
"112 338 OFFCURVE",
"140 318 CURVE SMOOTH",
"166 299 OFFCURVE",
"206 284 OFFCURVE",
"247 270 CURVE SMOOTH",
"342 238 OFFCURVE",
"407 227 OFFCURVE",
"407 179 CURVE SMOOTH",
"407 139 OFFCURVE",
"363 112 OFFCURVE",
"297 112 CURVE SMOOTH",
"236 112 OFFCURVE",
"195 136 OFFCURVE",
"195 175 CURVE SMOOTH",
"195 187 OFFCURVE",
"199 199 OFFCURVE",
"206 210 CURVE",
"102 273 LINE",
"78 245 OFFCURVE",
"66 213 OFFCURVE",
"66 175 CURVE SMOOTH",
"66 65 OFFCURVE",
"164 -10 OFFCURVE",
"292 -10 CURVE SMOOTH"
);
}
);
width = 823;
}
);
unicode = 1A41;
},
{
glyphname = "phaLow-tham";
layers = (
{
layerId = "B90EB90F-4FA1-4BBD-888F-E38A605CBEB2";
paths = (
{
closed = 1;
nodes = (
"446 -10 OFFCURVE",
"542 108 OFFCURVE",
"542 267 CURVE SMOOTH",
"542 425 OFFCURVE",
"446 544 OFFCURVE",
"290 544 CURVE SMOOTH",
"180 544 OFFCURVE",
"108 486 OFFCURVE",
"62 396 CURVE",
"172 336 LINE",
"196 384 OFFCURVE",
"233 420 OFFCURVE",
"290 420 CURVE SMOOTH",
"370 420 OFFCURVE",
"417 351 OFFCURVE",
"417 267 CURVE SMOOTH",
"417 182 OFFCURVE",
"370 115 OFFCURVE",
"286 115 CURVE SMOOTH",
"222 115 OFFCURVE",
"190 157 OFFCURVE",
"170 210 CURVE",
"54 159 LINE",
"88 58 OFFCURVE",
"171 -10 OFFCURVE",
"290 -10 CURVE SMOOTH"
);
},
{
closed = 1;
nodes = (
"542 267 LINE",
"550 371 OFFCURVE",
"606 419 OFFCURVE",
"677 419 CURVE SMOOTH",
"760 419 OFFCURVE",
"803 352 OFFCURVE",
"803 268 CURVE SMOOTH",
"803 183 OFFCURVE",
"757 114 OFFCURVE",
"672 114 CURVE SMOOTH",
"648 114 OFFCURVE",
"628 119 OFFCURVE",
"599 133 CURVE",
"564 14 LINE",
"596 -1 OFFCURVE",
"638 -10 OFFCURVE",
"681 -10 CURVE SMOOTH",
"834 -10 OFFCURVE",
"930 109 OFFCURVE",
"930 267 CURVE SMOOTH",
"930 426 OFFCURVE",
"834 544 OFFCURVE",
"677 544 CURVE SMOOTH",
"557 544 OFFCURVE",
"477 473 OFFCURVE",
"461 354 CURVE"
);
}
);
width = 995;
},
{
layerId = "5a955c31-bd75-46b6-b903-8760881f133b";
paths = (
{
closed = 1;
nodes = (
"397 -10 OFFCURVE",
"489 108 OFFCURVE",
"489 267 CURVE SMOOTH",
"489 425 OFFCURVE",
"397 544 OFFCURVE",
"254 544 CURVE SMOOTH",
"169 544 OFFCURVE",
"103 502 OFFCURVE",
"64 434 CURVE",
"131 395 LINE",
"156 442 OFFCURVE",
"198 473 OFFCURVE",
"254 473 CURVE SMOOTH",
"350 473 OFFCURVE",
"411 380 OFFCURVE",
"411 267 CURVE SMOOTH",
"411 152 OFFCURVE",
"350 61 OFFCURVE",
"254 61 CURVE SMOOTH",
"192 61 OFFCURVE",
"147 98 OFFCURVE",
"123 155 CURVE",
"52 128 LINE",
"86 44 OFFCURVE",
"157 -10 OFFCURVE",
"254 -10 CURVE SMOOTH"
);
},
{
closed = 1;
nodes = (
"489 266 LINE",
"482 402 OFFCURVE",
"554 473 OFFCURVE",
"645 473 CURVE SMOOTH",
"750 473 OFFCURVE",
"810 380 OFFCURVE",
"810 266 CURVE SMOOTH",
"810 152 OFFCURVE",
"750 61 OFFCURVE",
"645 61 CURVE SMOOTH",
"614 61 OFFCURVE",
"587 69 OFFCURVE",
"563 82 CURVE",
"523 24 LINE",
"560 2 OFFCURVE",
"600 -10 OFFCURVE",
"647 -10 CURVE SMOOTH",
"794 -10 OFFCURVE",
"888 111 OFFCURVE",
"888 269 CURVE SMOOTH",
"888 425 OFFCURVE",
"796 544 OFFCURVE",
"646 544 CURVE SMOOTH",
"541 544 OFFCURVE",
"476 486 OFFCURVE",
"442 421 CURVE"
);
}
);
width = 966;
}
);
unicode = 1A3D;
},
{
glyphname = "rue-tham";
layers = (
{
layerId = "B90EB90F-4FA1-4BBD-888F-E38A605CBEB2";
paths = (
{
closed = 1;
nodes = (
"559 -452 OFFCURVE",
"667 -369 OFFCURVE",
"667 -235 CURVE SMOOTH",
"667 309 LINE SMOOTH",
"667 441 OFFCURVE",
"604 544 OFFCURVE",
"498 544 CURVE SMOOTH",
"445 544 OFFCURVE",
"402 519 OFFCURVE",
"375 467 CURVE",
"352 514 OFFCURVE",
"308 544 OFFCURVE",
"253 544 CURVE SMOOTH",
"144 544 OFFCURVE",
"68 431 OFFCURVE",
"68 302 CURVE SMOOTH",
"68 276 OFFCURVE",
"71 252 OFFCURVE",
"75 229 CURVE",
"209 209 LINE",
"203 237 OFFCURVE",
"198 272 OFFCURVE",
"198 309 CURVE SMOOTH",
"198 392 OFFCURVE",
"230 419 OFFCURVE",
"257 419 CURVE SMOOTH",
"289 419 OFFCURVE",
"315 383 OFFCURVE",
"316 321 CURVE",
"410 321 LINE",
"418 380 OFFCURVE",
"441 419 OFFCURVE",
"482 419 CURVE SMOOTH",
"516 419 OFFCURVE",
"541 393 OFFCURVE",
"541 315 CURVE SMOOTH",
"541 -245 LINE SMOOTH",
"541 -298 OFFCURVE",
"523 -327 OFFCURVE",
"390 -327 CURVE SMOOTH",
"262 -327 OFFCURVE",
"209 -299 OFFCURVE",
"209 -264 CURVE SMOOTH",
"209 -227 OFFCURVE",
"269 -201 OFFCURVE",
"333 -201 CURVE SMOOTH",
"360 -201 OFFCURVE",
"384 -206 OFFCURVE",
"405 -211 CURVE",
"434 -91 LINE",
"400 -84 OFFCURVE",
"371 -79 OFFCURVE",
"335 -79 CURVE SMOOTH",
"201 -79 OFFCURVE",
"82 -148 OFFCURVE",
"82 -268 CURVE SMOOTH",
"82 -381 OFFCURVE",
"188 -452 OFFCURVE",
"367 -452 CURVE SMOOTH"
);
},
{
closed = 1;
nodes = (
"648 -305 OFFCURVE",
"543 -240 OFFCURVE",
"461 -206 CURVE",
"407 -285 LINE",
"473 -311 OFFCURVE",
"566 -376 OFFCURVE",
"625 -456 CURVE",
"715 -381 LINE"
);
}
);
width = 750;
},
{
layerId = "5a955c31-bd75-46b6-b903-8760881f133b";
paths = (
{
closed = 1;
nodes = (
"526 -453 OFFCURVE",
"623 -390 OFFCURVE",
"623 -240 CURVE SMOOTH",
"623 299 LINE SMOOTH",
"623 430 OFFCURVE",
"570 544 OFFCURVE",
"459 544 CURVE SMOOTH",
"408 544 OFFCURVE",
"367 520 OFFCURVE",
"345 470 CURVE",
"322 521 OFFCURVE",
"281 544 OFFCURVE",
"230 544 CURVE SMOOTH",
"121 544 OFFCURVE",
"73 442 OFFCURVE",
"73 325 CURVE SMOOTH",
"73 295 OFFCURVE",
"76 264 OFFCURVE",
"82 233 CURVE",
"163 221 LINE",
"156 258 OFFCURVE",
"151 298 OFFCURVE",
"151 338 CURVE SMOOTH",
"151 412 OFFCURVE",
"168 475 OFFCURVE",
"222 475 CURVE SMOOTH",
"267 475 OFFCURVE",
"295 431 OFFCURVE",
"303 347 CURVE",
"368 345 LINE",
"381 430 OFFCURVE",
"416 473 OFFCURVE",
"461 473 CURVE SMOOTH",
"525 473 OFFCURVE",
"548 387 OFFCURVE",
"548 288 CURVE SMOOTH",
"548 -250 LINE SMOOTH",
"548 -341 OFFCURVE",
"484 -382 OFFCURVE",
"366 -382 CURVE SMOOTH",
"239 -382 OFFCURVE",
"175 -333 OFFCURVE",
"175 -264 CURVE SMOOTH",
"175 -191 OFFCURVE",
"248 -156 OFFCURVE",
"316 -156 CURVE SMOOTH",
"358 -156 OFFCURVE",
"407 -169 OFFCURVE",
"441 -187 CURVE",
"470 -120 LINE",
"421 -98 OFFCURVE",
"374 -85 OFFCURVE",
"317 -85 CURVE SMOOTH",
"198 -85 OFFCURVE",
"97 -147 OFFCURVE",
"97 -265 CURVE SMOOTH",
"97 -380 OFFCURVE",
"192 -453 OFFCURVE",
"357 -453 CURVE SMOOTH"
);
},
{
closed = 1;
nodes = (
"617 -333 OFFCURVE",
"529 -278 OFFCURVE",
"456 -244 CURVE",
"425 -304 LINE",
"485 -329 OFFCURVE",
"567 -381 OFFCURVE",
"621 -456 CURVE",
"676 -409 LINE"
);
}
);
width = 718;
}
);
unicode = 1A42;
},
{
glyphname = "yaLow-tham";
layers = (
{
layerId = "5a955c31-bd75-46b6-b903-8760881f133b";
paths = (
{
closed = 1;
nodes = (
"147 476 OFFCURVE",
"78 399 OFFCURVE",
"78 268 CURVE SMOOTH",
"78 110 OFFCURVE",
"183 -10 OFFCURVE",
"331 -10 CURVE SMOOTH",
"477 -10 OFFCURVE",
"581 110 OFFCURVE",
"581 268 CURVE SMOOTH",
"581 399 OFFCURVE",
"511 476 OFFCURVE",
"431 539 CURVE",
"382 478 LINE",
"453 434 OFFCURVE",
"502 363 OFFCURVE",
"502 268 CURVE SMOOTH",
"502 154 OFFCURVE",
"438 61 OFFCURVE",
"331 61 CURVE SMOOTH",
"222 61 OFFCURVE",
"156 154 OFFCURVE",
"156 268 CURVE SMOOTH",
"156 363 OFFCURVE",
"206 434 OFFCURVE",
"277 478 CURVE",
"228 539 LINE"
);
},
{
closed = 1;
nodes = (
"568 48 OFFCURVE",
"633 -10 OFFCURVE",
"738 -10 CURVE SMOOTH",
"888 -10 OFFCURVE",
"980 109 OFFCURVE",
"980 265 CURVE SMOOTH",
"980 423 OFFCURVE",
"886 544 OFFCURVE",
"739 544 CURVE SMOOTH",
"692 544 OFFCURVE",
"652 532 OFFCURVE",
"615 510 CURVE",
"655 452 LINE",
"679 465 OFFCURVE",
"706 473 OFFCURVE",
"737 473 CURVE SMOOTH",
"842 473 OFFCURVE",
"902 382 OFFCURVE",
"902 268 CURVE SMOOTH",
"902 154 OFFCURVE",
"842 61 OFFCURVE",
"737 61 CURVE SMOOTH",
"646 61 OFFCURVE",
"574 132 OFFCURVE",
"581 268 CURVE",
"534 113 LINE"
);
}
);
width = 1058;
},
{
layerId = "B90EB90F-4FA1-4BBD-888F-E38A605CBEB2";
paths = (
{
closed = 1;
nodes = (
"126 498 OFFCURVE",
"68 400 OFFCURVE",
"68 274 CURVE SMOOTH",
"68 109 OFFCURVE",
"167 -10 OFFCURVE",
"328 -10 CURVE SMOOTH",
"489 -10 OFFCURVE",
"587 109 OFFCURVE",
"587 271 CURVE SMOOTH",
"587 399 OFFCURVE",
"526 493 OFFCURVE",
"452 543 CURVE",
"364 453 LINE",
"420 413 OFFCURVE",
"458 357 OFFCURVE",
"458 273 CURVE SMOOTH",
"458 183 OFFCURVE",
"411 114 OFFCURVE",
"328 114 CURVE SMOOTH",
"245 114 OFFCURVE",
"198 183 OFFCURVE",
"198 273 CURVE SMOOTH",
"198 359 OFFCURVE",
"237 413 OFFCURVE",
"294 454 CURVE",
"211 544 LINE"
);
},
{
closed = 1;
nodes = (
"522 61 OFFCURVE",
"602 -10 OFFCURVE",
"722 -10 CURVE SMOOTH",
"879 -10 OFFCURVE",
"975 108 OFFCURVE",
"975 267 CURVE SMOOTH",
"975 425 OFFCURVE",
"879 544 OFFCURVE",
"726 544 CURVE SMOOTH",
"683 544 OFFCURVE",
"641 535 OFFCURVE",
"609 520 CURVE",
"644 401 LINE",
"673 415 OFFCURVE",
"693 420 OFFCURVE",
"717 420 CURVE SMOOTH",
"802 420 OFFCURVE",
"848 351 OFFCURVE",
"848 266 CURVE SMOOTH",
"848 182 OFFCURVE",
"805 115 OFFCURVE",
"722 115 CURVE SMOOTH",
"651 115 OFFCURVE",
"595 163 OFFCURVE",
"587 267 CURVE",
"506 180 LINE"
);
}
);
width = 1041;
}
);
unicode = 1A3F;
},
{
glyphname = "wa-tham";
layers = (
{
layerId = "5a955c31-bd75-46b6-b903-8760881f133b";
paths = (
{
closed = 1;
nodes = (
"451 -10 OFFCURVE",
"539 108 OFFCURVE",
"539 267 CURVE SMOOTH",
"539 425 OFFCURVE",
"451 544 OFFCURVE",
"309 544 CURVE SMOOTH",
"166 544 OFFCURVE",
"78 425 OFFCURVE",
"78 267 CURVE SMOOTH",
"78 108 OFFCURVE",
"166 -10 OFFCURVE",
"309 -10 CURVE SMOOTH"
);
},
{
closed = 1;
nodes = (
"212 61 OFFCURVE",
"156 152 OFFCURVE",
"156 267 CURVE SMOOTH",
"156 380 OFFCURVE",
"212 474 OFFCURVE",
"309 474 CURVE SMOOTH",
"405 474 OFFCURVE",
"460 380 OFFCURVE",
"460 267 CURVE SMOOTH",
"460 152 OFFCURVE",
"405 61 OFFCURVE",
"309 61 CURVE SMOOTH"
);
}
);
width = 617;
},
{
layerId = "B90EB90F-4FA1-4BBD-888F-E38A605CBEB2";
paths = (
{
closed = 1;
nodes = (
"473 -10 OFFCURVE",
"568 108 OFFCURVE",
"568 267 CURVE SMOOTH",
"568 425 OFFCURVE",
"473 544 OFFCURVE",
"318 544 CURVE SMOOTH",
"163 544 OFFCURVE",
"68 425 OFFCURVE",
"68 267 CURVE SMOOTH",
"68 108 OFFCURVE",
"163 -10 OFFCURVE",
"318 -10 CURVE SMOOTH"
);
},
{
closed = 1;
nodes = (
"242 115 OFFCURVE",
"198 182 OFFCURVE",
"198 267 CURVE SMOOTH",
"198 351 OFFCURVE",
"242 420 OFFCURVE",
"318 420 CURVE SMOOTH",
"395 420 OFFCURVE",
"438 351 OFFCURVE",
"438 267 CURVE SMOOTH",
"438 182 OFFCURVE",
"395 115 OFFCURVE",
"318 115 CURVE SMOOTH"
);
}
);
width = 636;
}
);
unicode = 1A45;
},
{
glyphname = "ssaHigh-tham";
layers = (
{
components = (
{
name = "saHigh-tham";
transform = "{1, 0, 0, 1, -8, 0}";
}
);
layerId = "5a955c31-bd75-46b6-b903-8760881f133b";
paths = (
{
closed = 1;
nodes = (
"870 33 OFFCURVE",
"841 87 OFFCURVE",
"801 130 CURVE SMOOTH",
"764 170 OFFCURVE",
"700 203 OFFCURVE",
"649 218 CURVE",
"616 162 LINE",
"658 147 OFFCURVE",
"715 118 OFFCURVE",
"745 83 CURVE SMOOTH",
"778 45 OFFCURVE",
"801 0 OFFCURVE",
"804 -45 CURVE",
"880 -27 LINE"
);
}
);
width = 969;
},
{
components = (
{
name = "saHigh-tham";
}
);
layerId = "B90EB90F-4FA1-4BBD-888F-E38A605CBEB2";
paths = (
{
closed = 1;
nodes = (
"909 60 OFFCURVE",
"878 108 OFFCURVE",
"835 154 CURVE SMOOTH",
"796 197 OFFCURVE",
"751 232 OFFCURVE",
"691 257 CURVE",
"626 177 LINE",
"666 155 OFFCURVE",
"721 120 OFFCURVE",
"753 83 CURVE SMOOTH",
"788 42 OFFCURVE",
"817 -1 OFFCURVE",
"832 -47 CURVE",
"933 0 LINE"
);
}
);
width = 1006;
}
);
unicode = 1A47;
},
{
glyphname = "la-tham";
layers = (
{
layerId = "5a955c31-bd75-46b6-b903-8760881f133b";
paths = (
{
closed = 1;
nodes = (
"346 -10 OFFCURVE",
"388 7 OFFCURVE",
"418 34 CURVE",
"384 96 LINE",
"362 73 OFFCURVE",
"332 61 OFFCURVE",
"301 61 CURVE SMOOTH",
"220 61 OFFCURVE",
"156 141 OFFCURVE",
"156 273 CURVE SMOOTH",
"156 400 OFFCURVE",
"217 473 OFFCURVE",
"282 473 CURVE SMOOTH",
"334 473 OFFCURVE",
"365 426 OFFCURVE",
"400 361 CURVE SMOOTH",
"496 180 LINE SMOOTH",
"553 74 OFFCURVE",
"607 -10 OFFCURVE",
"706 -10 CURVE SMOOTH",
"827 -10 OFFCURVE",
"903 116 OFFCURVE",
"903 257 CURVE SMOOTH",
"903 404 OFFCURVE",
"821 544 OFFCURVE",
"683 544 CURVE SMOOTH",
"635 544 OFFCURVE",
"593 527 OFFCURVE",
"563 500 CURVE",
"597 438 LINE",
"618 460 OFFCURVE",
"649 473 OFFCURVE",
"681 473 CURVE SMOOTH",
"761 473 OFFCURVE",
"825 395 OFFCURVE",
"825 266 CURVE SMOOTH",
"825 157 OFFCURVE",
"779 61 OFFCURVE",
"705 61 CURVE SMOOTH",
"653 61 OFFCURVE",
"620 109 OFFCURVE",
"585 175 CURVE SMOOTH",
"490 356 LINE SMOOTH",
"436 458 OFFCURVE",
"378 544 OFFCURVE",
"279 544 CURVE SMOOTH",
"158 544 OFFCURVE",
"78 420 OFFCURVE",
"78 276 CURVE SMOOTH",
"78 128 OFFCURVE",
"162 -10 OFFCURVE",
"298 -10 CURVE SMOOTH"
);
}
);
width = 981;
},
{
layerId = "B90EB90F-4FA1-4BBD-888F-E38A605CBEB2";
paths = (
{
closed = 1;
nodes = (
"379 -10 OFFCURVE",
"437 21 OFFCURVE",
"473 69 CURVE",
"393 153 LINE",
"370 128 OFFCURVE",
"342 115 OFFCURVE",
"312 115 CURVE SMOOTH",
"246 115 OFFCURVE",
"198 175 OFFCURVE",
"198 277 CURVE SMOOTH",
"198 368 OFFCURVE",
"243 419 OFFCURVE",
"303 419 CURVE SMOOTH",
"341 419 OFFCURVE",
"366 400 OFFCURVE",
"391 361 CURVE SMOOTH",
"494 180 LINE SMOOTH",
"557 71 OFFCURVE",
"628 -10 OFFCURVE",
"739 -10 CURVE SMOOTH",
"879 -10 OFFCURVE",
"963 116 OFFCURVE",
"963 255 CURVE SMOOTH",
"963 400 OFFCURVE",
"875 544 OFFCURVE",
"727 544 CURVE SMOOTH",
"662 544 OFFCURVE",
"605 516 OFFCURVE",
"568 469 CURVE",
"653 386 LINE",
"675 408 OFFCURVE",
"701 419 OFFCURVE",
"730 419 CURVE SMOOTH",
"795 419 OFFCURVE",
"834 361 OFFCURVE",
"834 263 CURVE SMOOTH",
"834 185 OFFCURVE",
"801 115 OFFCURVE",
"733 115 CURVE SMOOTH",
"695 115 OFFCURVE",
"670 136 OFFCURVE",
"646 175 CURVE SMOOTH",
"542 356 LINE SMOOTH",
"482 463 OFFCURVE",
"411 544 OFFCURVE",
"297 544 CURVE SMOOTH",
"156 544 OFFCURVE",
"68 421 OFFCURVE",
"68 281 CURVE SMOOTH",
"68 135 OFFCURVE",
"167 -10 OFFCURVE",
"312 -10 CURVE SMOOTH"
);
}
);
width = 1032;
}
);
unicode = 1A43;
},
{
glyphname = "shaHigh-tham";
layers = (
{
layerId = "5a955c31-bd75-46b6-b903-8760881f133b";
paths = (
{
closed = 1;
nodes = (
"512 568 LINE",
"470 476 OFFCURVE",
"406 404 OFFCURVE",
"303 352 CURVE",
"342 296 LINE",
"455 352 OFFCURVE",
"539 427 OFFCURVE",
"582 536 CURVE"
);
},
{
closed = 1;
nodes = (
"277 58 LINE",
"206 102 OFFCURVE",
"156 173 OFFCURVE",
"156 268 CURVE SMOOTH",
"156 382 OFFCURVE",
"222 475 OFFCURVE",
"331 475 CURVE SMOOTH",
"438 475 OFFCURVE",
"502 382 OFFCURVE",
"502 268 CURVE SMOOTH",
"502 173 OFFCURVE",
"453 102 OFFCURVE",
"382 58 CURVE",
"431 -3 LINE",
"511 60 OFFCURVE",
"581 137 OFFCURVE",
"581 268 CURVE SMOOTH",
"581 426 OFFCURVE",
"477 546 OFFCURVE",
"331 546 CURVE SMOOTH",
"183 546 OFFCURVE",
"78 426 OFFCURVE",
"78 268 CURVE SMOOTH",
"78 137 OFFCURVE",
"147 60 OFFCURVE",
"228 -3 CURVE"
);
}
);
width = 660;
},
{
layerId = "B90EB90F-4FA1-4BBD-888F-E38A605CBEB2";
paths = (
{
closed = 1;
nodes = (
"523 566 LINE",
"466 460 OFFCURVE",
"409 398 OFFCURVE",
"302 342 CURVE",
"349 266 LINE",
"467 316 OFFCURVE",
"561 404 OFFCURVE",
"613 523 CURVE"
);
},
{
closed = 1;
nodes = (
"301 82 LINE",
"244 123 OFFCURVE",
"205 177 OFFCURVE",
"205 263 CURVE SMOOTH",
"205 353 OFFCURVE",
"252 422 OFFCURVE",
"335 422 CURVE SMOOTH",
"418 422 OFFCURVE",
"465 353 OFFCURVE",
"465 263 CURVE SMOOTH",
"465 179 OFFCURVE",
"427 123 OFFCURVE",
"371 83 CURVE",
"459 -7 LINE",
"533 43 OFFCURVE",
"594 137 OFFCURVE",
"594 265 CURVE SMOOTH",
"594 427 OFFCURVE",
"496 546 OFFCURVE",
"335 546 CURVE SMOOTH",
"174 546 OFFCURVE",
"75 427 OFFCURVE",
"75 262 CURVE SMOOTH",
"75 136 OFFCURVE",
"133 38 OFFCURVE",
"218 -8 CURVE"
);
}
);
width = 660;
}
);
unicode = 1A46;
},
{
glyphname = "lla-tham";
layers = (
{
components = (
{
name = "nga-tham";
transform = "{1, 0, 0, 1, 2, 0}";
}
);
layerId = "5a955c31-bd75-46b6-b903-8760881f133b";
paths = (
{
closed = 1;
nodes = (
"489 -453 OFFCURVE",
"575 -396 OFFCURVE",
"575 -306 CURVE SMOOTH",
"575 -218 OFFCURVE",
"488 -164 OFFCURVE",
"397 -164 CURVE SMOOTH",
"348 -164 OFFCURVE",
"307 -180 OFFCURVE",
"273 -202 CURVE",
"293 -258 LINE",
"319 -242 OFFCURVE",
"363 -229 OFFCURVE",
"400 -229 CURVE SMOOTH",
"455 -229 OFFCURVE",
"502 -258 OFFCURVE",
"502 -300 CURVE SMOOTH",
"502 -347 OFFCURVE",
"445 -382 OFFCURVE",
"343 -382 CURVE SMOOTH",
"246 -382 OFFCURVE",
"213 -342 OFFCURVE",
"213 -256 CURVE SMOOTH",
"213 26 LINE",
"138 49 LINE",
"138 -240 LINE SMOOTH",
"138 -390 OFFCURVE",
"206 -453 OFFCURVE",
"347 -453 CURVE SMOOTH"
);
}
);
width = 699;
},
{
components = (
{
name = "nga-tham";
transform = "{1, 0, 0, 1, -2, 0}";
}
);
layerId = "B90EB90F-4FA1-4BBD-888F-E38A605CBEB2";
paths = (
{
closed = 1;
nodes = (
"515 -453 OFFCURVE",
"607 -376 OFFCURVE",
"607 -279 CURVE SMOOTH",
"607 -179 OFFCURVE",
"510 -117 OFFCURVE",
"407 -117 CURVE SMOOTH",
"364 -117 OFFCURVE",
"327 -128 OFFCURVE",
"296 -139 CURVE",
"316 -250 LINE",
"342 -237 OFFCURVE",
"377 -229 OFFCURVE",
"404 -229 CURVE SMOOTH",
"451 -229 OFFCURVE",
"487 -253 OFFCURVE",
"487 -281 CURVE SMOOTH",
"487 -315 OFFCURVE",
"437 -338 OFFCURVE",
"363 -338 CURVE SMOOTH",
"270 -338 OFFCURVE",
"243 -307 OFFCURVE",
"243 -222 CURVE SMOOTH",
"243 56 LINE",
"120 49 LINE",
"120 -206 LINE SMOOTH",
"120 -382 OFFCURVE",
"183 -453 OFFCURVE",
"344 -453 CURVE SMOOTH"
);
}
);
width = 736;
}
);
unicode = 1A4A;
},
{
glyphname = "a-tham";
layers = (
{
components = (
{
name = "signAa-tham";
}
);
layerId = "B90EB90F-4FA1-4BBD-888F-E38A605CBEB2";
paths = (
{
closed = 1;
nodes = (
"625 -7 OFFCURVE",
"652 -3 OFFCURVE",
"680 -3 CURVE SMOOTH",
"760 -3 OFFCURVE",
"822 -34 OFFCURVE",
"887 -125 CURVE",
"997 -49 LINE",
"944 27 OFFCURVE",
"874 77 OFFCURVE",
"798 90 CURVE",
"894 143 OFFCURVE",
"923 223 OFFCURVE",
"923 300 CURVE SMOOTH",
"923 439 OFFCURVE",
"827 544 OFFCURVE",
"675 544 CURVE SMOOTH",
"593 544 OFFCURVE",
"515 513 OFFCURVE",
"464 409 CURVE",
"542 267 LINE",
"542 383 OFFCURVE",
"612 419 OFFCURVE",
"673 419 CURVE SMOOTH",
"741 419 OFFCURVE",
"794 374 OFFCURVE",
"794 295 CURVE SMOOTH",
"794 194 OFFCURVE",
"707 140 OFFCURVE",
"565 104 CURVE",
"587 -15 LINE"
);
}
);
width = 1004;
},
{
components = (
{
name = "signAa-tham";
}
);
layerId = "5a955c31-bd75-46b6-b903-8760881f133b";
paths = (
{
closed = 1;
nodes = (
"573 -4 OFFCURVE",
"587 -3 OFFCURVE",
"603 -3 CURVE SMOOTH",
"705 -3 OFFCURVE",
"776 -44 OFFCURVE",
"840 -130 CURVE",
"904 -85 LINE",
"842 -12 OFFCURVE",
"789 37 OFFCURVE",
"691 57 CURVE",
"820 116 OFFCURVE",
"870 208 OFFCURVE",
"870 306 CURVE SMOOTH",
"870 437 OFFCURVE",
"781 544 OFFCURVE",
"642 544 CURVE SMOOTH",
"543 544 OFFCURVE",
"466 490 OFFCURVE",
"443 402 CURVE",
"489 267 LINE",
"488 395 OFFCURVE",
"540 473 OFFCURVE",
"639 473 CURVE SMOOTH",
"729 473 OFFCURVE",
"792 407 OFFCURVE",
"792 303 CURVE SMOOTH",
"792 169 OFFCURVE",
"684 102 OFFCURVE",
"532 64 CURVE",
"550 -7 LINE"
);
}
);
width = 955;
}
);
unicode = 1A4B;
},
{
glyphname = "lue-tham";
layers = (
{
layerId = "B90EB90F-4FA1-4BBD-888F-E38A605CBEB2";
paths = (
{
closed = 1;
nodes = (
"539 130 OFFCURVE",
"589 223 OFFCURVE",
"589 313 CURVE SMOOTH",
"589 440 OFFCURVE",
"489 544 OFFCURVE",
"340 544 CURVE SMOOTH",
"243 544 OFFCURVE",
"153 500 OFFCURVE",
"82 409 CURVE",
"167 318 LINE",
"215 379 OFFCURVE",
"272 419 OFFCURVE",
"343 419 CURVE SMOOTH",
"414 419 OFFCURVE",
"459 376 OFFCURVE",
"459 312 CURVE SMOOTH",
"459 198 OFFCURVE",
"316 143 OFFCURVE",
"103 111 CURVE",
"122 -11 LINE",
"156 -1 OFFCURVE",
"203 10 OFFCURVE",
"257 10 CURVE SMOOTH",
"407 10 OFFCURVE",
"494 -76 OFFCURVE",
"494 -174 CURVE SMOOTH",
"494 -259 OFFCURVE",
"428 -333 OFFCURVE",
"312 -333 CURVE SMOOTH",
"233 -333 OFFCURVE",
"195 -301 OFFCURVE",
"195 -257 CURVE SMOOTH",
"195 -217 OFFCURVE",
"227 -188 OFFCURVE",
"274 -188 CURVE SMOOTH",
"291 -188 OFFCURVE",
"316 -192 OFFCURVE",
"335 -200 CURVE",
"361 -87 LINE",
"329 -77 OFFCURVE",
"303 -71 OFFCURVE",
"273 -71 CURVE SMOOTH",
"169 -71 OFFCURVE",
"68 -146 OFFCURVE",
"68 -258 CURVE SMOOTH",
"68 -379 OFFCURVE",
"183 -453 OFFCURVE",
"312 -453 CURVE SMOOTH",
"466 -453 OFFCURVE",
"618 -341 OFFCURVE",
"618 -166 CURVE SMOOTH",
"618 -33 OFFCURVE",
"527 60 OFFCURVE",
"403 87 CURVE"
);
},
{
closed = 1;
nodes = (
"565 -347 OFFCURVE",
"478 -261 OFFCURVE",
"405 -209 CURVE",
"334 -273 LINE",
"393 -314 OFFCURVE",
"470 -398 OFFCURVE",
"509 -489 CURVE",
"613 -437 LINE"
);
}
);
width = 700;
},
{
layerId = "5a955c31-bd75-46b6-b903-8760881f133b";
paths = (
{
closed = 1;
nodes = (
"489 125 OFFCURVE",
"550 216 OFFCURVE",
"550 316 CURVE SMOOTH",
"550 440 OFFCURVE",
"455 544 OFFCURVE",
"309 544 CURVE SMOOTH",
"215 544 OFFCURVE",
"138 500 OFFCURVE",
"89 418 CURVE",
"151 371 LINE",
"189 442 OFFCURVE",
"247 473 OFFCURVE",
"313 473 CURVE SMOOTH",
"397 473 OFFCURVE",
"472 413 OFFCURVE",
"472 321 CURVE SMOOTH",
"472 190 OFFCURVE",
"317 94 OFFCURVE",
"115 54 CURVE",
"132 -16 LINE",
"160 -7 OFFCURVE",
"197 0 OFFCURVE",
"236 0 CURVE SMOOTH",
"378 0 OFFCURVE",
"482 -87 OFFCURVE",
"482 -206 CURVE SMOOTH",
"482 -304 OFFCURVE",
"412 -385 OFFCURVE",
"294 -385 CURVE SMOOTH",
"210 -385 OFFCURVE",
"151 -345 OFFCURVE",
"151 -287 CURVE SMOOTH",
"151 -234 OFFCURVE",
"202 -194 OFFCURVE",
"266 -194 CURVE SMOOTH",
"302 -194 OFFCURVE",
"347 -207 OFFCURVE",
"383 -232 CURVE",
"409 -168 LINE",
"356 -142 OFFCURVE",
"315 -126 OFFCURVE",
"265 -126 CURVE SMOOTH",
"162 -126 OFFCURVE",
"73 -192 OFFCURVE",
"73 -288 CURVE SMOOTH",
"73 -388 OFFCURVE",
"175 -453 OFFCURVE",
"294 -453 CURVE SMOOTH",
"431 -453 OFFCURVE",
"560 -366 OFFCURVE",
"560 -208 CURVE SMOOTH",
"560 -84 OFFCURVE",
"480 19 OFFCURVE",
"339 54 CURVE"
);
},
{
closed = 1;
nodes = (
"495 -374 OFFCURVE",
"421 -310 OFFCURVE",
"348 -272 CURVE",
"310 -322 LINE",
"366 -354 OFFCURVE",
"439 -416 OFFCURVE",
"475 -493 CURVE",
"537 -459 LINE"
);
}
);
width = 643;
}
);
unicode = 1A44;
},
{
glyphname = "haHigh-tham";
layers = (
{
layerId = "5a955c31-bd75-46b6-b903-8760881f133b";
paths = (
{
closed = 1;
nodes = (
"162 544 OFFCURVE",
"78 406 OFFCURVE",
"78 258 CURVE SMOOTH",
"78 114 OFFCURVE",
"158 -10 OFFCURVE",
"279 -10 CURVE SMOOTH",
"378 -10 OFFCURVE",
"436 76 OFFCURVE",
"490 178 CURVE SMOOTH",
"585 359 LINE SMOOTH",
"620 425 OFFCURVE",
"653 473 OFFCURVE",
"705 473 CURVE SMOOTH",
"779 473 OFFCURVE",
"825 377 OFFCURVE",
"825 268 CURVE SMOOTH",
"825 139 OFFCURVE",
"761 61 OFFCURVE",
"681 61 CURVE SMOOTH",
"649 61 OFFCURVE",
"618 74 OFFCURVE",
"597 96 CURVE",
"563 34 LINE",
"593 7 OFFCURVE",
"635 -10 OFFCURVE",
"683 -10 CURVE SMOOTH",
"821 -10 OFFCURVE",
"903 130 OFFCURVE",
"903 277 CURVE SMOOTH",
"903 418 OFFCURVE",
"827 544 OFFCURVE",
"706 544 CURVE SMOOTH",
"607 544 OFFCURVE",
"553 460 OFFCURVE",
"496 354 CURVE SMOOTH",
"400 173 LINE SMOOTH",
"365 108 OFFCURVE",
"334 61 OFFCURVE",
"282 61 CURVE SMOOTH",
"217 61 OFFCURVE",
"156 134 OFFCURVE",
"156 261 CURVE SMOOTH",
"156 393 OFFCURVE",
"220 473 OFFCURVE",
"301 473 CURVE SMOOTH",
"332 473 OFFCURVE",
"362 461 OFFCURVE",
"384 438 CURVE",
"418 500 LINE",
"388 527 OFFCURVE",
"346 544 OFFCURVE",
"298 544 CURVE SMOOTH"
);
}
);
width = 981;
},
{
layerId = "B90EB90F-4FA1-4BBD-888F-E38A605CBEB2";
paths = (
{
closed = 1;
nodes = (
"167 547 OFFCURVE",
"68 402 OFFCURVE",
"68 256 CURVE SMOOTH",
"68 116 OFFCURVE",
"156 -7 OFFCURVE",
"297 -7 CURVE SMOOTH",
"411 -7 OFFCURVE",
"482 74 OFFCURVE",
"542 181 CURVE SMOOTH",
"646 362 LINE SMOOTH",
"670 401 OFFCURVE",
"695 422 OFFCURVE",
"733 422 CURVE SMOOTH",
"801 422 OFFCURVE",
"834 352 OFFCURVE",
"834 274 CURVE SMOOTH",
"834 176 OFFCURVE",
"795 118 OFFCURVE",
"730 118 CURVE SMOOTH",
"701 118 OFFCURVE",
"675 129 OFFCURVE",
"653 151 CURVE",
"568 68 LINE",
"605 21 OFFCURVE",
"662 -7 OFFCURVE",
"727 -7 CURVE SMOOTH",
"875 -7 OFFCURVE",
"963 137 OFFCURVE",
"963 282 CURVE SMOOTH",
"963 421 OFFCURVE",
"879 547 OFFCURVE",
"739 547 CURVE SMOOTH",
"628 547 OFFCURVE",
"557 466 OFFCURVE",
"494 357 CURVE SMOOTH",
"391 176 LINE SMOOTH",
"366 137 OFFCURVE",
"341 118 OFFCURVE",
"303 118 CURVE SMOOTH",
"243 118 OFFCURVE",
"198 169 OFFCURVE",
"198 260 CURVE SMOOTH",
"198 362 OFFCURVE",
"246 422 OFFCURVE",
"312 422 CURVE SMOOTH",
"342 422 OFFCURVE",
"370 409 OFFCURVE",
"393 384 CURVE",
"473 468 LINE",
"437 516 OFFCURVE",
"379 547 OFFCURVE",
"312 547 CURVE SMOOTH"
);
}
);
width = 1032;
}
);
unicode = 1A49;
},
{
glyphname = "haLow-tham";
layers = (
{
components = (
{
name = "haHigh-tham";
}
);
layerId = "5a955c31-bd75-46b6-b903-8760881f133b";
paths = (
{
closed = 1;
nodes = (
"607 -463 OFFCURVE",
"704 -400 OFFCURVE",
"704 -250 CURVE SMOOTH",
"704 0 LINE",
"626 50 LINE",
"626 -260 LINE SMOOTH",
"626 -351 OFFCURVE",
"565 -392 OFFCURVE",
"431 -392 CURVE SMOOTH",
"319 -392 OFFCURVE",
"256 -360 OFFCURVE",
"256 -305 CURVE SMOOTH",
"256 -251 OFFCURVE",
"319 -218 OFFCURVE",
"380 -218 CURVE SMOOTH",
"422 -218 OFFCURVE",
"478 -235 OFFCURVE",
"513 -262 CURVE",
"540 -193 LINE",
"491 -166 OFFCURVE",
"436 -147 OFFCURVE",
"377 -147 CURVE SMOOTH",
"271 -147 OFFCURVE",
"178 -212 OFFCURVE",
"178 -309 CURVE SMOOTH",
"178 -405 OFFCURVE",
"266 -463 OFFCURVE",
"428 -463 CURVE SMOOTH"
);
}
);
width = 981;
},
{
components = (
{
name = "haHigh-tham";
}
);
layerId = "B90EB90F-4FA1-4BBD-888F-E38A605CBEB2";
paths = (
{
closed = 1;
nodes = (
"673 -463 OFFCURVE",
"786 -400 OFFCURVE",
"786 -250 CURVE SMOOTH",
"786 10 LINE",
"657 50 LINE",
"657 -260 LINE SMOOTH",
"657 -319 OFFCURVE",
"600 -341 OFFCURVE",
"477 -341 CURVE SMOOTH",
"372 -341 OFFCURVE",
"326 -314 OFFCURVE",
"326 -278 CURVE SMOOTH",
"326 -243 OFFCURVE",
"369 -217 OFFCURVE",
"415 -217 CURVE SMOOTH",
"453 -217 OFFCURVE",
"494 -235 OFFCURVE",
"532 -259 CURVE",
"579 -141 LINE",
"530 -116 OFFCURVE",
"474 -98 OFFCURVE",
"416 -98 CURVE SMOOTH",
"300 -98 OFFCURVE",
"196 -171 OFFCURVE",
"196 -280 CURVE SMOOTH",
"196 -389 OFFCURVE",
"300 -463 OFFCURVE",
"486 -463 CURVE SMOOTH"
);
}
);
width = 1032;
}
);
unicode = 1A4C;
},
{
glyphname = "i-tham";
layers = (
{
components = (
{
name = "paLow-tham";
transform = "{1, 0, 0, 1, 11, 0}";
}
);
layerId = "5a955c31-bd75-46b6-b903-8760881f133b";
paths = (
{
closed = 1;
nodes = (
"630 -447 LINE",
"633 -378 OFFCURVE",
"626 -329 OFFCURVE",
"615 -288 CURVE SMOOTH",
"574 -134 OFFCURVE",
"455 -50 OFFCURVE",
"334 -50 CURVE SMOOTH",
"198 -50 OFFCURVE",
"99 -155 OFFCURVE",
"99 -272 CURVE SMOOTH",
"99 -349 OFFCURVE",
"139 -398 OFFCURVE",
"159 -421 CURVE",
"233 -436 LINE",
"285 -335 OFFCURVE",
"315 -315 OFFCURVE",
"343 -315 CURVE SMOOTH",
"370 -315 OFFCURVE",
"390 -335 OFFCURVE",
"390 -359 CURVE SMOOTH",
"390 -383 OFFCURVE",
"371 -411 OFFCURVE",
"359 -429 CURVE",
"425 -452 LINE",
"452 -415 OFFCURVE",
"463 -380 OFFCURVE",
"463 -350 CURVE SMOOTH",
"463 -294 OFFCURVE",
"424 -244 OFFCURVE",
"350 -244 CURVE SMOOTH",
"295 -244 OFFCURVE",
"253 -271 OFFCURVE",
"194 -368 CURVE",
"216 -349 LINE",
"196 -348 OFFCURVE",
"177 -315 OFFCURVE",
"177 -273 CURVE SMOOTH",
"177 -194 OFFCURVE",
"240 -121 OFFCURVE",
"333 -121 CURVE SMOOTH",
"441 -121 OFFCURVE",
"552 -219 OFFCURVE",
"552 -411 CURVE SMOOTH",
"552 -477 LINE"
);
}
);
width = 719;
},
{
components = (
{
name = "paLow-tham";
transform = "{1, 0, 0, 1, 5, 0}";
}
);
layerId = "B90EB90F-4FA1-4BBD-888F-E38A605CBEB2";
paths = (
{
closed = 1;
nodes = (
"659 -449 LINE",
"665 -380 OFFCURVE",
"658 -313 OFFCURVE",
"648 -272 CURVE SMOOTH",
"613 -122 OFFCURVE",
"485 -39 OFFCURVE",
"350 -39 CURVE SMOOTH",
"196 -39 OFFCURVE",
"85 -149 OFFCURVE",
"85 -286 CURVE SMOOTH",
"85 -332 OFFCURVE",
"97 -388 OFFCURVE",
"104 -406 CURVE",
"247 -435 LINE",
"261 -358 OFFCURVE",
"297 -334 OFFCURVE",
"324 -334 CURVE SMOOTH",
"348 -334 OFFCURVE",
"357 -353 OFFCURVE",
"357 -373 CURVE SMOOTH",
"357 -388 OFFCURVE",
"351 -403 OFFCURVE",
"340 -418 CURVE",
"447 -453 LINE",
"469 -418 OFFCURVE",
"480 -380 OFFCURVE",
"480 -350 CURVE SMOOTH",
"480 -280 OFFCURVE",
"422 -221 OFFCURVE",
"342 -221 CURVE SMOOTH",
"295 -221 OFFCURVE",
"220 -241 OFFCURVE",
"192 -339 CURVE",
"210 -330 LINE",
"208 -323 OFFCURVE",
"206 -311 OFFCURVE",
"206 -299 CURVE SMOOTH",
"206 -236 OFFCURVE",
"262 -158 OFFCURVE",
"360 -158 CURVE SMOOTH",
"461 -158 OFFCURVE",
"557 -239 OFFCURVE",
"539 -429 CURVE SMOOTH",
"535 -477 LINE"
);
}
);
width = 742;
}
);
unicode = 1A4D;
},
{
glyphname = "lae-tham";
layers = (
{
layerId = "5a955c31-bd75-46b6-b903-8760881f133b";
paths = (
{
closed = 1;
nodes = (
"365 -10 OFFCURVE",
"414 18 OFFCURVE",
"445 61 CURVE",
"395 108 LINE",
"373 77 OFFCURVE",
"342 61 OFFCURVE",
"307 61 CURVE SMOOTH",
"229 61 OFFCURVE",
"156 139 OFFCURVE",
"156 268 CURVE SMOOTH",
"156 400 OFFCURVE",
"225 473 OFFCURVE",
"291 473 CURVE SMOOTH",
"315 473 OFFCURVE",
"334 464 OFFCURVE",
"352 445 CURVE SMOOTH",
"372 424 OFFCURVE",
"392 391 OFFCURVE",
"416 346 CURVE SMOOTH",
"504 180 LINE SMOOTH",
"564 67 OFFCURVE",
"623 -10 OFFCURVE",
"718 -10 CURVE SMOOTH",
"834 -10 OFFCURVE",
"893 104 OFFCURVE",
"893 257 CURVE SMOOTH",
"893 774 LINE SMOOTH",
"893 875 OFFCURVE",
"931 930 OFFCURVE",
"999 930 CURVE SMOOTH",
"1008 930 OFFCURVE",
"1019 929 OFFCURVE",
"1029 927 CURVE",
"1045 997 LINE",
"1031 999 OFFCURVE",
"1017 1000 OFFCURVE",
"1002 1000 CURVE SMOOTH",
"887 1000 OFFCURVE",
"818 905 OFFCURVE",
"818 758 CURVE SMOOTH",
"818 258 LINE SMOOTH",
"818 152 OFFCURVE",
"787 61 OFFCURVE",
"718 61 CURVE SMOOTH",
"669 61 OFFCURVE",
"632 107 OFFCURVE",
"596 175 CURVE SMOOTH",
"488 380 LINE SMOOTH",
"440 470 OFFCURVE",
"393 544 OFFCURVE",
"295 544 CURVE SMOOTH",
"165 544 OFFCURVE",
"78 419 OFFCURVE",
"78 271 CURVE SMOOTH",
"78 115 OFFCURVE",
"169 -10 OFFCURVE",
"303 -10 CURVE SMOOTH"
);
}
);
width = 977;
},
{
layerId = "B90EB90F-4FA1-4BBD-888F-E38A605CBEB2";
paths = (
{
closed = 1;
nodes = (
"383 -10 OFFCURVE",
"431 15 OFFCURVE",
"478 68 CURVE",
"388 160 LINE",
"370 132 OFFCURVE",
"345 115 OFFCURVE",
"311 115 CURVE SMOOTH",
"249 115 OFFCURVE",
"198 173 OFFCURVE",
"198 272 CURVE SMOOTH",
"198 368 OFFCURVE",
"249 419 OFFCURVE",
"301 419 CURVE SMOOTH",
"323 419 OFFCURVE",
"345 410 OFFCURVE",
"364 392 CURVE SMOOTH",
"380 377 OFFCURVE",
"392 358 OFFCURVE",
"404 336 CURVE SMOOTH",
"504 155 LINE SMOOTH",
"560 56 OFFCURVE",
"631 -10 OFFCURVE",
"733 -10 CURVE SMOOTH",
"870 -10 OFFCURVE",
"936 111 OFFCURVE",
"936 257 CURVE SMOOTH",
"936 728 LINE SMOOTH",
"936 839 OFFCURVE",
"969 876 OFFCURVE",
"1031 876 CURVE SMOOTH",
"1041 876 OFFCURVE",
"1054 875 OFFCURVE",
"1067 873 CURVE",
"1083 997 LINE",
"1066 999 OFFCURVE",
"1048 1000 OFFCURVE",
"1033 1000 CURVE SMOOTH",
"892 1000 OFFCURVE",
"809 905 OFFCURVE",
"809 757 CURVE SMOOTH",
"809 258 LINE SMOOTH",
"809 161 OFFCURVE",
"779 115 OFFCURVE",
"727 115 CURVE SMOOTH",
"679 115 OFFCURVE",
"649 154 OFFCURVE",
"624 200 CURVE SMOOTH",
"519 389 LINE SMOOTH",
"461 492 OFFCURVE",
"385 544 OFFCURVE",
"299 544 CURVE SMOOTH",
"168 544 OFFCURVE",
"68 420 OFFCURVE",
"68 273 CURVE SMOOTH",
"68 125 OFFCURVE",
"171 -10 OFFCURVE",
"320 -10 CURVE SMOOTH"
);
}
);
width = 1010;
}
);
unicode = 1A53;
},
{
glyphname = "u-tham";
layers = (
{
layerId = "B90EB90F-4FA1-4BBD-888F-E38A605CBEB2";
paths = (
{
closed = 1;
nodes = (
"249 -336 OFFCURVE",
"201 -248 OFFCURVE",
"200 -124 CURVE SMOOTH",
"198 120 LINE",
"162 78 LINE",
"196 20 OFFCURVE",
"263 -10 OFFCURVE",
"334 -10 CURVE SMOOTH",
"477 -10 OFFCURVE",
"575 108 OFFCURVE",
"575 264 CURVE SMOOTH",
"575 426 OFFCURVE",
"469 544 OFFCURVE",
"312 544 CURVE SMOOTH",
"255 544 OFFCURVE",
"174 530 OFFCURVE",
"95 421 CURVE",
"190 348 LINE",
"223 400 OFFCURVE",
"261 427 OFFCURVE",
"313 427 CURVE SMOOTH",
"395 427 OFFCURVE",
"448 356 OFFCURVE",
"448 266 CURVE SMOOTH",
"448 179 OFFCURVE",
"400 107 OFFCURVE",
"319 107 CURVE SMOOTH",
"267 107 OFFCURVE",
"224 136 OFFCURVE",
"202 204 CURVE",
"76 203 LINE",
"78 -86 LINE SMOOTH",
"80 -362 OFFCURVE",
"207 -452 OFFCURVE",
"360 -452 CURVE SMOOTH",
"429 -452 OFFCURVE",
"497 -433 OFFCURVE",
"552 -393 CURVE",
"510 -280 LINE",
"478 -305 OFFCURVE",
"427 -333 OFFCURVE",
"364 -334 CURVE SMOOTH"
);
}
);
width = 653;
},
{
layerId = "5a955c31-bd75-46b6-b903-8760881f133b";
paths = (
{
closed = 1;
nodes = (
"208 -383 OFFCURVE",
"159 -278 OFFCURVE",
"158 -124 CURVE SMOOTH",
"156 120 LINE",
"135 79 LINE",
"181 17 OFFCURVE",
"237 -10 OFFCURVE",
"303 -10 CURVE SMOOTH",
"440 -10 OFFCURVE",
"533 108 OFFCURVE",
"533 268 CURVE SMOOTH",
"533 426 OFFCURVE",
"440 544 OFFCURVE",
"297 544 CURVE SMOOTH",
"219 544 OFFCURVE",
"155 508 OFFCURVE",
"103 443 CURVE",
"151 398 LINE",
"189 444 OFFCURVE",
"235 473 OFFCURVE",
"293 473 CURVE SMOOTH",
"394 473 OFFCURVE",
"455 382 OFFCURVE",
"455 268 CURVE SMOOTH",
"455 153 OFFCURVE",
"394 61 OFFCURVE",
"296 61 CURVE SMOOTH",
"233 61 OFFCURVE",
"187 99 OFFCURVE",
"162 157 CURVE",
"81 156 LINE",
"83 -86 LINE SMOOTH",
"85 -362 OFFCURVE",
"192 -452 OFFCURVE",
"327 -452 CURVE SMOOTH",
"385 -452 OFFCURVE",
"448 -435 OFFCURVE",
"497 -400 CURVE",
"455 -335 LINE",
"428 -356 OFFCURVE",
"381 -380 OFFCURVE",
"326 -381 CURVE SMOOTH"
);
}
);
width = 611;
}
);
unicode = 1A4F;
},
{
glyphname = "raMedial-tham";
layers = (
{
layerId = "5a955c31-bd75-46b6-b903-8760881f133b";
paths = (
{
closed = 1;
nodes = (
"332 -466 OFFCURVE",
"353 -462 OFFCURVE",
"368 -459 CURVE",
"346 -389 LINE",
"331 -395 OFFCURVE",
"313 -398 OFFCURVE",
"299 -398 CURVE SMOOTH",
"235 -398 OFFCURVE",
"173 -353 OFFCURVE",
"173 -242 CURVE SMOOTH",
"173 774 LINE SMOOTH",
"173 868 OFFCURVE",
"224 932 OFFCURVE",
"299 932 CURVE SMOOTH",
"313 932 OFFCURVE",
"331 929 OFFCURVE",
"346 923 CURVE",
"368 993 LINE",
"353 996 OFFCURVE",
"332 1000 OFFCURVE",
"303 1000 CURVE SMOOTH",
"267 1000 OFFCURVE",
"236 990 OFFCURVE",
"206 972 CURVE SMOOTH",
"137 931 OFFCURVE",
"98 851 OFFCURVE",
"98 758 CURVE SMOOTH",
"98 -224 LINE SMOOTH",
"98 -258 OFFCURVE",
"103 -301 OFFCURVE",
"113 -330 CURVE SMOOTH",
"141 -417 OFFCURVE",
"206 -466 OFFCURVE",
"303 -466 CURVE SMOOTH"
);
}
);
width = 305;
},
{
layerId = "B90EB90F-4FA1-4BBD-888F-E38A605CBEB2";
paths = (
{
closed = 1;
nodes = (
"345 -463 OFFCURVE",
"369 -458 OFFCURVE",
"393 -450 CURVE",
"373 -336 LINE",
"352 -342 OFFCURVE",
"332 -345 OFFCURVE",
"314 -345 CURVE SMOOTH",
"258 -345 OFFCURVE",
"220 -302 OFFCURVE",
"220 -221 CURVE SMOOTH",
"220 758 LINE SMOOTH",
"220 838 OFFCURVE",
"258 883 OFFCURVE",
"314 883 CURVE SMOOTH",
"332 883 OFFCURVE",
"351 880 OFFCURVE",
"371 875 CURVE",
"393 993 LINE",
"384 996 OFFCURVE",
"351 1000 OFFCURVE",
"318 1000 CURVE SMOOTH",
"274 1000 OFFCURVE",
"235 995 OFFCURVE",
"201 974 CURVE SMOOTH",
"132 933 OFFCURVE",
"93 851 OFFCURVE",
"93 758 CURVE SMOOTH",
"93 -221 LINE SMOOTH",
"93 -267 OFFCURVE",
"102 -315 OFFCURVE",
"121 -353 CURVE SMOOTH",
"159 -427 OFFCURVE",
"230 -463 OFFCURVE",
"307 -463 CURVE SMOOTH"
);
}
);
width = 332;
}
);
unicode = 1A55;
},
{
glyphname = "ii-tham";
layers = (
{
components = (
{
name = "paLow-tham";
transform = "{1, 0, 0, 1, 10, 0}";
}
);
layerId = "B90EB90F-4FA1-4BBD-888F-E38A605CBEB2";
paths = (
{
closed = 1;
nodes = (
"474 -452 LINE",
"493 -417 OFFCURVE",
"503 -383 OFFCURVE",
"503 -353 CURVE SMOOTH",
"503 -279 OFFCURVE",
"443 -219 OFFCURVE",
"360 -219 CURVE SMOOTH",
"313 -219 OFFCURVE",
"239 -239 OFFCURVE",
"210 -336 CURVE",
"229 -348 LINE",
"225 -338 OFFCURVE",
"217 -317 OFFCURVE",
"217 -287 CURVE SMOOTH",
"217 -213 OFFCURVE",
"267 -166 OFFCURVE",
"343 -166 CURVE SMOOTH",
"462 -166 OFFCURVE",
"583 -268 OFFCURVE",
"717 -429 CURVE",
"855 -415 LINE",
"855 744 LINE",
"729 776 LINE",
"671 749 OFFCURVE",
"581 728 OFFCURVE",
"477 728 CURVE SMOOTH",
"358 728 OFFCURVE",
"304 761 OFFCURVE",
"304 800 CURVE SMOOTH",
"304 845 OFFCURVE",
"377 880 OFFCURVE",
"509 878 CURVE SMOOTH",
"628 877 OFFCURVE",
"732 854 OFFCURVE",
"819 823 CURVE",
"862 940 LINE",
"746 977 OFFCURVE",
"642 1001 OFFCURVE",
"525 1000 CURVE SMOOTH",
"335 1000 OFFCURVE",
"174 922 OFFCURVE",
"174 800 CURVE SMOOTH",
"174 694 OFFCURVE",
"289 606 OFFCURVE",
"477 606 CURVE SMOOTH",
"598 606 OFFCURVE",
"701 633 OFFCURVE",
"759 666 CURVE",
"726 690 LINE",
"726 -354 LINE",
"764 -309 LINE",
"610 -126 OFFCURVE",
"467 -46 OFFCURVE",
"339 -46 CURVE SMOOTH",
"202 -46 OFFCURVE",
"91 -133 OFFCURVE",
"91 -257 CURVE SMOOTH",
"91 -330 OFFCURVE",
"130 -384 OFFCURVE",
"143 -405 CURVE",
"265 -434 LINE",
"279 -356 OFFCURVE",
"315 -333 OFFCURVE",
"342 -333 CURVE SMOOTH",
"366 -333 OFFCURVE",
"375 -351 OFFCURVE",
"375 -371 CURVE SMOOTH",
"375 -387 OFFCURVE",
"369 -401 OFFCURVE",
"358 -417 CURVE"
);
}
);
width = 950;
},
{
components = (
{
name = "paLow-tham";
transform = "{1, 0, 0, 1, 10, 0}";
}
);
layerId = "5a955c31-bd75-46b6-b903-8760881f133b";
paths = (
{
closed = 1;
nodes = (
"423 -454 LINE",
"440 -428 OFFCURVE",
"460 -395 OFFCURVE",
"460 -351 CURVE SMOOTH",
"460 -280 OFFCURVE",
"406 -225 OFFCURVE",
"337 -225 CURVE SMOOTH",
"291 -225 OFFCURVE",
"211 -251 OFFCURVE",
"190 -366 CURVE",
"212 -374 LINE",
"194 -357 OFFCURVE",
"172 -321 OFFCURVE",
"172 -271 CURVE SMOOTH",
"172 -198 OFFCURVE",
"218 -121 OFFCURVE",
"335 -121 CURVE SMOOTH",
"476 -121 OFFCURVE",
"604 -244 OFFCURVE",
"703 -425 CURVE",
"786 -415 LINE",
"786 741 LINE",
"719 761 LINE",
"635 706 OFFCURVE",
"554 681 OFFCURVE",
"460 681 CURVE SMOOTH",
"332 681 OFFCURVE",
"252 727 OFFCURVE",
"252 801 CURVE SMOOTH",
"252 882 OFFCURVE",
"342 931 OFFCURVE",
"487 929 CURVE SMOOTH",
"586 928 OFFCURVE",
"686 904 OFFCURVE",
"771 860 CURVE",
"803 929 LINE",
"688 979 OFFCURVE",
"599 1000 OFFCURVE",
"496 1000 CURVE SMOOTH",
"296 1000 OFFCURVE",
"174 925 OFFCURVE",
"174 802 CURVE SMOOTH",
"174 685 OFFCURVE",
"284 610 OFFCURVE",
"458 610 CURVE SMOOTH",
"564 610 OFFCURVE",
"661 637 OFFCURVE",
"720 683 CURVE",
"711 708 LINE",
"711 -354 LINE",
"725 -325 LINE",
"595 -112 OFFCURVE",
"463 -50 OFFCURVE",
"340 -50 CURVE SMOOTH",
"186 -50 OFFCURVE",
"96 -157 OFFCURVE",
"96 -272 CURVE SMOOTH",
"96 -336 OFFCURVE",
"125 -384 OFFCURVE",
"157 -425 CURVE",
"238 -443 LINE",
"248 -335 OFFCURVE",
"296 -295 OFFCURVE",
"335 -295 CURVE SMOOTH",
"369 -295 OFFCURVE",
"386 -326 OFFCURVE",
"386 -358 CURVE SMOOTH",
"386 -388 OFFCURVE",
"371 -411 OFFCURVE",
"362 -429 CURVE"
);
}
);
width = 921;
}
);
unicode = 1A4E;
},
{
glyphname = "ee-tham";
layers = (
{
layerId = "B90EB90F-4FA1-4BBD-888F-E38A605CBEB2";
paths = (
{
closed = 1;
nodes = (
"432 -452 OFFCURVE",
"506 -428 OFFCURVE",
"564 -377 CURVE",
"522 -262 LINE",
"486 -291 OFFCURVE",
"430 -326 OFFCURVE",
"361 -327 CURVE SMOOTH",
"252 -329 OFFCURVE",
"205 -256 OFFCURVE",
"205 -150 CURVE SMOOTH",
"205 218 LINE SMOOTH",
"205 349 OFFCURVE",
"253 421 OFFCURVE",
"341 421 CURVE SMOOTH",
"411 421 OFFCURVE",
"464 361 OFFCURVE",
"464 267 CURVE SMOOTH",
"464 179 OFFCURVE",
"421 115 OFFCURVE",
"348 115 CURVE SMOOTH",
"330 115 OFFCURVE",
"314 119 OFFCURVE",
"302 125 CURVE",
"262 10 LINE",
"305 -8 OFFCURVE",
"328 -10 OFFCURVE",
"352 -10 CURVE SMOOTH",
"499 -10 OFFCURVE",
"593 110 OFFCURVE",
"593 273 CURVE SMOOTH",
"593 431 OFFCURVE",
"492 546 OFFCURVE",
"348 546 CURVE SMOOTH",
"207 546 OFFCURVE",
"78 446 OFFCURVE",
"78 231 CURVE SMOOTH",
"78 -133 LINE SMOOTH",
"78 -377 OFFCURVE",
"214 -452 OFFCURVE",
"354 -452 CURVE SMOOTH"
);
}
);
width = 667;
},
{
layerId = "5a955c31-bd75-46b6-b903-8760881f133b";
paths = (
{
closed = 1;
nodes = (
"412 -452 OFFCURVE",
"464 -436 OFFCURVE",
"514 -400 CURVE",
"472 -338 LINE",
"433 -369 OFFCURVE",
"394 -380 OFFCURVE",
"348 -381 CURVE SMOOTH",
"228 -383 OFFCURVE",
"161 -295 OFFCURVE",
"161 -129 CURVE SMOOTH",
"161 192 LINE SMOOTH",
"161 369 OFFCURVE",
"226 473 OFFCURVE",
"336 473 CURVE SMOOTH",
"435 473 OFFCURVE",
"495 398 OFFCURVE",
"495 273 CURVE SMOOTH",
"495 142 OFFCURVE",
"436 61 OFFCURVE",
"340 61 CURVE SMOOTH",
"300 61 OFFCURVE",
"261 75 OFFCURVE",
"230 100 CURVE",
"204 33 LINE",
"245 5 OFFCURVE",
"294 -10 OFFCURVE",
"345 -10 CURVE SMOOTH",
"480 -10 OFFCURVE",
"573 105 OFFCURVE",
"573 273 CURVE SMOOTH",
"573 436 OFFCURVE",
"478 544 OFFCURVE",
"338 544 CURVE SMOOTH",
"185 544 OFFCURVE",
"85 414 OFFCURVE",
"85 212 CURVE SMOOTH",
"85 -91 LINE SMOOTH",
"85 -328 OFFCURVE",
"176 -452 OFFCURVE",
"349 -452 CURVE SMOOTH"
);
}
);
width = 653;
}
);
unicode = 1A51;
},
{
glyphname = "uu-tham";
layers = (
{
layerId = "5a955c31-bd75-46b6-b903-8760881f133b";
paths = (
{
closed = 1;
nodes = (
"386 -452 OFFCURVE",
"449 -435 OFFCURVE",
"498 -400 CURVE",
"456 -335 LINE",
"429 -356 OFFCURVE",
"382 -380 OFFCURVE",
"327 -381 CURVE SMOOTH",
"209 -383 OFFCURVE",
"161 -278 OFFCURVE",
"160 -124 CURVE SMOOTH",
"158 120 LINE",
"136 79 LINE",
"182 17 OFFCURVE",
"238 -10 OFFCURVE",
"304 -10 CURVE SMOOTH",
"441 -10 OFFCURVE",
"534 108 OFFCURVE",
"534 268 CURVE SMOOTH",
"534 426 OFFCURVE",
"441 544 OFFCURVE",
"298 544 CURVE SMOOTH",
"244 544 OFFCURVE",
"200 526 OFFCURVE",
"152 475 CURVE",
"163 456 LINE",
"165 704 LINE SMOOTH",
"166 826 OFFCURVE",
"224 932 OFFCURVE",
"355 930 CURVE SMOOTH",
"413 929 OFFCURVE",
"453 909 OFFCURVE",
"479 895 CURVE",
"520 961 LINE",
"473 987 OFFCURVE",
"417 1000 OFFCURVE",
"358 1000 CURVE SMOOTH",
"212 1000 OFFCURVE",
"88 912 OFFCURVE",
"87 636 CURVE SMOOTH",
"86 419 LINE",
"170 396 LINE",
"197 444 OFFCURVE",
"240 473 OFFCURVE",
"298 473 CURVE SMOOTH",
"395 473 OFFCURVE",
"456 382 OFFCURVE",
"456 268 CURVE SMOOTH",
"456 153 OFFCURVE",
"395 61 OFFCURVE",
"298 61 CURVE SMOOTH",
"234 61 OFFCURVE",
"188 99 OFFCURVE",
"163 157 CURVE",
"82 156 LINE",
"84 -86 LINE SMOOTH",
"86 -362 OFFCURVE",
"194 -452 OFFCURVE",
"328 -452 CURVE SMOOTH"
);
}
);
width = 629;
},
{
layerId = "B90EB90F-4FA1-4BBD-888F-E38A605CBEB2";
paths = (
{
closed = 1;
nodes = (
"469 -452 OFFCURVE",
"536 -433 OFFCURVE",
"592 -393 CURVE",
"550 -273 LINE",
"518 -298 OFFCURVE",
"467 -326 OFFCURVE",
"401 -327 CURVE SMOOTH",
"283 -329 OFFCURVE",
"211 -244 OFFCURVE",
"211 -124 CURVE SMOOTH",
"211 120 LINE",
"171 78 LINE",
"212 20 OFFCURVE",
"284 -10 OFFCURVE",
"364 -10 CURVE SMOOTH",
"521 -10 OFFCURVE",
"624 108 OFFCURVE",
"624 268 CURVE SMOOTH",
"624 426 OFFCURVE",
"521 544 OFFCURVE",
"364 544 CURVE SMOOTH",
"308 544 OFFCURVE",
"255 529 OFFCURVE",
"187 475 CURVE",
"216 456 LINE",
"216 708 LINE SMOOTH",
"216 826 OFFCURVE",
"292 904 OFFCURVE",
"427 901 CURVE SMOOTH",
"487 900 OFFCURVE",
"538 883 OFFCURVE",
"577 863 CURVE",
"619 983 LINE",
"551 1012 OFFCURVE",
"491 1025 OFFCURVE",
"426 1025 CURVE SMOOTH",
"256 1025 OFFCURVE",
"85 936 OFFCURVE",
"87 660 CURVE SMOOTH",
"89 385 LINE",
"212 350 LINE",
"254 396 OFFCURVE",
"292 419 OFFCURVE",
"350 419 CURVE SMOOTH",
"446 419 OFFCURVE",
"495 352 OFFCURVE",
"495 269 CURVE SMOOTH",
"495 176 OFFCURVE",
"434 115 OFFCURVE",
"349 115 CURVE SMOOTH",
"299 115 OFFCURVE",
"246 137 OFFCURVE",
"211 204 CURVE",
"84 203 LINE",
"84 -86 LINE SMOOTH",
"84 -362 OFFCURVE",
"240 -452 OFFCURVE",
"397 -452 CURVE SMOOTH"
);
}
);
width = 717;
}
);
unicode = 1A50;
},
{
glyphname = "signAa-tham";
layers = (
{
layerId = "5a955c31-bd75-46b6-b903-8760881f133b";
paths = (
{
closed = 1;
nodes = (
"397 -10 OFFCURVE",
"489 108 OFFCURVE",
"489 267 CURVE SMOOTH",
"489 425 OFFCURVE",
"397 544 OFFCURVE",
"254 544 CURVE SMOOTH",
"169 544 OFFCURVE",
"103 502 OFFCURVE",
"64 434 CURVE",
"131 395 LINE",
"156 442 OFFCURVE",
"198 474 OFFCURVE",
"254 474 CURVE SMOOTH",
"350 474 OFFCURVE",
"411 380 OFFCURVE",
"411 267 CURVE SMOOTH",
"411 152 OFFCURVE",
"350 61 OFFCURVE",
"254 61 CURVE SMOOTH",
"192 61 OFFCURVE",
"147 98 OFFCURVE",
"123 155 CURVE",
"52 128 LINE",
"86 44 OFFCURVE",
"157 -10 OFFCURVE",
"254 -10 CURVE SMOOTH"
);
}
);
width = 565;
},
{
layerId = "B90EB90F-4FA1-4BBD-888F-E38A605CBEB2";
paths = (
{
closed = 1;
nodes = (
"441 -10 OFFCURVE",
"542 110 OFFCURVE",
"542 269 CURVE SMOOTH",
"542 425 OFFCURVE",
"446 544 OFFCURVE",
"290 544 CURVE SMOOTH",
"180 544 OFFCURVE",
"108 486 OFFCURVE",
"62 396 CURVE",
"173 336 LINE",
"197 388 OFFCURVE",
"235 420 OFFCURVE",
"290 420 CURVE SMOOTH",
"368 420 OFFCURVE",
"415 355 OFFCURVE",
"415 267 CURVE SMOOTH",
"415 178 OFFCURVE",
"371 115 OFFCURVE",
"288 115 CURVE SMOOTH",
"224 115 OFFCURVE",
"187 153 OFFCURVE",
"170 210 CURVE",
"54 159 LINE",
"91 60 OFFCURVE",
"167 -10 OFFCURVE",
"286 -10 CURVE SMOOTH"
);
}
);
width = 610;
}
);
unicode = 1A63;
},
{
glyphname = "tallAa-tham";
layers = (
{
layerId = "5a955c31-bd75-46b6-b903-8760881f133b";
paths = (
{
closed = 1;
nodes = (
"174 0 LINE",
"174 655 LINE SMOOTH",
"174 766 OFFCURVE",
"153 844 OFFCURVE",
"114 902 CURVE SMOOTH",
"71 965 OFFCURVE",
"8 1000 OFFCURVE",
"-79 1000 CURVE SMOOTH",
"-214 1000 OFFCURVE",
"-305 913 OFFCURVE",
"-353 767 CURVE",
"-279 745 LINE",
"-243 863 OFFCURVE",
"-180 930 OFFCURVE",
"-83 930 CURVE SMOOTH",
"53 930 OFFCURVE",
"98 797 OFFCURVE",
"98 640 CURVE SMOOTH",
"98 0 LINE"
);
}
);
width = 252;
},
{
layerId = "B90EB90F-4FA1-4BBD-888F-E38A605CBEB2";
paths = (
{
closed = 1;
nodes = (
"213 0 LINE",
"213 665 LINE SMOOTH",
"213 789 OFFCURVE",
"188 863 OFFCURVE",
"150 915 CURVE SMOOTH",
"101 983 OFFCURVE",
"21 1025 OFFCURVE",
"-87 1025 CURVE SMOOTH",
"-238 1025 OFFCURVE",
"-351 939 OFFCURVE",
"-406 740 CURVE",
"-283 709 LINE",
"-250 831 OFFCURVE",
"-190 900 OFFCURVE",
"-84 900 CURVE SMOOTH",
"32 900 OFFCURVE",
"86 818 OFFCURVE",
"86 682 CURVE SMOOTH",
"86 0 LINE"
);
}
);
width = 271;
}
);
unicode = 1A64;
},
{
glyphname = "laTangLai-tham";
layers = (
{
layerId = "5a955c31-bd75-46b6-b903-8760881f133b";
paths = (
{
closed = 1;
nodes = (
"105 -202 LINE SMOOTH",
"105 -318 OFFCURVE",
"79 -384 OFFCURVE",
"33 -384 CURVE SMOOTH",
"7 -384 OFFCURVE",
"-15 -364 OFFCURVE",
"-43 -319 CURVE SMOOTH",
"-116 -203 LINE SMOOTH",
"-181 -100 OFFCURVE",
"-215 -70 OFFCURVE",
"-265 -70 CURVE SMOOTH",
"-345 -70 OFFCURVE",
"-402 -146 OFFCURVE",
"-402 -257 CURVE SMOOTH",
"-402 -370 OFFCURVE",
"-341 -452 OFFCURVE",
"-259 -452 CURVE SMOOTH",
"-221 -452 OFFCURVE",
"-187 -435 OFFCURVE",
"-161 -406 CURVE",
"-204 -356 LINE",
"-219 -374 OFFCURVE",
"-237 -383 OFFCURVE",
"-256 -383 CURVE SMOOTH",
"-301 -383 OFFCURVE",
"-329 -333 OFFCURVE",
"-329 -257 CURVE SMOOTH",
"-329 -183 OFFCURVE",
"-304 -138 OFFCURVE",
"-267 -138 CURVE SMOOTH",
"-245 -138 OFFCURVE",
"-230 -155 OFFCURVE",
"-197 -208 CURVE SMOOTH",
"-124 -325 LINE SMOOTH",
"-65 -419 OFFCURVE",
"-23 -452 OFFCURVE",
"39 -452 CURVE SMOOTH",
"82 -452 OFFCURVE",
"115 -435 OFFCURVE",
"138 -398 CURVE SMOOTH",
"165 -356 OFFCURVE",
"180 -282 OFFCURVE",
"180 -199 CURVE SMOOTH",
"180 534 LINE",
"105 534 LINE"
);
},
{
closed = 1;
nodes = (
"195 -317 OFFCURVE",
"104 -259 OFFCURVE",
"25 -217 CURVE",
"-7 -271 LINE",
"60 -308 OFFCURVE",
"145 -363 OFFCURVE",
"205 -454 CURVE",
"258 -409 LINE"
);
}
);
width = 293;
},
{
layerId = "B90EB90F-4FA1-4BBD-888F-E38A605CBEB2";
paths = (
{
closed = 1;
nodes = (
"92 -174 LINE SMOOTH",
"92 -288 OFFCURVE",
"85 -332 OFFCURVE",
"36 -332 CURVE SMOOTH",
"0 -332 OFFCURVE",
"-22 -308 OFFCURVE",
"-46 -270 CURVE SMOOTH",
"-119 -153 LINE SMOOTH",
"-168 -73 OFFCURVE",
"-200 -21 OFFCURVE",
"-279 -21 CURVE SMOOTH",
"-385 -21 OFFCURVE",
"-448 -121 OFFCURVE",
"-448 -242 CURVE SMOOTH",
"-448 -360 OFFCURVE",
"-379 -452 OFFCURVE",
"-281 -452 CURVE SMOOTH",
"-237 -452 OFFCURVE",
"-205 -434 OFFCURVE",
"-181 -406 CURVE",
"-224 -306 LINE",
"-238 -324 OFFCURVE",
"-256 -332 OFFCURVE",
"-271 -332 CURVE SMOOTH",
"-302 -332 OFFCURVE",
"-321 -299 OFFCURVE",
"-321 -242 CURVE SMOOTH",
"-321 -176 OFFCURVE",
"-302 -140 OFFCURVE",
"-277 -140 CURVE SMOOTH",
"-256 -140 OFFCURVE",
"-241 -166 OFFCURVE",
"-214 -208 CURVE SMOOTH",
"-142 -325 LINE SMOOTH",
"-94 -401 OFFCURVE",
"-42 -452 OFFCURVE",
"40 -452 CURVE SMOOTH",
"112 -452 OFFCURVE",
"162 -413 OFFCURVE",
"189 -360 CURVE SMOOTH",
"199 -341 OFFCURVE",
"219 -304 OFFCURVE",
"219 -199 CURVE SMOOTH",
"219 534 LINE",
"92 534 LINE"
);
},
{
closed = 1;
nodes = (
"221 -260 OFFCURVE",
"115 -175 OFFCURVE",
"24 -115 CURVE",
"-33 -212 LINE",
"42 -266 OFFCURVE",
"139 -345 OFFCURVE",
"206 -476 CURVE",
"294 -392 LINE"
);
}
);
width = 293;
}
);
unicode = 1A57;
},
{
glyphname = "signOy-tham";
layers = (
{
layerId = "5a955c31-bd75-46b6-b903-8760881f133b";
paths = (
{
closed = 1;
nodes = (
"39 -452 OFFCURVE",
"116 -391 OFFCURVE",
"151 -298 CURVE SMOOTH",
"165 -260 OFFCURVE",
"170 -216 OFFCURVE",
"170 -168 CURVE SMOOTH",
"170 774 LINE SMOOTH",
"170 875 OFFCURVE",
"218 932 OFFCURVE",
"296 932 CURVE SMOOTH",
"308 932 OFFCURVE",
"318 931 OFFCURVE",
"329 929 CURVE",
"344 997 LINE",
"331 1000 OFFCURVE",
"316 1000 OFFCURVE",
"300 1000 CURVE SMOOTH",
"244 1000 OFFCURVE",
"199 982 OFFCURVE",
"165 950 CURVE SMOOTH",
"120 908 OFFCURVE",
"95 842 OFFCURVE",
"95 758 CURVE SMOOTH",
"95 -155 LINE SMOOTH",
"95 -323 OFFCURVE",
"23 -380 OFFCURVE",
"-81 -380 CURVE SMOOTH",
"-144 -380 OFFCURVE",
"-199 -354 OFFCURVE",
"-199 -295 CURVE SMOOTH",
"-199 -254 OFFCURVE",
"-173 -227 OFFCURVE",
"-139 -206 CURVE",
"-180 -148 LINE",
"-232 -178 OFFCURVE",
"-277 -221 OFFCURVE",
"-277 -293 CURVE SMOOTH",
"-277 -393 OFFCURVE",
"-191 -452 OFFCURVE",
"-79 -452 CURVE SMOOTH"
);
}
);
width = 276;
},
{
layerId = "B90EB90F-4FA1-4BBD-888F-E38A605CBEB2";
paths = (
{
closed = 1;
nodes = (
"81 -453 OFFCURVE",
"186 -379 OFFCURVE",
"224 -264 CURVE SMOOTH",
"235 -230 OFFCURVE",
"239 -195 OFFCURVE",
"239 -156 CURVE SMOOTH",
"239 726 LINE SMOOTH",
"239 832 OFFCURVE",
"279 883 OFFCURVE",
"364 883 CURVE SMOOTH",
"382 883 OFFCURVE",
"395 882 OFFCURVE",
"412 880 CURVE",
"427 997 LINE",
"408 1000 OFFCURVE",
"386 1000 OFFCURVE",
"364 1000 CURVE SMOOTH",
"300 1000 OFFCURVE",
"251 985 OFFCURVE",
"211 955 CURVE SMOOTH",
"151 910 OFFCURVE",
"112 836 OFFCURVE",
"112 734 CURVE SMOOTH",
"112 -146 LINE SMOOTH",
"112 -280 OFFCURVE",
"31 -329 OFFCURVE",
"-50 -330 CURVE SMOOTH",
"-104 -330 OFFCURVE",
"-157 -308 OFFCURVE",
"-157 -259 CURVE SMOOTH",
"-157 -229 OFFCURVE",
"-137 -207 OFFCURVE",
"-117 -182 CURVE",
"-203 -117 LINE",
"-238 -155 OFFCURVE",
"-286 -198 OFFCURVE",
"-286 -274 CURVE SMOOTH",
"-286 -384 OFFCURVE",
"-184 -450 OFFCURVE",
"-55 -451 CURVE SMOOTH"
);
}
);
width = 334;
}
);
unicode = 1A6D;
},
{
glyphname = "signAi-tham";
layers = (
{
layerId = "B90EB90F-4FA1-4BBD-888F-E38A605CBEB2";
paths = (
{
closed = 1;
nodes = (
"259 806 OFFCURVE",
"342 687 OFFCURVE",
"393 580 CURVE SMOOTH",
"429 504 OFFCURVE",
"448 452 OFFCURVE",
"440 329 CURVE",
"555 371 LINE",
"545 471 OFFCURVE",
"528 566 OFFCURVE",
"485 667 CURVE SMOOTH",
"434 786 OFFCURVE",
"346 905 OFFCURVE",
"230 1015 CURVE",
"126 915 LINE"
);
},
{
closed = 1;
nodes = (
"448 209 LINE",
"432 154 OFFCURVE",
"391 115 OFFCURVE",
"331 115 CURVE SMOOTH",
"251 115 OFFCURVE",
"205 182 OFFCURVE",
"205 267 CURVE SMOOTH",
"205 351 OFFCURVE",
"251 420 OFFCURVE",
"331 420 CURVE SMOOTH",
"387 420 OFFCURVE",
"425 382 OFFCURVE",
"440 329 CURVE",
"555 371 LINE",
"510 464 OFFCURVE",
"431 544 OFFCURVE",
"324 544 CURVE SMOOTH",
"172 544 OFFCURVE",
"76 425 OFFCURVE",
"76 267 CURVE SMOOTH",
"76 108 OFFCURVE",
"172 -10 OFFCURVE",
"331 -10 CURVE SMOOTH",
"449 -10 OFFCURVE",
"532 59 OFFCURVE",
"564 161 CURVE"
);
}
);
width = 628;
},
{
layerId = "5a955c31-bd75-46b6-b903-8760881f133b";
paths = (
{
closed = 1;
nodes = (
"279 860 OFFCURVE",
"361 731 OFFCURVE",
"412 612 CURVE SMOOTH",
"455 512 OFFCURVE",
"466 441 OFFCURVE",
"472 353 CURVE",
"536 384 LINE",
"517 539 OFFCURVE",
"485 616 OFFCURVE",
"443 704 CURVE SMOOTH",
"382 832 OFFCURVE",
"299 948 OFFCURVE",
"233 1003 CURVE",
"182 950 LINE"
);
},
{
closed = 1;
nodes = (
"472 188 LINE",
"452 113 OFFCURVE",
"398 61 OFFCURVE",
"316 61 CURVE SMOOTH",
"219 61 OFFCURVE",
"159 152 OFFCURVE",
"159 267 CURVE SMOOTH",
"159 380 OFFCURVE",
"219 475 OFFCURVE",
"316 475 CURVE SMOOTH",
"398 475 OFFCURVE",
"447 422 OFFCURVE",
"472 353 CURVE",
"536 384 LINE",
"484 476 OFFCURVE",
"430 544 OFFCURVE",
"316 544 CURVE SMOOTH",
"173 544 OFFCURVE",
"81 425 OFFCURVE",
"81 267 CURVE SMOOTH",
"81 108 OFFCURVE",
"173 -10 OFFCURVE",
"316 -10 CURVE SMOOTH",
"433 -10 OFFCURVE",
"514 58 OFFCURVE",
"544 159 CURVE"
);
}
);
width = 613;
}
);
unicode = 1A71;
},
{
glyphname = "signA-tham";
layers = (
{
layerId = "5a955c31-bd75-46b6-b903-8760881f133b";
paths = (
{
closed = 1;
nodes = (
"417 319 OFFCURVE",
"423 348 OFFCURVE",
"423 379 CURVE SMOOTH",
"423 412 OFFCURVE",
"416 441 OFFCURVE",
"401 466 CURVE SMOOTH",
"371 517 OFFCURVE",
"312 546 OFFCURVE",
"244 546 CURVE SMOOTH",
"210 546 OFFCURVE",
"181 539 OFFCURVE",
"155 525 CURVE SMOOTH",
"104 498 OFFCURVE",
"73 448 OFFCURVE",
"73 397 CURVE SMOOTH",
"73 339 OFFCURVE",
"113 298 OFFCURVE",
"168 298 CURVE SMOOTH",
"222 298 OFFCURVE",
"263 338 OFFCURVE",
"263 388 CURVE SMOOTH",
"263 434 OFFCURVE",
"227 470 OFFCURVE",
"172 473 CURVE",
"173 460 LINE",
"184 470 OFFCURVE",
"213 483 OFFCURVE",
"247 483 CURVE SMOOTH",
"309 483 OFFCURVE",
"353 440 OFFCURVE",
"353 377 CURVE SMOOTH",
"353 357 OFFCURVE",
"349 336 OFFCURVE",
"341 319 CURVE",
"405 295 LINE"
);
},
{
closed = 1;
nodes = (
"417 12 OFFCURVE",
"423 40 OFFCURVE",
"423 71 CURVE SMOOTH",
"423 104 OFFCURVE",
"416 133 OFFCURVE",
"401 158 CURVE SMOOTH",
"371 209 OFFCURVE",
"312 238 OFFCURVE",
"244 238 CURVE SMOOTH",
"210 238 OFFCURVE",
"181 231 OFFCURVE",
"155 218 CURVE SMOOTH",
"104 190 OFFCURVE",
"73 141 OFFCURVE",
"73 89 CURVE SMOOTH",
"73 31 OFFCURVE",
"113 -10 OFFCURVE",
"167 -10 CURVE SMOOTH",
"222 -10 OFFCURVE",
"263 31 OFFCURVE",
"263 80 CURVE SMOOTH",
"263 126 OFFCURVE",
"227 163 OFFCURVE",
"172 165 CURVE",
"170 150 LINE",
"184 162 OFFCURVE",
"213 176 OFFCURVE",
"248 176 CURVE SMOOTH",
"309 176 OFFCURVE",
"353 133 OFFCURVE",
"353 70 CURVE SMOOTH",
"353 50 OFFCURVE",
"349 29 OFFCURVE",
"341 12 CURVE",
"405 -12 LINE"
);
},
{
closed = 1;
nodes = (
"152 350 OFFCURVE",
"137 366 OFFCURVE",
"137 386 CURVE SMOOTH",
"137 407 OFFCURVE",
"152 422 OFFCURVE",
"173 422 CURVE SMOOTH",
"193 422 OFFCURVE",
"209 407 OFFCURVE",
"209 386 CURVE SMOOTH",
"209 366 OFFCURVE",
"193 350 OFFCURVE",
"173 350 CURVE SMOOTH"
);
},
{
closed = 1;
nodes = (
"152 42 OFFCURVE",
"137 58 OFFCURVE",
"137 78 CURVE SMOOTH",
"137 99 OFFCURVE",
"152 115 OFFCURVE",
"173 115 CURVE SMOOTH",
"193 115 OFFCURVE",
"209 99 OFFCURVE",
"209 78 CURVE SMOOTH",
"209 58 OFFCURVE",
"193 42 OFFCURVE",
"173 42 CURVE SMOOTH"
);
}
);
width = 497;
},
{
layerId = "B90EB90F-4FA1-4BBD-888F-E38A605CBEB2";
paths = (
{
closed = 1;
nodes = (
"452 319 OFFCURVE",
"458 348 OFFCURVE",
"458 378 CURVE SMOOTH",
"458 412 OFFCURVE",
"451 441 OFFCURVE",
"434 467 CURVE SMOOTH",
"400 517 OFFCURVE",
"335 546 OFFCURVE",
"260 546 CURVE SMOOTH",
"222 546 OFFCURVE",
"184 538 OFFCURVE",
"154 523 CURVE SMOOTH",
"99 497 OFFCURVE",
"68 448 OFFCURVE",
"68 398 CURVE SMOOTH",
"68 339 OFFCURVE",
"112 298 OFFCURVE",
"173 298 CURVE SMOOTH",
"234 298 OFFCURVE",
"279 338 OFFCURVE",
"279 388 CURVE SMOOTH",
"279 434 OFFCURVE",
"241 470 OFFCURVE",
"181 467 CURVE",
"180 443 LINE",
"203 456 OFFCURVE",
"231 464 OFFCURVE",
"261 464 CURVE SMOOTH",
"322 464 OFFCURVE",
"366 429 OFFCURVE",
"366 377 CURVE SMOOTH",
"366 360 OFFCURVE",
"361 342 OFFCURVE",
"352 327 CURVE",
"438 295 LINE"
);
},
{
closed = 1;
nodes = (
"452 12 OFFCURVE",
"458 40 OFFCURVE",
"458 71 CURVE SMOOTH",
"458 104 OFFCURVE",
"451 133 OFFCURVE",
"434 159 CURVE SMOOTH",
"399 209 OFFCURVE",
"335 238 OFFCURVE",
"260 238 CURVE SMOOTH",
"222 238 OFFCURVE",
"184 230 OFFCURVE",
"154 216 CURVE SMOOTH",
"99 189 OFFCURVE",
"68 141 OFFCURVE",
"68 91 CURVE SMOOTH",
"68 31 OFFCURVE",
"112 -10 OFFCURVE",
"173 -10 CURVE SMOOTH",
"234 -10 OFFCURVE",
"279 31 OFFCURVE",
"279 81 CURVE SMOOTH",
"279 126 OFFCURVE",
"241 163 OFFCURVE",
"181 160 CURVE",
"180 135 LINE",
"203 148 OFFCURVE",
"231 156 OFFCURVE",
"261 156 CURVE SMOOTH",
"322 156 OFFCURVE",
"366 122 OFFCURVE",
"366 70 CURVE SMOOTH",
"366 53 OFFCURVE",
"361 34 OFFCURVE",
"352 19 CURVE",
"438 -12 LINE"
);
},
{
closed = 1;
nodes = (
"162 358 OFFCURVE",
"148 370 OFFCURVE",
"148 386 CURVE SMOOTH",
"148 402 OFFCURVE",
"162 414 OFFCURVE",
"179 414 CURVE SMOOTH",
"197 414 OFFCURVE",
"210 402 OFFCURVE",
"210 386 CURVE SMOOTH",
"210 370 OFFCURVE",
"197 358 OFFCURVE",
"180 358 CURVE SMOOTH"
);
},
{
closed = 1;
nodes = (
"162 51 OFFCURVE",
"148 62 OFFCURVE",
"148 79 CURVE SMOOTH",
"148 95 OFFCURVE",
"162 106 OFFCURVE",
"179 106 CURVE SMOOTH",
"197 106 OFFCURVE",
"210 95 OFFCURVE",
"210 79 CURVE SMOOTH",
"210 62 OFFCURVE",
"197 51 OFFCURVE",
"180 51 CURVE SMOOTH"
);
}
);
width = 527;
}
);
unicode = 1A61;
},
{
glyphname = "signOo-tham";
layers = (
{
layerId = "B90EB90F-4FA1-4BBD-888F-E38A605CBEB2";
paths = (
{
closed = 1;
nodes = (
"448 209 LINE",
"432 154 OFFCURVE",
"391 115 OFFCURVE",
"331 115 CURVE SMOOTH",
"251 115 OFFCURVE",
"205 182 OFFCURVE",
"205 267 CURVE SMOOTH",
"205 351 OFFCURVE",
"251 420 OFFCURVE",
"331 420 CURVE SMOOTH",
"390 420 OFFCURVE",
"430 382 OFFCURVE",
"446 329 CURVE",
"564 371 LINE",
"532 475 OFFCURVE",
"449 544 OFFCURVE",
"331 544 CURVE SMOOTH",
"172 544 OFFCURVE",
"76 425 OFFCURVE",
"76 267 CURVE SMOOTH",
"76 108 OFFCURVE",
"172 -10 OFFCURVE",
"331 -10 CURVE SMOOTH",
"449 -10 OFFCURVE",
"532 59 OFFCURVE",
"564 161 CURVE"
);
},
{
closed = 1;
nodes = (
"368 542 LINE",
"259 560 OFFCURVE",
"211 635 OFFCURVE",
"211 714 CURVE SMOOTH",
"211 810 OFFCURVE",
"284 876 OFFCURVE",
"369 876 CURVE SMOOTH",
"407 876 OFFCURVE",
"444 863 OFFCURVE",
"499 816 CURVE",
"568 921 LINE",
"504 977 OFFCURVE",
"439 1001 OFFCURVE",
"364 1001 CURVE SMOOTH",
"200 1001 OFFCURVE",
"82 886 OFFCURVE",
"82 735 CURVE SMOOTH",
"82 579 OFFCURVE",
"206 447 OFFCURVE",
"355 447 CURVE"
);
}
);
width = 632;
},
{
layerId = "5a955c31-bd75-46b6-b903-8760881f133b";
paths = (
{
closed = 1;
nodes = (
"480 188 LINE",
"460 113 OFFCURVE",
"407 61 OFFCURVE",
"325 61 CURVE SMOOTH",
"228 61 OFFCURVE",
"167 152 OFFCURVE",
"167 267 CURVE SMOOTH",
"167 380 OFFCURVE",
"228 475 OFFCURVE",
"325 475 CURVE SMOOTH",
"405 475 OFFCURVE",
"458 422 OFFCURVE",
"479 350 CURVE",
"553 376 LINE",
"521 477 OFFCURVE",
"441 544 OFFCURVE",
"325 544 CURVE SMOOTH",
"182 544 OFFCURVE",
"89 425 OFFCURVE",
"89 267 CURVE SMOOTH",
"89 108 OFFCURVE",
"182 -10 OFFCURVE",
"325 -10 CURVE SMOOTH",
"442 -10 OFFCURVE",
"522 58 OFFCURVE",
"553 159 CURVE"
);
},
{
closed = 1;
nodes = (
"325 544 LINE",
"244 544 OFFCURVE",
"159 623 OFFCURVE",
"159 735 CURVE SMOOTH",
"159 847 OFFCURVE",
"238 931 OFFCURVE",
"343 931 CURVE SMOOTH",
"409 931 OFFCURVE",
"471 895 OFFCURVE",
"514 844 CURVE",
"556 906 LINE",
"504 962 OFFCURVE",
"431 1001 OFFCURVE",
"344 1001 CURVE SMOOTH",
"199 1001 OFFCURVE",
"81 891 OFFCURVE",
"81 740 CURVE SMOOTH",
"81 596 OFFCURVE",
"185 487 OFFCURVE",
"322 487 CURVE"
);
}
);
width = 625;
}
);
unicode = 1A70;
},
{
glyphname = "kaLow-tham.blwf";
layers = (
{
layerId = "5a955c31-bd75-46b6-b903-8760881f133b";
paths = (
{
closed = 1;
nodes = (
"-180 -411 OFFCURVE",
"-142 -347 OFFCURVE",
"-142 -267 CURVE SMOOTH",
"-142 -163 OFFCURVE",
"-214 -78 OFFCURVE",
"-311 -78 CURVE SMOOTH",
"-408 -78 OFFCURVE",
"-481 -161 OFFCURVE",
"-481 -263 CURVE SMOOTH",
"-481 -342 OFFCURVE",
"-445 -415 OFFCURVE",
"-372 -450 CURVE",
"-342 -395 LINE",
"-386 -377 OFFCURVE",
"-414 -334 OFFCURVE",
"-414 -260 CURVE SMOOTH",
"-414 -185 OFFCURVE",
"-371 -141 OFFCURVE",
"-311 -141 CURVE SMOOTH",
"-250 -141 OFFCURVE",
"-208 -186 OFFCURVE",
"-208 -260 CURVE SMOOTH",
"-208 -336 OFFCURVE",
"-240 -378 OFFCURVE",
"-281 -396 CURVE",
"-250 -451 LINE"
);
}
);
width = 0;
},
{
layerId = "B90EB90F-4FA1-4BBD-888F-E38A605CBEB2";
paths = (
{
closed = 1;
nodes = (
"-175 -416 OFFCURVE",
"-125 -357 OFFCURVE",
"-125 -268 CURVE SMOOTH",
"-125 -158 OFFCURVE",
"-202 -76 OFFCURVE",
"-310 -76 CURVE SMOOTH",
"-419 -76 OFFCURVE",
"-497 -158 OFFCURVE",
"-497 -268 CURVE SMOOTH",
"-497 -354 OFFCURVE",
"-449 -417 OFFCURVE",
"-389 -452 CURVE",
"-337 -370 LINE",
"-374 -343 OFFCURVE",
"-395 -311 OFFCURVE",
"-395 -268 CURVE SMOOTH",
"-395 -216 OFFCURVE",
"-363 -173 OFFCURVE",
"-311 -173 CURVE SMOOTH",
"-258 -173 OFFCURVE",
"-228 -216 OFFCURVE",
"-228 -268 CURVE SMOOTH",
"-228 -310 OFFCURVE",
"-249 -343 OFFCURVE",
"-286 -370 CURVE",
"-234 -452 LINE"
);
}
);
width = 0;
}
);
},
{
glyphname = "signE-tham";
layers = (
{
layerId = "5a955c31-bd75-46b6-b903-8760881f133b";
paths = (
{
closed = 1;
nodes = (
"501 469 LINE",
"454 514 OFFCURVE",
"395 544 OFFCURVE",
"322 544 CURVE SMOOTH",
"175 544 OFFCURVE",
"78 425 OFFCURVE",
"78 267 CURVE SMOOTH",
"78 108 OFFCURVE",
"172 -10 OFFCURVE",
"316 -10 CURVE SMOOTH",
"389 -10 OFFCURVE",
"450 23 OFFCURVE",
"489 78 CURVE SMOOTH",
"523 125 OFFCURVE",
"535 184 OFFCURVE",
"518 214 CURVE SMOOTH",
"511 226 OFFCURVE",
"498 236 OFFCURVE",
"473 241 CURVE SMOOTH",
"433 250 OFFCURVE",
"388 242 OFFCURVE",
"348 218 CURVE SMOOTH",
"297 187 OFFCURVE",
"256 130 OFFCURVE",
"230 66 CURVE",
"297 47 LINE",
"310 84 OFFCURVE",
"331 120 OFFCURVE",
"360 147 CURVE SMOOTH",
"386 171 OFFCURVE",
"420 189 OFFCURVE",
"452 189 CURVE",
"458 141 OFFCURVE",
"400 55 OFFCURVE",
"313 55 CURVE SMOOTH",
"229 55 OFFCURVE",
"156 137 OFFCURVE",
"156 264 CURVE SMOOTH",
"156 380 OFFCURVE",
"220 474 OFFCURVE",
"326 474 CURVE SMOOTH",
"377 474 OFFCURVE",
"420 448 OFFCURVE",
"457 409 CURVE"
);
}
);
width = 590;
},
{
layerId = "B90EB90F-4FA1-4BBD-888F-E38A605CBEB2";
paths = (
{
closed = 1;
nodes = (
"523 456 LINE",
"490 498 OFFCURVE",
"422 544 OFFCURVE",
"327 544 CURVE SMOOTH",
"173 544 OFFCURVE",
"68 425 OFFCURVE",
"68 267 CURVE SMOOTH",
"68 108 OFFCURVE",
"169 -10 OFFCURVE",
"322 -10 CURVE SMOOTH",
"402 -10 OFFCURVE",
"466 23 OFFCURVE",
"506 73 CURVE SMOOTH",
"547 125 OFFCURVE",
"561 197 OFFCURVE",
"538 242 CURVE SMOOTH",
"532 254 OFFCURVE",
"521 269 OFFCURVE",
"493 277 CURVE SMOOTH",
"447 291 OFFCURVE",
"378 282 OFFCURVE",
"329 255 CURVE SMOOTH",
"274 225 OFFCURVE",
"235 167 OFFCURVE",
"217 82 CURVE",
"310 58 LINE",
"316 100 OFFCURVE",
"332 134 OFFCURVE",
"352 155 CURVE SMOOTH",
"368 173 OFFCURVE",
"394 189 OFFCURVE",
"437 191 CURVE",
"444 148 OFFCURVE",
"392 102 OFFCURVE",
"329 102 CURVE SMOOTH",
"256 102 OFFCURVE",
"195 166 OFFCURVE",
"195 263 CURVE SMOOTH",
"195 351 OFFCURVE",
"249 420 OFFCURVE",
"331 420 CURVE SMOOTH",
"378 420 OFFCURVE",
"422 396 OFFCURVE",
"456 355 CURVE"
);
}
);
width = 608;
}
);
unicode = 1A6E;
},
{
glyphname = "kaHigh-tham.blwf";
layers = (
{
layerId = "5a955c31-bd75-46b6-b903-8760881f133b";
paths = (
{
closed = 1;
nodes = (
"-562 -394 LINE",
"-608 -376 OFFCURVE",
"-625 -330 OFFCURVE",
"-625 -262 CURVE SMOOTH",
"-625 -185 OFFCURVE",
"-583 -139 OFFCURVE",
"-527 -139 CURVE SMOOTH",
"-470 -139 OFFCURVE",
"-428 -185 OFFCURVE",
"-428 -262 CURVE SMOOTH",
"-428 -330 OFFCURVE",
"-445 -376 OFFCURVE",
"-491 -394 CURVE",
"-465 -454 LINE",
"-390 -413 OFFCURVE",
"-361 -349 OFFCURVE",
"-361 -269 CURVE SMOOTH",
"-361 -254 OFFCURVE",
"-362 -240 OFFCURVE",
"-365 -227 CURVE",
"-360 -174 OFFCURVE",
"-330 -139 OFFCURVE",
"-286 -139 CURVE SMOOTH",
"-234 -139 OFFCURVE",
"-201 -184 OFFCURVE",
"-201 -261 CURVE SMOOTH",
"-201 -334 OFFCURVE",
"-233 -391 OFFCURVE",
"-292 -391 CURVE SMOOTH",
"-303 -391 OFFCURVE",
"-313 -389 OFFCURVE",
"-324 -385 CURVE",
"-357 -438 LINE",
"-335 -449 OFFCURVE",
"-312 -454 OFFCURVE",
"-291 -454 CURVE SMOOTH",
"-189 -454 OFFCURVE",
"-134 -369 OFFCURVE",
"-134 -260 CURVE SMOOTH",
"-134 -151 OFFCURVE",
"-193 -77 OFFCURVE",
"-283 -77 CURVE SMOOTH",
"-332 -77 OFFCURVE",
"-383 -103 OFFCURVE",
"-401 -141 CURVE",
"-438 -92 OFFCURVE",
"-475 -77 OFFCURVE",
"-527 -77 CURVE SMOOTH",
"-626 -77 OFFCURVE",
"-692 -159 OFFCURVE",
"-692 -264 CURVE SMOOTH",
"-692 -346 OFFCURVE",
"-664 -414 OFFCURVE",
"-589 -454 CURVE"
);
}
);
width = 0;
},
{
layerId = "B90EB90F-4FA1-4BBD-888F-E38A605CBEB2";
paths = (
{
closed = 1;
nodes = (
"-558 -361 LINE",
"-586 -340 OFFCURVE",
"-606 -312 OFFCURVE",
"-606 -264 CURVE SMOOTH",
"-606 -216 OFFCURVE",
"-581 -178 OFFCURVE",
"-535 -178 CURVE SMOOTH",
"-488 -178 OFFCURVE",
"-461 -216 OFFCURVE",
"-461 -264 CURVE SMOOTH",
"-461 -311 OFFCURVE",
"-481 -340 OFFCURVE",
"-510 -360 CURVE",
"-470 -451 LINE",
"-409 -417 OFFCURVE",
"-359 -353 OFFCURVE",
"-359 -264 CURVE SMOOTH",
"-359 -261 OFFCURVE",
"-359 -258 OFFCURVE",
"-359 -252 CURVE",
"-353 -203 OFFCURVE",
"-315 -178 OFFCURVE",
"-276 -178 CURVE SMOOTH",
"-228 -178 OFFCURVE",
"-203 -216 OFFCURVE",
"-203 -261 CURVE SMOOTH",
"-203 -310 OFFCURVE",
"-228 -348 OFFCURVE",
"-273 -348 CURVE SMOOTH",
"-283 -348 OFFCURVE",
"-292 -346 OFFCURVE",
"-305 -340 CURVE",
"-348 -429 LINE",
"-327 -443 OFFCURVE",
"-296 -452 OFFCURVE",
"-266 -452 CURVE SMOOTH",
"-163 -452 OFFCURVE",
"-98 -371 OFFCURVE",
"-98 -264 CURVE SMOOTH",
"-98 -155 OFFCURVE",
"-163 -76 OFFCURVE",
"-270 -76 CURVE SMOOTH",
"-327 -76 OFFCURVE",
"-370 -100 OFFCURVE",
"-395 -144 CURVE",
"-425 -101 OFFCURVE",
"-474 -75 OFFCURVE",
"-535 -75 CURVE SMOOTH",
"-644 -75 OFFCURVE",
"-711 -156 OFFCURVE",
"-711 -264 CURVE SMOOTH",
"-711 -354 OFFCURVE",
"-667 -421 OFFCURVE",
"-600 -452 CURVE"
);
}
);
width = 0;
}
);
},
{
glyphname = "khaHigh-tham.blwf";
layers = (
{
layerId = "5a955c31-bd75-46b6-b903-8760881f133b";
paths = (
{
closed = 1;
nodes = (
"-384 -207 LINE",
"-356 -170 OFFCURVE",
"-326 -148 OFFCURVE",
"-284 -148 CURVE SMOOTH",
"-235 -148 OFFCURVE",
"-203 -188 OFFCURVE",
"-203 -256 CURVE SMOOTH",
"-203 -331 OFFCURVE",
"-239 -386 OFFCURVE",
"-299 -386 CURVE SMOOTH",
"-337 -386 OFFCURVE",
"-357 -367 OFFCURVE",
"-357 -347 CURVE SMOOTH",
"-357 -326 OFFCURVE",
"-340 -307 OFFCURVE",
"-307 -307 CURVE SMOOTH",
"-249 -307 OFFCURVE",
"-197 -369 OFFCURVE",
"-165 -453 CURVE",
"-111 -429 LINE",
"-151 -324 OFFCURVE",
"-222 -253 OFFCURVE",
"-307 -253 CURVE SMOOTH",
"-369 -253 OFFCURVE",
"-418 -295 OFFCURVE",
"-418 -350 CURVE SMOOTH",
"-418 -406 OFFCURVE",
"-363 -441 OFFCURVE",
"-302 -441 CURVE SMOOTH",
"-205 -441 OFFCURVE",
"-136 -352 OFFCURVE",
"-136 -256 CURVE SMOOTH",
"-136 -159 OFFCURVE",
"-194 -86 OFFCURVE",
"-282 -86 CURVE SMOOTH",
"-340 -86 OFFCURVE",
"-385 -115 OFFCURVE",
"-418 -160 CURVE"
);
}
);
width = 0;
},
{
layerId = "B90EB90F-4FA1-4BBD-888F-E38A605CBEB2";
paths = (
{
closed = 1;
nodes = (
"-384 -213 LINE",
"-359 -183 OFFCURVE",
"-329 -162 OFFCURVE",
"-292 -162 CURVE SMOOTH",
"-247 -162 OFFCURVE",
"-208 -193 OFFCURVE",
"-208 -259 CURVE SMOOTH",
"-208 -322 OFFCURVE",
"-242 -375 OFFCURVE",
"-298 -375 CURVE SMOOTH",
"-327 -375 OFFCURVE",
"-342 -361 OFFCURVE",
"-342 -343 CURVE SMOOTH",
"-342 -327 OFFCURVE",
"-330 -316 OFFCURVE",
"-306 -316 CURVE SMOOTH",
"-249 -316 OFFCURVE",
"-197 -379 OFFCURVE",
"-165 -467 CURVE",
"-96 -437 LINE",
"-140 -317 OFFCURVE",
"-216 -237 OFFCURVE",
"-306 -237 CURVE SMOOTH",
"-374 -237 OFFCURVE",
"-427 -284 OFFCURVE",
"-427 -346 CURVE SMOOTH",
"-427 -412 OFFCURVE",
"-368 -454 OFFCURVE",
"-304 -454 CURVE SMOOTH",
"-201 -454 OFFCURVE",
"-126 -346 OFFCURVE",
"-126 -247 CURVE SMOOTH",
"-126 -153 OFFCURVE",
"-194 -80 OFFCURVE",
"-291 -80 CURVE SMOOTH",
"-353 -80 OFFCURVE",
"-404 -110 OFFCURVE",
"-435 -149 CURVE"
);
}
);
width = 0;
}
);
},
{
glyphname = "signThamAi-tham";
layers = (
{
layerId = "5a955c31-bd75-46b6-b903-8760881f133b";
paths = (
{
closed = 1;
nodes = (
"433 -10 OFFCURVE",
"514 58 OFFCURVE",
"544 159 CURVE",
"472 188 LINE",
"452 113 OFFCURVE",
"398 61 OFFCURVE",
"316 61 CURVE SMOOTH",
"219 61 OFFCURVE",
"159 152 OFFCURVE",
"159 267 CURVE SMOOTH",
"159 380 OFFCURVE",
"219 475 OFFCURVE",
"316 475 CURVE SMOOTH",
"396 475 OFFCURVE",
"450 424 OFFCURVE",
"469 355 CURVE",
"525 383 LINE",
"481 484 OFFCURVE",
"425 544 OFFCURVE",
"316 544 CURVE SMOOTH",
"173 544 OFFCURVE",
"81 425 OFFCURVE",
"81 267 CURVE SMOOTH",
"81 108 OFFCURVE",
"173 -10 OFFCURVE",
"316 -10 CURVE SMOOTH"
);
},
{
closed = 1;
nodes = (
"525 383 LINE",
"525 661 LINE SMOOTH",
"525 912 OFFCURVE",
"408 1001 OFFCURVE",
"267 1001 CURVE SMOOTH",
"208 1001 OFFCURVE",
"147 986 OFFCURVE",
"99 959 CURVE",
"137 888 LINE",
"167 907 OFFCURVE",
"212 930 OFFCURVE",
"269 931 CURVE SMOOTH",
"395 933 OFFCURVE",
"450 826 OFFCURVE",
"450 684 CURVE SMOOTH",
"450 416 LINE"
);
}
);
width = 623;
},
{
layerId = "B90EB90F-4FA1-4BBD-888F-E38A605CBEB2";
paths = (
{
closed = 1;
nodes = (
"455 -10 OFFCURVE",
"539 59 OFFCURVE",
"571 161 CURVE",
"455 209 LINE",
"439 153 OFFCURVE",
"399 115 OFFCURVE",
"337 115 CURVE SMOOTH",
"260 115 OFFCURVE",
"212 182 OFFCURVE",
"212 267 CURVE SMOOTH",
"212 351 OFFCURVE",
"260 420 OFFCURVE",
"337 420 CURVE SMOOTH",
"399 420 OFFCURVE",
"440 381 OFFCURVE",
"455 327 CURVE",
"553 383 LINE",
"506 484 OFFCURVE",
"447 544 OFFCURVE",
"332 544 CURVE SMOOTH",
"180 544 OFFCURVE",
"83 425 OFFCURVE",
"83 267 CURVE SMOOTH",
"83 108 OFFCURVE",
"180 -10 OFFCURVE",
"332 -10 CURVE SMOOTH"
);
},
{
closed = 1;
nodes = (
"553 383 LINE",
"553 660 LINE SMOOTH",
"553 936 OFFCURVE",
"422 1025 OFFCURVE",
"267 1025 CURVE SMOOTH",
"198 1025 OFFCURVE",
"131 1006 OFFCURVE",
"76 966 CURVE",
"117 847 LINE",
"149 872 OFFCURVE",
"201 900 OFFCURVE",
"263 901 CURVE SMOOTH",
"377 903 OFFCURVE",
"426 817 OFFCURVE",
"426 698 CURVE SMOOTH",
"426 411 LINE"
);
}
);
width = 645;
}
);
unicode = 1A72;
},
{
glyphname = "caHigh-tham.blwf";
layers = (
{
layerId = "5a955c31-bd75-46b6-b903-8760881f133b";
paths = (
{
closed = 1;
nodes = (
"-213 -452 OFFCURVE",
"-142 -373 OFFCURVE",
"-142 -260 CURVE SMOOTH",
"-142 -149 OFFCURVE",
"-214 -76 OFFCURVE",
"-329 -76 CURVE SMOOTH",
"-415 -76 OFFCURVE",
"-486 -114 OFFCURVE",
"-486 -182 CURVE SMOOTH",
"-486 -217 OFFCURVE",
"-468 -245 OFFCURVE",
"-434 -261 CURVE",
"-465 -282 OFFCURVE",
"-486 -311 OFFCURVE",
"-486 -348 CURVE SMOOTH",
"-486 -411 OFFCURVE",
"-427 -452 OFFCURVE",
"-337 -452 CURVE SMOOTH"
);
},
{
closed = 1;
nodes = (
"-386 -389 OFFCURVE",
"-419 -375 OFFCURVE",
"-419 -343 CURVE SMOOTH",
"-419 -310 OFFCURVE",
"-384 -289 OFFCURVE",
"-324 -284 CURVE",
"-324 -238 LINE",
"-384 -231 OFFCURVE",
"-419 -213 OFFCURVE",
"-419 -184 CURVE SMOOTH",
"-419 -155 OFFCURVE",
"-385 -138 OFFCURVE",
"-335 -138 CURVE SMOOTH",
"-253 -138 OFFCURVE",
"-208 -183 OFFCURVE",
"-208 -260 CURVE SMOOTH",
"-208 -333 OFFCURVE",
"-251 -389 OFFCURVE",
"-341 -389 CURVE SMOOTH"
);
}
);
width = 0;
},
{
layerId = "B90EB90F-4FA1-4BBD-888F-E38A605CBEB2";
paths = (
{
closed = 1;
nodes = (
"-207 -452 OFFCURVE",
"-129 -373 OFFCURVE",
"-129 -260 CURVE SMOOTH",
"-129 -149 OFFCURVE",
"-208 -76 OFFCURVE",
"-327 -76 CURVE SMOOTH",
"-421 -76 OFFCURVE",
"-499 -119 OFFCURVE",
"-499 -190 CURVE SMOOTH",
"-499 -226 OFFCURVE",
"-479 -248 OFFCURVE",
"-442 -261 CURVE",
"-476 -278 OFFCURVE",
"-499 -302 OFFCURVE",
"-499 -341 CURVE SMOOTH",
"-499 -406 OFFCURVE",
"-435 -452 OFFCURVE",
"-333 -452 CURVE SMOOTH"
);
},
{
closed = 1;
nodes = (
"-369 -359 OFFCURVE",
"-396 -350 OFFCURVE",
"-396 -327 CURVE SMOOTH",
"-396 -304 OFFCURVE",
"-370 -290 OFFCURVE",
"-324 -287 CURVE",
"-322 -233 LINE",
"-368 -229 OFFCURVE",
"-395 -219 OFFCURVE",
"-395 -199 CURVE SMOOTH",
"-395 -180 OFFCURVE",
"-370 -168 OFFCURVE",
"-333 -168 CURVE SMOOTH",
"-268 -168 OFFCURVE",
"-232 -202 OFFCURVE",
"-232 -260 CURVE SMOOTH",
"-232 -316 OFFCURVE",
"-265 -359 OFFCURVE",
"-336 -359 CURVE SMOOTH"
);
}
);
width = 0;
}
);
},
{
glyphname = "nga-tham.blwf";
layers = (
{
layerId = "5a955c31-bd75-46b6-b903-8760881f133b";
paths = (
{
closed = 1;
nodes = (
"-97 -429 LINE",
"-95 -370 OFFCURVE",
"-100 -329 OFFCURVE",
"-110 -293 CURVE SMOOTH",
"-146 -162 OFFCURVE",
"-247 -89 OFFCURVE",
"-350 -89 CURVE SMOOTH",
"-467 -89 OFFCURVE",
"-552 -180 OFFCURVE",
"-552 -280 CURVE SMOOTH",
"-552 -346 OFFCURVE",
"-518 -387 OFFCURVE",
"-500 -407 CURVE",
"-437 -420 LINE",
"-393 -333 OFFCURVE",
"-367 -316 OFFCURVE",
"-343 -316 CURVE SMOOTH",
"-320 -316 OFFCURVE",
"-303 -333 OFFCURVE",
"-303 -354 CURVE SMOOTH",
"-303 -375 OFFCURVE",
"-319 -398 OFFCURVE",
"-329 -413 CURVE",
"-273 -433 LINE",
"-249 -402 OFFCURVE",
"-240 -372 OFFCURVE",
"-240 -346 CURVE SMOOTH",
"-240 -298 OFFCURVE",
"-274 -255 OFFCURVE",
"-337 -255 CURVE SMOOTH",
"-384 -255 OFFCURVE",
"-420 -279 OFFCURVE",
"-471 -362 CURVE",
"-452 -346 LINE",
"-467 -345 OFFCURVE",
"-482 -316 OFFCURVE",
"-482 -280 CURVE SMOOTH",
"-482 -218 OFFCURVE",
"-429 -160 OFFCURVE",
"-351 -160 CURVE SMOOTH",
"-261 -160 OFFCURVE",
"-169 -241 OFFCURVE",
"-169 -398 CURVE SMOOTH",
"-169 -455 LINE"
);
}
);
width = 0;
},
{
layerId = "B90EB90F-4FA1-4BBD-888F-E38A605CBEB2";
paths = (
{
closed = 1;
nodes = (
"-98 -430 LINE",
"-93 -373 OFFCURVE",
"-99 -317 OFFCURVE",
"-106 -283 CURVE SMOOTH",
"-132 -155 OFFCURVE",
"-243 -88 OFFCURVE",
"-355 -88 CURVE SMOOTH",
"-485 -88 OFFCURVE",
"-577 -180 OFFCURVE",
"-577 -295 CURVE SMOOTH",
"-577 -333 OFFCURVE",
"-567 -380 OFFCURVE",
"-562 -395 CURVE",
"-442 -419 LINE",
"-430 -355 OFFCURVE",
"-400 -334 OFFCURVE",
"-377 -334 CURVE SMOOTH",
"-357 -334 OFFCURVE",
"-350 -351 OFFCURVE",
"-350 -367 CURVE SMOOTH",
"-350 -380 OFFCURVE",
"-355 -393 OFFCURVE",
"-364 -405 CURVE",
"-281 -434 LINE",
"-262 -405 OFFCURVE",
"-253 -373 OFFCURVE",
"-253 -349 CURVE SMOOTH",
"-253 -293 OFFCURVE",
"-300 -246 OFFCURVE",
"-364 -246 CURVE SMOOTH",
"-402 -246 OFFCURVE",
"-464 -262 OFFCURVE",
"-488 -345 CURVE",
"-473 -331 LINE",
"-475 -325 OFFCURVE",
"-476 -316 OFFCURVE",
"-476 -308 CURVE SMOOTH",
"-476 -253 OFFCURVE",
"-429 -187 OFFCURVE",
"-347 -187 CURVE SMOOTH",
"-263 -187 OFFCURVE",
"-186 -255 OFFCURVE",
"-198 -414 CURVE SMOOTH",
"-201 -454 LINE"
);
}
);
width = 0;
}
);
},
{
glyphname = "chaLow-tham.blwf";
layers = (
{
components = (
{
name = "caHigh-tham.blwf";
transform = "{1, 0, 0, 1, 10, 0}";
}
);
layerId = "5a955c31-bd75-46b6-b903-8760881f133b";
paths = (
{
closed = 1;
nodes = (
"55 -452 OFFCURVE",
"133 -409 OFFCURVE",
"152 -312 CURVE SMOOTH",
"157 -287 OFFCURVE",
"159 -257 OFFCURVE",
"159 -230 CURVE SMOOTH",
"159 534 LINE",
"83 534 LINE",
"83 -235 LINE SMOOTH",
"83 -327 OFFCURVE",
"44 -381 OFFCURVE",
"-24 -381 CURVE SMOOTH",
"-84 -381 OFFCURVE",
"-132 -338 OFFCURVE",
"-132 -260 CURVE",
"-172 -298 LINE",
"-172 -352 LINE",
"-134 -434 OFFCURVE",
"-67 -452 OFFCURVE",
"-20 -452 CURVE SMOOTH"
);
}
);
width = 232;
},
{
components = (
{
name = "caHigh-tham.blwf";
}
);
layerId = "B90EB90F-4FA1-4BBD-888F-E38A605CBEB2";
paths = (
{
closed = 1;
nodes = (
"63 -452 OFFCURVE",
"152 -409 OFFCURVE",
"172 -312 CURVE SMOOTH",
"177 -287 OFFCURVE",
"178 -257 OFFCURVE",
"178 -230 CURVE SMOOTH",
"178 534 LINE",
"51 534 LINE",
"51 -235 LINE SMOOTH",
"51 -293 OFFCURVE",
"16 -332 OFFCURVE",
"-39 -332 CURVE SMOOTH",
"-83 -332 OFFCURVE",
"-130 -307 OFFCURVE",
"-130 -260 CURVE",
"-172 -298 LINE",
"-183 -365 LINE",
"-142 -437 OFFCURVE",
"-70 -452 OFFCURVE",
"-20 -452 CURVE SMOOTH"
);
}
);
width = 232;
}
);
},
{
glyphname = "caLow-tham.blwf";
layers = (
{
layerId = "5a955c31-bd75-46b6-b903-8760881f133b";
paths = (
{
closed = 1;
nodes = (
"-301 -394 LINE",
"-349 -376 OFFCURVE",
"-362 -322 OFFCURVE",
"-362 -267 CURVE SMOOTH",
"-362 -176 OFFCURVE",
"-331 -138 OFFCURVE",
"-261 -138 CURVE SMOOTH",
"-210 -138 OFFCURVE",
"-179 -160 OFFCURVE",
"-179 -186 CURVE SMOOTH",
"-179 -212 OFFCURVE",
"-214 -230 OFFCURVE",
"-273 -236 CURVE",
"-273 -283 LINE",
"-210 -288 OFFCURVE",
"-179 -305 OFFCURVE",
"-179 -339 CURVE SMOOTH",
"-179 -367 OFFCURVE",
"-198 -388 OFFCURVE",
"-248 -392 CURVE",
"-229 -450 LINE",
"-162 -446 OFFCURVE",
"-112 -396 OFFCURVE",
"-112 -340 CURVE SMOOTH",
"-112 -309 OFFCURVE",
"-128 -280 OFFCURVE",
"-167 -259 CURVE",
"-132 -242 OFFCURVE",
"-112 -215 OFFCURVE",
"-112 -182 CURVE SMOOTH",
"-112 -121 OFFCURVE",
"-179 -76 OFFCURVE",
"-259 -76 CURVE SMOOTH",
"-366 -76 OFFCURVE",
"-429 -155 OFFCURVE",
"-429 -265 CURVE SMOOTH",
"-429 -346 OFFCURVE",
"-400 -418 OFFCURVE",
"-326 -452 CURVE"
);
}
);
width = 0;
},
{
layerId = "B90EB90F-4FA1-4BBD-888F-E38A605CBEB2";
paths = (
{
closed = 1;
nodes = (
"-305 -361 LINE",
"-340 -348 OFFCURVE",
"-350 -308 OFFCURVE",
"-350 -267 CURVE SMOOTH",
"-350 -198 OFFCURVE",
"-322 -168 OFFCURVE",
"-260 -168 CURVE SMOOTH",
"-217 -168 OFFCURVE",
"-192 -181 OFFCURVE",
"-192 -195 CURVE SMOOTH",
"-192 -214 OFFCURVE",
"-222 -227 OFFCURVE",
"-274 -231 CURVE",
"-274 -288 LINE",
"-219 -291 OFFCURVE",
"-191 -304 OFFCURVE",
"-191 -328 CURVE SMOOTH",
"-191 -346 OFFCURVE",
"-207 -357 OFFCURVE",
"-245 -359 CURVE",
"-225 -450 LINE",
"-149 -445 OFFCURVE",
"-94 -392 OFFCURVE",
"-94 -334 CURVE SMOOTH",
"-94 -303 OFFCURVE",
"-110 -278 OFFCURVE",
"-150 -259 CURVE",
"-114 -244 OFFCURVE",
"-94 -221 OFFCURVE",
"-94 -188 CURVE SMOOTH",
"-94 -125 OFFCURVE",
"-168 -76 OFFCURVE",
"-258 -76 CURVE SMOOTH",
"-377 -76 OFFCURVE",
"-448 -155 OFFCURVE",
"-448 -268 CURVE SMOOTH",
"-448 -346 OFFCURVE",
"-415 -418 OFFCURVE",
"-333 -452 CURVE"
);
}
);
width = 0;
}
);
},
{
glyphname = "chaHigh-tham.blwf";
layers = (
{
layerId = "5a955c31-bd75-46b6-b903-8760881f133b";
paths = (
{
closed = 1;
nodes = (
"-377 -81 LINE",
"-361 -117 OFFCURVE",
"-331 -155 OFFCURVE",
"-299 -175 CURVE SMOOTH",
"-276 -190 OFFCURVE",
"-240 -204 OFFCURVE",
"-222 -210 CURVE SMOOTH",
"-166 -227 OFFCURVE",
"-138 -254 OFFCURVE",
"-138 -301 CURVE SMOOTH",
"-138 -359 OFFCURVE",
"-179 -390 OFFCURVE",
"-226 -390 CURVE SMOOTH",
"-268 -390 OFFCURVE",
"-317 -365 OFFCURVE",
"-322 -287 CURVE",
"-357 -372 LINE",
"-342 -414 OFFCURVE",
"-298 -452 OFFCURVE",
"-228 -452 CURVE SMOOTH",
"-144 -452 OFFCURVE",
"-71 -395 OFFCURVE",
"-71 -302 CURVE SMOOTH",
"-71 -222 OFFCURVE",
"-125 -174 OFFCURVE",
"-203 -151 CURVE SMOOTH",
"-227 -144 OFFCURVE",
"-258 -132 OFFCURVE",
"-282 -109 CURVE SMOOTH",
"-296 -95 OFFCURVE",
"-306 -79 OFFCURVE",
"-315 -55 CURVE"
);
},
{
closed = 1;
nodes = (
"-377 -452 OFFCURVE",
"-322 -381 OFFCURVE",
"-322 -287 CURVE SMOOTH",
"-322 -193 OFFCURVE",
"-377 -122 OFFCURVE",
"-463 -122 CURVE SMOOTH",
"-513 -122 OFFCURVE",
"-552 -147 OFFCURVE",
"-580 -183 CURVE",
"-541 -227 LINE",
"-521 -202 OFFCURVE",
"-496 -183 OFFCURVE",
"-465 -183 CURVE SMOOTH",
"-417 -183 OFFCURVE",
"-387 -230 OFFCURVE",
"-387 -287 CURVE SMOOTH",
"-387 -344 OFFCURVE",
"-417 -390 OFFCURVE",
"-466 -390 CURVE SMOOTH",
"-500 -390 OFFCURVE",
"-526 -368 OFFCURVE",
"-541 -333 CURVE",
"-587 -375 LINE",
"-562 -419 OFFCURVE",
"-520 -452 OFFCURVE",
"-463 -452 CURVE SMOOTH"
);
}
);
width = 0;
},
{
layerId = "B90EB90F-4FA1-4BBD-888F-E38A605CBEB2";
paths = (
{
closed = 1;
nodes = (
"-395 -85 LINE",
"-384 -130 OFFCURVE",
"-344 -157 OFFCURVE",
"-298 -174 CURVE SMOOTH",
"-268 -186 OFFCURVE",
"-245 -191 OFFCURVE",
"-218 -205 CURVE SMOOTH",
"-185 -222 OFFCURVE",
"-160 -245 OFFCURVE",
"-160 -284 CURVE SMOOTH",
"-160 -326 OFFCURVE",
"-190 -354 OFFCURVE",
"-234 -354 CURVE SMOOTH",
"-267 -354 OFFCURVE",
"-316 -338 OFFCURVE",
"-321 -288 CURVE",
"-362 -381 LINE",
"-343 -414 OFFCURVE",
"-296 -452 OFFCURVE",
"-223 -452 CURVE SMOOTH",
"-134 -452 OFFCURVE",
"-58 -395 OFFCURVE",
"-58 -289 CURVE SMOOTH",
"-58 -204 OFFCURVE",
"-102 -154 OFFCURVE",
"-172 -125 CURVE SMOOTH",
"-207 -111 OFFCURVE",
"-229 -109 OFFCURVE",
"-255 -93 CURVE SMOOTH",
"-273 -82 OFFCURVE",
"-284 -70 OFFCURVE",
"-296 -51 CURVE"
);
},
{
closed = 1;
nodes = (
"-387 -452 OFFCURVE",
"-321 -382 OFFCURVE",
"-321 -288 CURVE SMOOTH",
"-321 -193 OFFCURVE",
"-380 -122 OFFCURVE",
"-476 -122 CURVE SMOOTH",
"-540 -122 OFFCURVE",
"-580 -155 OFFCURVE",
"-607 -188 CURVE",
"-547 -250 LINE",
"-532 -230 OFFCURVE",
"-511 -214 OFFCURVE",
"-480 -214 CURVE SMOOTH",
"-437 -214 OFFCURVE",
"-412 -247 OFFCURVE",
"-412 -288 CURVE SMOOTH",
"-412 -331 OFFCURVE",
"-437 -365 OFFCURVE",
"-481 -365 CURVE SMOOTH",
"-517 -365 OFFCURVE",
"-537 -343 OFFCURVE",
"-553 -318 CURVE",
"-614 -377 LINE",
"-594 -416 OFFCURVE",
"-547 -452 OFFCURVE",
"-480 -452 CURVE SMOOTH"
);
}
);
width = 0;
}
);
},
{
glyphname = "da-tham.blwf";
layers = (
{
layerId = "5a955c31-bd75-46b6-b903-8760881f133b";
paths = (
{
closed = 1;
nodes = (
"-161 -438 LINE",
"-191 -389 OFFCURVE",
"-228 -345 OFFCURVE",
"-286 -333 CURVE",
"-233 -311 OFFCURVE",
"-199 -259 OFFCURVE",
"-199 -206 CURVE SMOOTH",
"-199 -134 OFFCURVE",
"-251 -77 OFFCURVE",
"-328 -77 CURVE SMOOTH",
"-382 -77 OFFCURVE",
"-425 -103 OFFCURVE",
"-454 -142 CURVE",
"-420 -192 LINE",
"-396 -159 OFFCURVE",
"-365 -139 OFFCURVE",
"-333 -139 CURVE SMOOTH",
"-294 -139 OFFCURVE",
"-266 -167 OFFCURVE",
"-266 -208 CURVE SMOOTH",
"-266 -274 OFFCURVE",
"-333 -314 OFFCURVE",
"-452 -336 CURVE",
"-440 -397 LINE",
"-400 -387 OFFCURVE",
"-374 -381 OFFCURVE",
"-344 -381 CURVE SMOOTH",
"-291 -381 OFFCURVE",
"-248 -412 OFFCURVE",
"-212 -472 CURVE"
);
}
);
width = 0;
},
{
layerId = "B90EB90F-4FA1-4BBD-888F-E38A605CBEB2";
paths = (
{
closed = 1;
nodes = (
"-153 -434 LINE",
"-180 -390 OFFCURVE",
"-214 -350 OFFCURVE",
"-267 -339 CURVE",
"-217 -317 OFFCURVE",
"-185 -274 OFFCURVE",
"-185 -217 CURVE SMOOTH",
"-185 -137 OFFCURVE",
"-245 -76 OFFCURVE",
"-334 -76 CURVE SMOOTH",
"-393 -76 OFFCURVE",
"-442 -102 OFFCURVE",
"-474 -141 CURVE",
"-425 -216 LINE",
"-402 -186 OFFCURVE",
"-372 -167 OFFCURVE",
"-342 -167 CURVE SMOOTH",
"-311 -167 OFFCURVE",
"-286 -187 OFFCURVE",
"-286 -220 CURVE SMOOTH",
"-286 -273 OFFCURVE",
"-349 -307 OFFCURVE",
"-462 -326 CURVE",
"-449 -420 LINE",
"-408 -409 OFFCURVE",
"-377 -401 OFFCURVE",
"-350 -401 CURVE SMOOTH",
"-299 -401 OFFCURVE",
"-266 -431 OFFCURVE",
"-234 -488 CURVE"
);
}
);
width = 0;
}
);
},
{
glyphname = "khaLow-tham.blwf";
layers = (
{
layerId = "5a955c31-bd75-46b6-b903-8760881f133b";
paths = (
{
closed = 1;
nodes = (
"83 -250 LINE SMOOTH",
"83 -342 OFFCURVE",
"51 -381 OFFCURVE",
"1 -381 CURVE SMOOTH",
"-41 -381 OFFCURVE",
"-68 -348 OFFCURVE",
"-68 -306 CURVE SMOOTH",
"-68 -273 OFFCURVE",
"-74 -172 OFFCURVE",
"-164 -65 CURVE",
"-215 -116 LINE",
"-162 -174 OFFCURVE",
"-135 -250 OFFCURVE",
"-135 -309 CURVE SMOOTH",
"-135 -365 OFFCURVE",
"-167 -383 OFFCURVE",
"-191 -383 CURVE SMOOTH",
"-216 -383 OFFCURVE",
"-236 -363 OFFCURVE",
"-236 -322 CURVE",
"-290 -299 LINE",
"-302 -347 OFFCURVE",
"-329 -383 OFFCURVE",
"-408 -383 CURVE SMOOTH",
"-453 -383 OFFCURVE",
"-481 -370 OFFCURVE",
"-481 -347 CURVE SMOOTH",
"-481 -322 OFFCURVE",
"-448 -305 OFFCURVE",
"-391 -292 CURVE SMOOTH",
"-295 -270 OFFCURVE",
"-237 -226 OFFCURVE",
"-237 -164 CURVE SMOOTH",
"-237 -121 OFFCURVE",
"-263 -62 OFFCURVE",
"-333 -62 CURVE SMOOTH",
"-362 -62 OFFCURVE",
"-388 -72 OFFCURVE",
"-403 -104 CURVE",
"-415 -78 OFFCURVE",
"-436 -61 OFFCURVE",
"-471 -61 CURVE SMOOTH",
"-523 -61 OFFCURVE",
"-566 -100 OFFCURVE",
"-566 -149 CURVE SMOOTH",
"-566 -175 OFFCURVE",
"-554 -206 OFFCURVE",
"-528 -229 CURVE",
"-471 -203 LINE",
"-488 -185 OFFCURVE",
"-500 -171 OFFCURVE",
"-500 -155 CURVE SMOOTH",
"-500 -136 OFFCURVE",
"-484 -125 OFFCURVE",
"-461 -125 CURVE SMOOTH",
"-441 -125 OFFCURVE",
"-429 -134 OFFCURVE",
"-428 -167 CURVE",
"-378 -167 LINE",
"-377 -135 OFFCURVE",
"-363 -125 OFFCURVE",
"-343 -125 CURVE SMOOTH",
"-317 -125 OFFCURVE",
"-305 -143 OFFCURVE",
"-305 -163 CURVE SMOOTH",
"-305 -201 OFFCURVE",
"-351 -221 OFFCURVE",
"-419 -235 CURVE SMOOTH",
"-508 -255 OFFCURVE",
"-554 -292 OFFCURVE",
"-554 -348 CURVE SMOOTH",
"-554 -409 OFFCURVE",
"-497 -452 OFFCURVE",
"-412 -452 CURVE SMOOTH",
"-348 -452 OFFCURVE",
"-301 -428 OFFCURVE",
"-274 -388 CURVE",
"-257 -441 OFFCURVE",
"-219 -453 OFFCURVE",
"-193 -453 CURVE SMOOTH",
"-153 -453 OFFCURVE",
"-118 -434 OFFCURVE",
"-95 -401 CURVE",
"-74 -439 OFFCURVE",
"-32 -452 OFFCURVE",
"10 -452 CURVE SMOOTH",
"65 -452 OFFCURVE",
"132 -423 OFFCURVE",
"152 -326 CURVE SMOOTH",
"157 -302 OFFCURVE",
"159 -272 OFFCURVE",
"159 -245 CURVE SMOOTH",
"159 534 LINE",
"83 534 LINE"
);
}
);
width = 232;
},
{
layerId = "B90EB90F-4FA1-4BBD-888F-E38A605CBEB2";
paths = (
{
closed = 1;
nodes = (
"51 -237 LINE SMOOTH",
"51 -303 OFFCURVE",
"33 -337 OFFCURVE",
"-3 -337 CURVE SMOOTH",
"-31 -337 OFFCURVE",
"-53 -317 OFFCURVE",
"-53 -275 CURVE SMOOTH",
"-53 -255 OFFCURVE",
"-58 -164 OFFCURVE",
"-121 -65 CURVE",
"-202 -116 LINE",
"-172 -169 OFFCURVE",
"-150 -240 OFFCURVE",
"-150 -285 CURVE SMOOTH",
"-150 -339 OFFCURVE",
"-179 -354 OFFCURVE",
"-202 -354 CURVE SMOOTH",
"-225 -354 OFFCURVE",
"-246 -339 OFFCURVE",
"-246 -307 CURVE",
"-312 -284 LINE",
"-325 -324 OFFCURVE",
"-352 -354 OFFCURVE",
"-432 -354 CURVE SMOOTH",
"-474 -354 OFFCURVE",
"-500 -348 OFFCURVE",
"-500 -333 CURVE SMOOTH",
"-500 -321 OFFCURVE",
"-458 -303 OFFCURVE",
"-414 -293 CURVE SMOOTH",
"-307 -270 OFFCURVE",
"-242 -227 OFFCURVE",
"-242 -164 CURVE SMOOTH",
"-242 -121 OFFCURVE",
"-271 -62 OFFCURVE",
"-349 -62 CURVE SMOOTH",
"-382 -62 OFFCURVE",
"-413 -73 OFFCURVE",
"-427 -100 CURVE",
"-440 -74 OFFCURVE",
"-467 -61 OFFCURVE",
"-501 -61 CURVE SMOOTH",
"-560 -61 OFFCURVE",
"-611 -102 OFFCURVE",
"-611 -152 CURVE SMOOTH",
"-611 -178 OFFCURVE",
"-598 -207 OFFCURVE",
"-570 -229 CURVE",
"-489 -203 LINE",
"-507 -187 OFFCURVE",
"-519 -175 OFFCURVE",
"-519 -161 CURVE SMOOTH",
"-519 -147 OFFCURVE",
"-507 -139 OFFCURVE",
"-488 -139 CURVE SMOOTH",
"-468 -139 OFFCURVE",
"-455 -148 OFFCURVE",
"-454 -182 CURVE",
"-401 -182 LINE",
"-400 -150 OFFCURVE",
"-385 -139 OFFCURVE",
"-364 -139 CURVE SMOOTH",
"-343 -139 OFFCURVE",
"-333 -150 OFFCURVE",
"-333 -165 CURVE SMOOTH",
"-333 -196 OFFCURVE",
"-378 -212 OFFCURVE",
"-444 -225 CURVE SMOOTH",
"-552 -247 OFFCURVE",
"-597 -284 OFFCURVE",
"-597 -341 CURVE SMOOTH",
"-597 -407 OFFCURVE",
"-533 -452 OFFCURVE",
"-437 -452 CURVE SMOOTH",
"-369 -452 OFFCURVE",
"-319 -432 OFFCURVE",
"-291 -398 CURVE",
"-272 -443 OFFCURVE",
"-231 -453 OFFCURVE",
"-201 -453 CURVE SMOOTH",
"-157 -453 OFFCURVE",
"-116 -434 OFFCURVE",
"-92 -401 CURVE",
"-66 -435 OFFCURVE",
"-32 -452 OFFCURVE",
"13 -452 CURVE SMOOTH",
"74 -452 OFFCURVE",
"149 -418 OFFCURVE",
"169 -321 CURVE SMOOTH",
"174 -297 OFFCURVE",
"178 -262 OFFCURVE",
"178 -235 CURVE SMOOTH",
"178 534 LINE",
"51 534 LINE"
);
}
);
width = 232;
}
);
},
{
glyphname = "rathaHigh-tham.blwf";
layers = (
{
layerId = "5a955c31-bd75-46b6-b903-8760881f133b";
paths = (
{
closed = 1;
nodes = (
"-227 -300 OFFCURVE",
"-152 -249 OFFCURVE",
"-152 -164 CURVE SMOOTH",
"-152 -130 OFFCURVE",
"-164 -94 OFFCURVE",
"-177 -61 CURVE",
"-241 -73 LINE",
"-228 -102 OFFCURVE",
"-219 -129 OFFCURVE",
"-219 -157 CURVE SMOOTH",
"-219 -213 OFFCURVE",
"-255 -240 OFFCURVE",
"-338 -240 CURVE SMOOTH",
"-378 -240 OFFCURVE",
"-425 -236 OFFCURVE",
"-425 -222 CURVE SMOOTH",
"-425 -210 OFFCURVE",
"-401 -202 OFFCURVE",
"-370 -199 CURVE",
"-370 -162 LINE",
"-402 -161 OFFCURVE",
"-425 -152 OFFCURVE",
"-425 -137 CURVE SMOOTH",
"-425 -125 OFFCURVE",
"-409 -117 OFFCURVE",
"-390 -117 CURVE SMOOTH",
"-371 -117 OFFCURVE",
"-343 -123 OFFCURVE",
"-328 -128 CURVE",
"-312 -75 LINE",
"-340 -65 OFFCURVE",
"-368 -62 OFFCURVE",
"-391 -62 CURVE SMOOTH",
"-460 -62 OFFCURVE",
"-503 -90 OFFCURVE",
"-503 -125 CURVE SMOOTH",
"-503 -152 OFFCURVE",
"-487 -171 OFFCURVE",
"-448 -182 CURVE",
"-485 -189 OFFCURVE",
"-503 -206 OFFCURVE",
"-503 -229 CURVE SMOOTH",
"-503 -266 OFFCURVE",
"-448 -300 OFFCURVE",
"-349 -300 CURVE SMOOTH"
);
},
{
closed = 1;
nodes = (
"-250 -457 OFFCURVE",
"-199 -419 OFFCURVE",
"-199 -331 CURVE SMOOTH",
"-199 -219 LINE",
"-265 -259 LINE",
"-265 -340 LINE SMOOTH",
"-265 -374 OFFCURVE",
"-282 -394 OFFCURVE",
"-341 -394 CURVE SMOOTH",
"-389 -394 OFFCURVE",
"-407 -383 OFFCURVE",
"-407 -371 CURVE SMOOTH",
"-407 -362 OFFCURVE",
"-404 -355 OFFCURVE",
"-400 -348 CURVE",
"-464 -336 LINE",
"-469 -345 OFFCURVE",
"-480 -358 OFFCURVE",
"-480 -383 CURVE SMOOTH",
"-480 -415 OFFCURVE",
"-462 -457 OFFCURVE",
"-346 -457 CURVE SMOOTH"
);
}
);
width = 0;
},
{
layerId = "B90EB90F-4FA1-4BBD-888F-E38A605CBEB2";
paths = (
{
closed = 1;
nodes = (
"-228 -321 OFFCURVE",
"-140 -257 OFFCURVE",
"-140 -165 CURVE SMOOTH",
"-140 -129 OFFCURVE",
"-153 -80 OFFCURVE",
"-167 -54 CURVE",
"-273 -66 LINE",
"-266 -87 OFFCURVE",
"-248 -126 OFFCURVE",
"-248 -164 CURVE SMOOTH",
"-248 -216 OFFCURVE",
"-282 -234 OFFCURVE",
"-351 -234 CURVE SMOOTH",
"-391 -234 OFFCURVE",
"-433 -228 OFFCURVE",
"-433 -217 CURVE SMOOTH",
"-433 -208 OFFCURVE",
"-407 -201 OFFCURVE",
"-374 -199 CURVE",
"-374 -153 LINE",
"-406 -152 OFFCURVE",
"-428 -145 OFFCURVE",
"-428 -136 CURVE SMOOTH",
"-428 -126 OFFCURVE",
"-412 -122 OFFCURVE",
"-394 -122 CURVE SMOOTH",
"-372 -122 OFFCURVE",
"-343 -128 OFFCURVE",
"-328 -133 CURVE",
"-310 -62 LINE",
"-343 -52 OFFCURVE",
"-375 -49 OFFCURVE",
"-402 -49 CURVE SMOOTH",
"-488 -49 OFFCURVE",
"-541 -82 OFFCURVE",
"-541 -126 CURVE SMOOTH",
"-541 -150 OFFCURVE",
"-526 -167 OFFCURVE",
"-489 -177 CURVE",
"-524 -185 OFFCURVE",
"-541 -204 OFFCURVE",
"-541 -232 CURVE SMOOTH",
"-541 -283 OFFCURVE",
"-484 -321 OFFCURVE",
"-370 -321 CURVE SMOOTH"
);
},
{
closed = 1;
nodes = (
"-215 -458 OFFCURVE",
"-167 -423 OFFCURVE",
"-167 -340 CURVE SMOOTH",
"-167 -219 LINE",
"-269 -259 LINE",
"-269 -340 LINE SMOOTH",
"-269 -369 OFFCURVE",
"-282 -378 OFFCURVE",
"-339 -378 CURVE SMOOTH",
"-388 -378 OFFCURVE",
"-404 -371 OFFCURVE",
"-404 -361 CURVE SMOOTH",
"-404 -356 OFFCURVE",
"-402 -351 OFFCURVE",
"-400 -345 CURVE",
"-499 -325 LINE",
"-506 -334 OFFCURVE",
"-515 -350 OFFCURVE",
"-515 -372 CURVE SMOOTH",
"-515 -416 OFFCURVE",
"-479 -458 OFFCURVE",
"-346 -458 CURVE SMOOTH"
);
}
);
width = 0;
}
);
},
{
glyphname = "rana-tham.blwf";
layers = (
{
layerId = "5a955c31-bd75-46b6-b903-8760881f133b";
paths = (
{
closed = 1;
nodes = (
"-573 -454 OFFCURVE",
"-566 -453 OFFCURVE",
"-560 -452 CURVE",
"-567 -392 LINE",
"-639 -392 OFFCURVE",
"-666 -344 OFFCURVE",
"-666 -259 CURVE SMOOTH",
"-666 -174 OFFCURVE",
"-630 -138 OFFCURVE",
"-573 -138 CURVE SMOOTH",
"-514 -138 OFFCURVE",
"-486 -177 OFFCURVE",
"-486 -249 CURVE SMOOTH",
"-486 -304 OFFCURVE",
"-507 -323 OFFCURVE",
"-507 -360 CURVE SMOOTH",
"-507 -417 OFFCURVE",
"-460 -449 OFFCURVE",
"-403 -449 CURVE SMOOTH",
"-344 -449 OFFCURVE",
"-298 -416 OFFCURVE",
"-298 -361 CURVE SMOOTH",
"-298 -323 OFFCURVE",
"-319 -304 OFFCURVE",
"-319 -250 CURVE SMOOTH",
"-319 -178 OFFCURVE",
"-289 -138 OFFCURVE",
"-232 -138 CURVE SMOOTH",
"-174 -138 OFFCURVE",
"-140 -176 OFFCURVE",
"-140 -259 CURVE SMOOTH",
"-140 -343 OFFCURVE",
"-167 -391 OFFCURVE",
"-239 -392 CURVE",
"-246 -452 LINE",
"-240 -453 OFFCURVE",
"-236 -454 OFFCURVE",
"-226 -454 CURVE SMOOTH",
"-130 -454 OFFCURVE",
"-73 -367 OFFCURVE",
"-73 -263 CURVE SMOOTH",
"-73 -156 OFFCURVE",
"-135 -76 OFFCURVE",
"-234 -76 CURVE SMOOTH",
"-330 -76 OFFCURVE",
"-383 -154 OFFCURVE",
"-383 -233 CURVE SMOOTH",
"-383 -277 OFFCURVE",
"-364 -345 OFFCURVE",
"-364 -361 CURVE SMOOTH",
"-364 -377 OFFCURVE",
"-385 -387 OFFCURVE",
"-405 -387 CURVE SMOOTH",
"-423 -387 OFFCURVE",
"-441 -379 OFFCURVE",
"-441 -357 CURVE SMOOTH",
"-441 -335 OFFCURVE",
"-423 -276 OFFCURVE",
"-423 -234 CURVE SMOOTH",
"-423 -156 OFFCURVE",
"-477 -76 OFFCURVE",
"-571 -76 CURVE SMOOTH",
"-670 -76 OFFCURVE",
"-733 -153 OFFCURVE",
"-733 -259 CURVE SMOOTH",
"-733 -368 OFFCURVE",
"-677 -454 OFFCURVE",
"-582 -454 CURVE SMOOTH"
);
}
);
width = 0;
},
{
layerId = "B90EB90F-4FA1-4BBD-888F-E38A605CBEB2";
paths = (
{
closed = 1;
nodes = (
"-582 -454 OFFCURVE",
"-575 -453 OFFCURVE",
"-568 -452 CURVE",
"-576 -365 LINE",
"-634 -365 OFFCURVE",
"-655 -327 OFFCURVE",
"-655 -266 CURVE SMOOTH",
"-655 -197 OFFCURVE",
"-625 -167 OFFCURVE",
"-580 -167 CURVE SMOOTH",
"-535 -167 OFFCURVE",
"-505 -197 OFFCURVE",
"-505 -254 CURVE SMOOTH",
"-505 -304 OFFCURVE",
"-527 -323 OFFCURVE",
"-527 -360 CURVE SMOOTH",
"-527 -417 OFFCURVE",
"-472 -449 OFFCURVE",
"-403 -449 CURVE SMOOTH",
"-333 -449 OFFCURVE",
"-278 -416 OFFCURVE",
"-278 -359 CURVE SMOOTH",
"-278 -323 OFFCURVE",
"-300 -304 OFFCURVE",
"-300 -256 CURVE SMOOTH",
"-300 -200 OFFCURVE",
"-267 -167 OFFCURVE",
"-223 -167 CURVE SMOOTH",
"-180 -167 OFFCURVE",
"-151 -198 OFFCURVE",
"-151 -265 CURVE SMOOTH",
"-151 -326 OFFCURVE",
"-172 -364 OFFCURVE",
"-230 -365 CURVE",
"-238 -452 LINE",
"-231 -453 OFFCURVE",
"-227 -454 OFFCURVE",
"-216 -454 CURVE SMOOTH",
"-116 -454 OFFCURVE",
"-56 -367 OFFCURVE",
"-56 -263 CURVE SMOOTH",
"-56 -156 OFFCURVE",
"-121 -76 OFFCURVE",
"-226 -76 CURVE SMOOTH",
"-329 -76 OFFCURVE",
"-387 -154 OFFCURVE",
"-387 -225 CURVE SMOOTH",
"-387 -268 OFFCURVE",
"-364 -319 OFFCURVE",
"-364 -334 CURVE SMOOTH",
"-364 -351 OFFCURVE",
"-385 -360 OFFCURVE",
"-405 -360 CURVE SMOOTH",
"-423 -360 OFFCURVE",
"-441 -353 OFFCURVE",
"-441 -332 CURVE SMOOTH",
"-441 -309 OFFCURVE",
"-419 -267 OFFCURVE",
"-419 -226 CURVE SMOOTH",
"-419 -156 OFFCURVE",
"-478 -76 OFFCURVE",
"-580 -76 CURVE SMOOTH",
"-684 -76 OFFCURVE",
"-750 -153 OFFCURVE",
"-750 -262 CURVE SMOOTH",
"-750 -368 OFFCURVE",
"-691 -454 OFFCURVE",
"-592 -454 CURVE SMOOTH"
);
}
);
width = 0;
}
);
},
{
glyphname = "nya-tham.blwf";
layers = (
{
layerId = "B90EB90F-4FA1-4BBD-888F-E38A605CBEB2";
paths = (
{
closed = 1;
nodes = (
"137 -452 OFFCURVE",
"193 -419 OFFCURVE",
"228 -341 CURVE",
"134 -284 LINE",
"112 -333 OFFCURVE",
"84 -351 OFFCURVE",
"6 -351 CURVE SMOOTH",
"-367 -351 LINE SMOOTH",
"-429 -351 OFFCURVE",
"-451 -341 OFFCURVE",
"-451 -295 CURVE SMOOTH",
"-451 -193 LINE",
"-528 -233 LINE",
"-528 -313 LINE SMOOTH",
"-528 -429 OFFCURVE",
"-462 -452 OFFCURVE",
"-353 -452 CURVE SMOOTH",
"22 -452 LINE SMOOTH"
);
},
{
closed = 1;
nodes = (
"61 534 LINE",
"61 12 LINE SMOOTH",
"61 -133 OFFCURVE",
"-12 -173 OFFCURVE",
"-87 -171 CURVE SMOOTH",
"-133 -170 OFFCURVE",
"-174 -150 OFFCURVE",
"-202 -115 CURVE",
"-253 -198 LINE",
"-197 -256 OFFCURVE",
"-137 -283 OFFCURVE",
"-61 -283 CURVE SMOOTH",
"51 -283 OFFCURVE",
"145 -225 OFFCURVE",
"177 -97 CURVE SMOOTH",
"184 -69 OFFCURVE",
"188 -40 OFFCURVE",
"188 6 CURVE SMOOTH",
"188 534 LINE"
);
},
{
closed = 1;
nodes = (
"-234 -305 OFFCURVE",
"-172 -246 OFFCURVE",
"-172 -175 CURVE SMOOTH",
"-172 -93 OFFCURVE",
"-244 -36 OFFCURVE",
"-352 -36 CURVE SMOOTH",
"-405 -36 OFFCURVE",
"-465 -50 OFFCURVE",
"-516 -89 CURVE",
"-473 -152 LINE",
"-433 -129 OFFCURVE",
"-396 -116 OFFCURVE",
"-355 -116 CURVE SMOOTH",
"-300 -116 OFFCURVE",
"-270 -141 OFFCURVE",
"-270 -172 CURVE SMOOTH",
"-270 -204 OFFCURVE",
"-305 -225 OFFCURVE",
"-350 -225 CURVE SMOOTH",
"-389 -225 OFFCURVE",
"-421 -214 OFFCURVE",
"-451 -193 CURVE",
"-479 -255 LINE",
"-447 -283 OFFCURVE",
"-402 -305 OFFCURVE",
"-340 -305 CURVE SMOOTH"
);
}
);
width = 260;
},
{
layerId = "5a955c31-bd75-46b6-b903-8760881f133b";
paths = (
{
closed = 1;
nodes = (
"96 -452 OFFCURVE",
"158 -407 OFFCURVE",
"181 -343 CURVE",
"120 -308 LINE",
"96 -358 OFFCURVE",
"66 -382 OFFCURVE",
"-18 -382 CURVE SMOOTH",
"-383 -382 LINE SMOOTH",
"-438 -382 OFFCURVE",
"-455 -369 OFFCURVE",
"-455 -326 CURVE SMOOTH",
"-455 -218 LINE",
"-515 -251 LINE",
"-515 -360 LINE SMOOTH",
"-515 -425 OFFCURVE",
"-478 -452 OFFCURVE",
"-373 -452 CURVE SMOOTH",
"-2 -452 LINE SMOOTH"
);
},
{
closed = 1;
nodes = (
"68 534 LINE",
"68 -66 LINE SMOOTH",
"68 -185 OFFCURVE",
"2 -250 OFFCURVE",
"-86 -248 CURVE SMOOTH",
"-147 -247 OFFCURVE",
"-191 -212 OFFCURVE",
"-218 -176 CURVE",
"-245 -237 LINE",
"-217 -271 OFFCURVE",
"-165 -317 OFFCURVE",
"-77 -317 CURVE SMOOTH",
"15 -317 OFFCURVE",
"89 -267 OFFCURVE",
"121 -187 CURVE SMOOTH",
"136 -149 OFFCURVE",
"144 -104 OFFCURVE",
"144 -54 CURVE SMOOTH",
"144 534 LINE"
);
},
{
closed = 1;
nodes = (
"-259 -329 OFFCURVE",
"-197 -271 OFFCURVE",
"-197 -197 CURVE SMOOTH",
"-197 -113 OFFCURVE",
"-279 -60 OFFCURVE",
"-360 -60 CURVE SMOOTH",
"-408 -60 OFFCURVE",
"-466 -79 OFFCURVE",
"-501 -107 CURVE",
"-466 -157 LINE",
"-432 -135 OFFCURVE",
"-397 -124 OFFCURVE",
"-365 -124 CURVE SMOOTH",
"-313 -124 OFFCURVE",
"-266 -153 OFFCURVE",
"-266 -199 CURVE SMOOTH",
"-266 -240 OFFCURVE",
"-302 -267 OFFCURVE",
"-353 -267 CURVE SMOOTH",
"-394 -267 OFFCURVE",
"-427 -250 OFFCURVE",
"-455 -218 CURVE",
"-479 -270 LINE",
"-445 -309 OFFCURVE",
"-403 -329 OFFCURVE",
"-349 -329 CURVE SMOOTH"
);
}
);
width = 235;
}
);
},
{
glyphname = "taHigh-tham.blwf";
layers = (
{
layerId = "5a955c31-bd75-46b6-b903-8760881f133b";
paths = (
{
closed = 1;
nodes = (
"-357 -452 OFFCURVE",
"-301 -373 OFFCURVE",
"-301 -263 CURVE SMOOTH",
"-301 -248 OFFCURVE",
"-302 -232 OFFCURVE",
"-305 -219 CURVE",
"-298 -170 OFFCURVE",
"-269 -138 OFFCURVE",
"-230 -138 CURVE SMOOTH",
"-178 -138 OFFCURVE",
"-140 -183 OFFCURVE",
"-140 -259 CURVE SMOOTH",
"-140 -332 OFFCURVE",
"-177 -389 OFFCURVE",
"-231 -389 CURVE SMOOTH",
"-243 -389 OFFCURVE",
"-254 -386 OFFCURVE",
"-269 -378 CURVE",
"-300 -433 LINE",
"-275 -445 OFFCURVE",
"-252 -452 OFFCURVE",
"-229 -452 CURVE SMOOTH",
"-127 -452 OFFCURVE",
"-73 -366 OFFCURVE",
"-73 -255 CURVE SMOOTH",
"-73 -151 OFFCURVE",
"-133 -76 OFFCURVE",
"-229 -76 CURVE SMOOTH",
"-274 -76 OFFCURVE",
"-315 -95 OFFCURVE",
"-340 -129 CURVE",
"-368 -92 OFFCURVE",
"-406 -76 OFFCURVE",
"-455 -76 CURVE SMOOTH",
"-550 -76 OFFCURVE",
"-608 -157 OFFCURVE",
"-608 -260 CURVE SMOOTH",
"-608 -363 OFFCURVE",
"-551 -452 OFFCURVE",
"-459 -452 CURVE SMOOTH"
);
},
{
closed = 1;
nodes = (
"-506 -389 OFFCURVE",
"-542 -340 OFFCURVE",
"-542 -263 CURVE SMOOTH",
"-542 -184 OFFCURVE",
"-506 -138 OFFCURVE",
"-456 -138 CURVE SMOOTH",
"-403 -138 OFFCURVE",
"-368 -183 OFFCURVE",
"-368 -263 CURVE SMOOTH",
"-368 -342 OFFCURVE",
"-403 -389 OFFCURVE",
"-455 -389 CURVE SMOOTH"
);
}
);
width = 0;
},
{
layerId = "B90EB90F-4FA1-4BBD-888F-E38A605CBEB2";
paths = (
{
closed = 1;
nodes = (
"-358 -452 OFFCURVE",
"-298 -373 OFFCURVE",
"-298 -265 CURVE SMOOTH",
"-298 -252 OFFCURVE",
"-299 -242 OFFCURVE",
"-301 -232 CURVE",
"-293 -197 OFFCURVE",
"-263 -173 OFFCURVE",
"-227 -173 CURVE SMOOTH",
"-185 -173 OFFCURVE",
"-157 -205 OFFCURVE",
"-157 -259 CURVE SMOOTH",
"-157 -312 OFFCURVE",
"-184 -354 OFFCURVE",
"-225 -354 CURVE SMOOTH",
"-236 -354 OFFCURVE",
"-248 -351 OFFCURVE",
"-264 -343 CURVE",
"-297 -433 LINE",
"-271 -445 OFFCURVE",
"-246 -452 OFFCURVE",
"-216 -452 CURVE SMOOTH",
"-112 -452 OFFCURVE",
"-55 -366 OFFCURVE",
"-55 -262 CURVE SMOOTH",
"-55 -151 OFFCURVE",
"-119 -76 OFFCURVE",
"-220 -76 CURVE SMOOTH",
"-269 -76 OFFCURVE",
"-313 -95 OFFCURVE",
"-340 -129 CURVE",
"-370 -92 OFFCURVE",
"-410 -76 OFFCURVE",
"-459 -76 CURVE SMOOTH",
"-565 -76 OFFCURVE",
"-627 -157 OFFCURVE",
"-627 -265 CURVE SMOOTH",
"-627 -373 OFFCURVE",
"-566 -452 OFFCURVE",
"-462 -452 CURVE SMOOTH"
);
},
{
closed = 1;
nodes = (
"-499 -354 OFFCURVE",
"-524 -323 OFFCURVE",
"-524 -263 CURVE SMOOTH",
"-524 -201 OFFCURVE",
"-499 -173 OFFCURVE",
"-464 -173 CURVE SMOOTH",
"-425 -173 OFFCURVE",
"-399 -206 OFFCURVE",
"-399 -263 CURVE SMOOTH",
"-399 -320 OFFCURVE",
"-425 -354 OFFCURVE",
"-463 -354 CURVE SMOOTH"
);
}
);
width = 0;
}
);
},
{
glyphname = "rata-tham.blwf";
layers = (
{
layerId = "5a955c31-bd75-46b6-b903-8760881f133b";
paths = (
{
closed = 1;
nodes = (
"-299 -112 LINE",
"-235 -167 OFFCURVE",
"-205 -227 OFFCURVE",
"-205 -296 CURVE SMOOTH",
"-205 -357 OFFCURVE",
"-229 -390 OFFCURVE",
"-257 -390 CURVE SMOOTH",
"-280 -390 OFFCURVE",
"-298 -368 OFFCURVE",
"-310 -337 CURVE",
"-358 -319 LINE",
"-372 -361 OFFCURVE",
"-401 -390 OFFCURVE",
"-430 -390 CURVE SMOOTH",
"-456 -390 OFFCURVE",
"-477 -366 OFFCURVE",
"-477 -343 CURVE SMOOTH",
"-477 -312 OFFCURVE",
"-440 -282 OFFCURVE",
"-385 -280 CURVE",
"-385 -230 LINE",
"-432 -228 OFFCURVE",
"-459 -202 OFFCURVE",
"-459 -169 CURVE SMOOTH",
"-459 -147 OFFCURVE",
"-448 -135 OFFCURVE",
"-430 -135 CURVE SMOOTH",
"-414 -135 OFFCURVE",
"-395 -144 OFFCURVE",
"-384 -170 CURVE",
"-346 -129 LINE",
"-363 -92 OFFCURVE",
"-394 -75 OFFCURVE",
"-429 -75 CURVE SMOOTH",
"-479 -75 OFFCURVE",
"-526 -110 OFFCURVE",
"-526 -168 CURVE SMOOTH",
"-526 -204 OFFCURVE",
"-509 -232 OFFCURVE",
"-467 -253 CURVE",
"-513 -270 OFFCURVE",
"-540 -303 OFFCURVE",
"-540 -346 CURVE SMOOTH",
"-539 -405 OFFCURVE",
"-492 -452 OFFCURVE",
"-432 -452 CURVE SMOOTH",
"-394 -452 OFFCURVE",
"-366 -434 OFFCURVE",
"-340 -395 CURVE",
"-315 -443 OFFCURVE",
"-275 -452 OFFCURVE",
"-251 -452 CURVE SMOOTH",
"-184 -452 OFFCURVE",
"-137 -385 OFFCURVE",
"-137 -293 CURVE SMOOTH",
"-137 -216 OFFCURVE",
"-170 -139 OFFCURVE",
"-252 -72 CURVE"
);
}
);
width = 0;
},
{
layerId = "B90EB90F-4FA1-4BBD-888F-E38A605CBEB2";
paths = (
{
closed = 1;
nodes = (
"-316 -132 LINE",
"-261 -179 OFFCURVE",
"-234 -230 OFFCURVE",
"-234 -294 CURVE SMOOTH",
"-234 -336 OFFCURVE",
"-245 -365 OFFCURVE",
"-268 -365 CURVE SMOOTH",
"-288 -365 OFFCURVE",
"-303 -343 OFFCURVE",
"-304 -312 CURVE",
"-360 -289 LINE",
"-379 -333 OFFCURVE",
"-406 -365 OFFCURVE",
"-438 -365 CURVE SMOOTH",
"-457 -365 OFFCURVE",
"-469 -354 OFFCURVE",
"-469 -337 CURVE SMOOTH",
"-469 -308 OFFCURVE",
"-434 -287 OFFCURVE",
"-388 -285 CURVE",
"-388 -226 LINE",
"-429 -223 OFFCURVE",
"-459 -204 OFFCURVE",
"-459 -181 CURVE SMOOTH",
"-459 -167 OFFCURVE",
"-448 -160 OFFCURVE",
"-433 -160 CURVE SMOOTH",
"-416 -160 OFFCURVE",
"-402 -169 OFFCURVE",
"-391 -189 CURVE",
"-340 -136 LINE",
"-360 -98 OFFCURVE",
"-399 -75 OFFCURVE",
"-446 -75 CURVE SMOOTH",
"-512 -75 OFFCURVE",
"-560 -119 OFFCURVE",
"-560 -178 CURVE SMOOTH",
"-560 -213 OFFCURVE",
"-544 -235 OFFCURVE",
"-506 -253 CURVE",
"-549 -269 OFFCURVE",
"-575 -305 OFFCURVE",
"-575 -347 CURVE SMOOTH",
"-575 -407 OFFCURVE",
"-521 -452 OFFCURVE",
"-451 -452 CURVE SMOOTH",
"-410 -452 OFFCURVE",
"-379 -437 OFFCURVE",
"-350 -405 CURVE",
"-331 -435 OFFCURVE",
"-297 -452 OFFCURVE",
"-260 -452 CURVE SMOOTH",
"-185 -452 OFFCURVE",
"-132 -383 OFFCURVE",
"-132 -288 CURVE SMOOTH",
"-132 -207 OFFCURVE",
"-173 -132 OFFCURVE",
"-239 -72 CURVE"
);
}
);
width = 0;
}
);
},
{
glyphname = "na-tham.blwf";
layers = (
{
layerId = "5a955c31-bd75-46b6-b903-8760881f133b";
paths = (
{
closed = 1;
nodes = (
"-108 -365 OFFCURVE",
"-110 -333 OFFCURVE",
"-116 -300 CURVE SMOOTH",
"-131 -205 OFFCURVE",
"-208 -159 OFFCURVE",
"-318 -174 CURVE",
"-309 -85 LINE",
"-380 -85 LINE",
"-380 -235 LINE",
"-362 -244 LINE",
"-272 -220 OFFCURVE",
"-200 -234 OFFCURVE",
"-182 -316 CURVE SMOOTH",
"-175 -349 OFFCURVE",
"-173 -373 OFFCURVE",
"-175 -445 CURVE",
"-112 -454 LINE"
);
}
);
width = 0;
},
{
layerId = "B90EB90F-4FA1-4BBD-888F-E38A605CBEB2";
paths = (
{
closed = 1;
nodes = (
"-83 -365 OFFCURVE",
"-86 -333 OFFCURVE",
"-89 -311 CURVE SMOOTH",
"-108 -194 OFFCURVE",
"-193 -148 OFFCURVE",
"-289 -160 CURVE",
"-279 -81 LINE",
"-390 -81 LINE",
"-390 -250 LINE",
"-366 -263 LINE",
"-291 -247 OFFCURVE",
"-213 -253 OFFCURVE",
"-195 -332 CURVE SMOOTH",
"-190 -354 OFFCURVE",
"-189 -380 OFFCURVE",
"-195 -445 CURVE",
"-88 -454 LINE"
);
}
);
width = 0;
}
);
},
{
glyphname = "rathaLow-tham.blwf";
layers = (
{
layerId = "5a955c31-bd75-46b6-b903-8760881f133b";
paths = (
{
closed = 1;
nodes = (
"88 534 LINE",
"88 -250 LINE SMOOTH",
"88 -342 OFFCURVE",
"44 -382 OFFCURVE",
"-18 -382 CURVE SMOOTH",
"-71 -382 OFFCURVE",
"-96 -348 OFFCURVE",
"-106 -318 CURVE",
"-167 -298 LINE",
"-184 -345 OFFCURVE",
"-233 -382 OFFCURVE",
"-316 -382 CURVE SMOOTH",
"-365 -382 OFFCURVE",
"-395 -368 OFFCURVE",
"-395 -351 CURVE SMOOTH",
"-395 -330 OFFCURVE",
"-346 -317 OFFCURVE",
"-293 -305 CURVE SMOOTH",
"-201 -284 OFFCURVE",
"-145 -241 OFFCURVE",
"-145 -178 CURVE SMOOTH",
"-145 -136 OFFCURVE",
"-171 -76 OFFCURVE",
"-241 -76 CURVE SMOOTH",
"-270 -76 OFFCURVE",
"-295 -86 OFFCURVE",
"-311 -119 CURVE",
"-323 -92 OFFCURVE",
"-344 -76 OFFCURVE",
"-378 -76 CURVE SMOOTH",
"-431 -76 OFFCURVE",
"-474 -114 OFFCURVE",
"-474 -164 CURVE SMOOTH",
"-474 -189 OFFCURVE",
"-462 -220 OFFCURVE",
"-436 -243 CURVE",
"-379 -217 LINE",
"-397 -200 OFFCURVE",
"-408 -186 OFFCURVE",
"-408 -169 CURVE SMOOTH",
"-408 -151 OFFCURVE",
"-392 -138 OFFCURVE",
"-371 -138 CURVE SMOOTH",
"-349 -138 OFFCURVE",
"-337 -148 OFFCURVE",
"-335 -182 CURVE",
"-286 -182 LINE",
"-285 -150 OFFCURVE",
"-271 -138 OFFCURVE",
"-250 -138 CURVE SMOOTH",
"-224 -138 OFFCURVE",
"-211 -158 OFFCURVE",
"-211 -177 CURVE SMOOTH",
"-211 -216 OFFCURVE",
"-256 -235 OFFCURVE",
"-321 -249 CURVE SMOOTH",
"-418 -270 OFFCURVE",
"-468 -294 OFFCURVE",
"-468 -352 CURVE SMOOTH",
"-468 -408 OFFCURVE",
"-409 -451 OFFCURVE",
"-320 -451 CURVE SMOOTH",
"-251 -451 OFFCURVE",
"-180 -424 OFFCURVE",
"-146 -377 CURVE",
"-115 -434 OFFCURVE",
"-66 -452 OFFCURVE",
"-13 -452 CURVE SMOOTH",
"53 -452 OFFCURVE",
"137 -423 OFFCURVE",
"157 -326 CURVE SMOOTH",
"162 -302 OFFCURVE",
"164 -272 OFFCURVE",
"164 -245 CURVE SMOOTH",
"164 534 LINE"
);
}
);
width = 237;
},
{
layerId = "B90EB90F-4FA1-4BBD-888F-E38A605CBEB2";
paths = (
{
closed = 1;
nodes = (
"51 534 LINE",
"51 -235 LINE SMOOTH",
"51 -306 OFFCURVE",
"20 -350 OFFCURVE",
"-34 -350 CURVE SMOOTH",
"-70 -350 OFFCURVE",
"-91 -329 OFFCURVE",
"-101 -296 CURVE",
"-181 -273 LINE",
"-198 -317 OFFCURVE",
"-252 -353 OFFCURVE",
"-343 -353 CURVE SMOOTH",
"-383 -353 OFFCURVE",
"-408 -345 OFFCURVE",
"-408 -331 CURVE SMOOTH",
"-408 -319 OFFCURVE",
"-365 -310 OFFCURVE",
"-318 -301 CURVE SMOOTH",
"-210 -280 OFFCURVE",
"-145 -236 OFFCURVE",
"-145 -174 CURVE SMOOTH",
"-145 -136 OFFCURVE",
"-170 -76 OFFCURVE",
"-255 -76 CURVE SMOOTH",
"-290 -76 OFFCURVE",
"-321 -87 OFFCURVE",
"-336 -114 CURVE",
"-350 -90 OFFCURVE",
"-376 -76 OFFCURVE",
"-413 -76 CURVE SMOOTH",
"-473 -76 OFFCURVE",
"-525 -116 OFFCURVE",
"-525 -167 CURVE SMOOTH",
"-525 -193 OFFCURVE",
"-512 -222 OFFCURVE",
"-483 -243 CURVE",
"-401 -217 LINE",
"-420 -202 OFFCURVE",
"-433 -189 OFFCURVE",
"-433 -177 CURVE SMOOTH",
"-433 -162 OFFCURVE",
"-419 -153 OFFCURVE",
"-401 -153 CURVE SMOOTH",
"-378 -153 OFFCURVE",
"-364 -167 OFFCURVE",
"-363 -196 CURVE",
"-310 -196 LINE",
"-309 -163 OFFCURVE",
"-293 -153 OFFCURVE",
"-273 -153 CURVE SMOOTH",
"-249 -153 OFFCURVE",
"-238 -167 OFFCURVE",
"-238 -181 CURVE SMOOTH",
"-238 -210 OFFCURVE",
"-284 -221 OFFCURVE",
"-348 -233 CURVE SMOOTH",
"-453 -253 OFFCURVE",
"-507 -280 OFFCURVE",
"-507 -338 CURVE SMOOTH",
"-507 -402 OFFCURVE",
"-443 -451 OFFCURVE",
"-347 -451 CURVE SMOOTH",
"-272 -451 OFFCURVE",
"-194 -427 OFFCURVE",
"-158 -387 CURVE",
"-125 -436 OFFCURVE",
"-73 -452 OFFCURVE",
"-18 -452 CURVE SMOOTH",
"61 -452 OFFCURVE",
"148 -420 OFFCURVE",
"170 -312 CURVE SMOOTH",
"175 -287 OFFCURVE",
"178 -257 OFFCURVE",
"178 -230 CURVE SMOOTH",
"178 534 LINE"
);
}
);
width = 237;
}
);
},
{
glyphname = "taLow-tham.blwf";
layers = (
{
layerId = "5a955c31-bd75-46b6-b903-8760881f133b";
paths = (
{
closed = 1;
nodes = (
"-197 -452 OFFCURVE",
"-113 -409 OFFCURVE",
"-113 -326 CURVE SMOOTH",
"-113 -292 OFFCURVE",
"-128 -266 OFFCURVE",
"-164 -248 CURVE",
"-126 -230 OFFCURVE",
"-113 -209 OFFCURVE",
"-113 -178 CURVE SMOOTH",
"-113 -117 OFFCURVE",
"-168 -76 OFFCURVE",
"-241 -76 CURVE SMOOTH",
"-267 -76 OFFCURVE",
"-293 -80 OFFCURVE",
"-323 -92 CURVE",
"-305 -150 LINE",
"-282 -141 OFFCURVE",
"-262 -138 OFFCURVE",
"-245 -138 CURVE SMOOTH",
"-203 -138 OFFCURVE",
"-180 -151 OFFCURVE",
"-180 -178 CURVE SMOOTH",
"-180 -218 OFFCURVE",
"-230 -224 OFFCURVE",
"-274 -225 CURVE",
"-274 -278 LINE",
"-225 -274 OFFCURVE",
"-180 -289 OFFCURVE",
"-180 -329 CURVE SMOOTH",
"-180 -368 OFFCURVE",
"-224 -389 OFFCURVE",
"-280 -389 CURVE SMOOTH",
"-368 -389 OFFCURVE",
"-423 -330 OFFCURVE",
"-423 -245 CURVE SMOOTH",
"-423 -202 OFFCURVE",
"-409 -158 OFFCURVE",
"-367 -119 CURVE",
"-417 -82 LINE",
"-458 -119 OFFCURVE",
"-491 -180 OFFCURVE",
"-491 -253 CURVE SMOOTH",
"-491 -371 OFFCURVE",
"-410 -452 OFFCURVE",
"-282 -452 CURVE SMOOTH"
);
}
);
width = 0;
},
{
layerId = "B90EB90F-4FA1-4BBD-888F-E38A605CBEB2";
paths = (
{
closed = 1;
nodes = (
"-190 -452 OFFCURVE",
"-99 -407 OFFCURVE",
"-99 -323 CURVE SMOOTH",
"-99 -289 OFFCURVE",
"-114 -265 OFFCURVE",
"-149 -248 CURVE",
"-111 -230 OFFCURVE",
"-99 -209 OFFCURVE",
"-99 -181 CURVE SMOOTH",
"-99 -117 OFFCURVE",
"-160 -76 OFFCURVE",
"-238 -76 CURVE SMOOTH",
"-270 -76 OFFCURVE",
"-301 -83 OFFCURVE",
"-335 -102 CURVE",
"-313 -177 LINE",
"-287 -162 OFFCURVE",
"-265 -158 OFFCURVE",
"-246 -158 CURVE SMOOTH",
"-215 -158 OFFCURVE",
"-199 -169 OFFCURVE",
"-199 -184 CURVE SMOOTH",
"-199 -214 OFFCURVE",
"-239 -219 OFFCURVE",
"-274 -220 CURVE",
"-273 -283 LINE",
"-234 -279 OFFCURVE",
"-199 -291 OFFCURVE",
"-199 -318 CURVE SMOOTH",
"-199 -346 OFFCURVE",
"-234 -359 OFFCURVE",
"-280 -359 CURVE SMOOTH",
"-365 -359 OFFCURVE",
"-418 -312 OFFCURVE",
"-418 -239 CURVE SMOOTH",
"-418 -202 OFFCURVE",
"-404 -158 OFFCURVE",
"-362 -119 CURVE",
"-427 -76 LINE",
"-481 -119 OFFCURVE",
"-515 -180 OFFCURVE",
"-515 -253 CURVE SMOOTH",
"-515 -371 OFFCURVE",
"-425 -452 OFFCURVE",
"-290 -452 CURVE SMOOTH"
);
}
);
width = 0;
}
);
},
{
glyphname = "thaLow-tham.blwf";
layers = (
{
layerId = "5a955c31-bd75-46b6-b903-8760881f133b";
paths = (
{
closed = 1;
nodes = (
"-376 -452 OFFCURVE",
"-351 -440 OFFCURVE",
"-333 -414 CURVE",
"-320 -439 OFFCURVE",
"-298 -452 OFFCURVE",
"-266 -452 CURVE SMOOTH",
"-195 -452 OFFCURVE",
"-150 -384 OFFCURVE",
"-150 -287 CURVE SMOOTH",
"-150 -160 OFFCURVE",
"-232 -76 OFFCURVE",
"-338 -76 CURVE SMOOTH",
"-444 -76 OFFCURVE",
"-522 -161 OFFCURVE",
"-522 -286 CURVE SMOOTH",
"-522 -386 OFFCURVE",
"-475 -452 OFFCURVE",
"-404 -452 CURVE SMOOTH"
);
},
{
closed = 1;
nodes = (
"-436 -389 OFFCURVE",
"-455 -354 OFFCURVE",
"-455 -294 CURVE SMOOTH",
"-455 -195 OFFCURVE",
"-403 -138 OFFCURVE",
"-337 -138 CURVE SMOOTH",
"-268 -138 OFFCURVE",
"-217 -202 OFFCURVE",
"-217 -297 CURVE SMOOTH",
"-217 -357 OFFCURVE",
"-237 -389 OFFCURVE",
"-266 -389 CURVE SMOOTH",
"-289 -389 OFFCURVE",
"-304 -369 OFFCURVE",
"-308 -333 CURVE",
"-361 -333 LINE",
"-366 -369 OFFCURVE",
"-382 -389 OFFCURVE",
"-405 -389 CURVE SMOOTH"
);
}
);
width = 0;
},
{
layerId = "B90EB90F-4FA1-4BBD-888F-E38A605CBEB2";
paths = (
{
closed = 1;
nodes = (
"-403 -452 OFFCURVE",
"-372 -434 OFFCURVE",
"-361 -400 CURVE",
"-352 -433 OFFCURVE",
"-322 -452 OFFCURVE",
"-286 -452 CURVE SMOOTH",
"-215 -452 OFFCURVE",
"-161 -376 OFFCURVE",
"-161 -281 CURVE SMOOTH",
"-161 -166 OFFCURVE",
"-239 -76 OFFCURVE",
"-358 -76 CURVE SMOOTH",
"-476 -76 OFFCURVE",
"-559 -168 OFFCURVE",
"-559 -286 CURVE SMOOTH",
"-559 -373 OFFCURVE",
"-514 -452 OFFCURVE",
"-439 -452 CURVE SMOOTH"
);
},
{
closed = 1;
nodes = (
"-452 -356 OFFCURVE",
"-461 -321 OFFCURVE",
"-461 -288 CURVE SMOOTH",
"-461 -222 OFFCURVE",
"-426 -171 OFFCURVE",
"-364 -171 CURVE SMOOTH",
"-301 -171 OFFCURVE",
"-259 -222 OFFCURVE",
"-259 -288 CURVE SMOOTH",
"-259 -324 OFFCURVE",
"-272 -356 OFFCURVE",
"-296 -356 CURVE SMOOTH",
"-311 -356 OFFCURVE",
"-324 -343 OFFCURVE",
"-329 -298 CURVE",
"-392 -298 LINE",
"-397 -342 OFFCURVE",
"-408 -356 OFFCURVE",
"-425 -356 CURVE SMOOTH"
);
}
);
width = 0;
}
);
},
{
glyphname = "paHigh-tham.blwf";
layers = (
{
layerId = "5a955c31-bd75-46b6-b903-8760881f133b";
paths = (
{
closed = 1;
nodes = (
"565 715 OFFCURVE",
"494 620 OFFCURVE",
"494 473 CURVE SMOOTH",
"494 310 LINE SMOOTH",
"494 156 OFFCURVE",
"434 61 OFFCURVE",
"322 61 CURVE SMOOTH",
"212 61 OFFCURVE",
"156 152 OFFCURVE",
"156 256 CURVE SMOOTH",
"156 353 OFFCURVE",
"202 440 OFFCURVE",
"263 492 CURVE",
"210 541 LINE",
"138 474 OFFCURVE",
"78 368 OFFCURVE",
"78 250 CURVE SMOOTH",
"78 108 OFFCURVE",
"165 -10 OFFCURVE",
"322 -10 CURVE SMOOTH",
"483 -10 OFFCURVE",
"569 103 OFFCURVE",
"569 311 CURVE SMOOTH",
"569 489 LINE SMOOTH",
"569 586 OFFCURVE",
"609 643 OFFCURVE",
"678 643 CURVE SMOOTH",
"689 643 OFFCURVE",
"700 642 OFFCURVE",
"710 640 CURVE",
"726 711 LINE",
"712 713 OFFCURVE",
"698 715 OFFCURVE",
"682 715 CURVE SMOOTH"
);
}
);
width = 658;
},
{
layerId = "B90EB90F-4FA1-4BBD-888F-E38A605CBEB2";
paths = (
{
closed = 1;
nodes = (
"583 715 OFFCURVE",
"493 620 OFFCURVE",
"493 473 CURVE SMOOTH",
"493 291 LINE SMOOTH",
"493 184 OFFCURVE",
"427 115 OFFCURVE",
"343 115 CURVE SMOOTH",
"259 115 OFFCURVE",
"198 184 OFFCURVE",
"198 273 CURVE SMOOTH",
"198 354 OFFCURVE",
"239 423 OFFCURVE",
"311 489 CURVE",
"195 542 LINE",
"123 474 OFFCURVE",
"68 370 OFFCURVE",
"68 260 CURVE SMOOTH",
"68 110 OFFCURVE",
"177 -10 OFFCURVE",
"342 -10 CURVE SMOOTH",
"513 -10 OFFCURVE",
"622 101 OFFCURVE",
"622 311 CURVE SMOOTH",
"622 489 LINE SMOOTH",
"622 554 OFFCURVE",
"672 591 OFFCURVE",
"726 591 CURVE SMOOTH",
"737 591 OFFCURVE",
"748 590 OFFCURVE",
"758 588 CURVE",
"774 711 LINE",
"760 714 OFFCURVE",
"746 715 OFFCURVE",
"730 715 CURVE SMOOTH"
);
}
);
width = 709;
}
);
},
{
glyphname = "paLow-tham.blwf";
layers = (
{
layerId = "5a955c31-bd75-46b6-b903-8760881f133b";
paths = (
{
closed = 1;
nodes = (
"-168 -414 OFFCURVE",
"-122 -346 OFFCURVE",
"-123 -239 CURVE SMOOTH",
"-123 -152 OFFCURVE",
"-172 -75 OFFCURVE",
"-240 -75 CURVE SMOOTH",
"-273 -75 OFFCURVE",
"-297 -89 OFFCURVE",
"-311 -118 CURVE",
"-326 -90 OFFCURVE",
"-347 -75 OFFCURVE",
"-382 -75 CURVE SMOOTH",
"-458 -75 OFFCURVE",
"-504 -154 OFFCURVE",
"-503 -246 CURVE SMOOTH",
"-503 -340 OFFCURVE",
"-459 -404 OFFCURVE",
"-395 -457 CURVE",
"-362 -397 LINE",
"-410 -359 OFFCURVE",
"-435 -312 OFFCURVE",
"-435 -249 CURVE SMOOTH",
"-435 -200 OFFCURVE",
"-415 -138 OFFCURVE",
"-380 -138 CURVE SMOOTH",
"-355 -138 OFFCURVE",
"-349 -171 OFFCURVE",
"-340 -221 CURVE",
"-283 -221 LINE",
"-277 -176 OFFCURVE",
"-268 -138 OFFCURVE",
"-240 -138 CURVE SMOOTH",
"-211 -138 OFFCURVE",
"-188 -196 OFFCURVE",
"-188 -246 CURVE SMOOTH",
"-188 -314 OFFCURVE",
"-221 -362 OFFCURVE",
"-271 -397 CURVE",
"-234 -459 LINE"
);
}
);
width = 0;
},
{
layerId = "B90EB90F-4FA1-4BBD-888F-E38A605CBEB2";
paths = (
{
closed = 1;
nodes = (
"-157 -412 OFFCURVE",
"-112 -345 OFFCURVE",
"-112 -251 CURVE SMOOTH",
"-113 -152 OFFCURVE",
"-166 -75 OFFCURVE",
"-240 -75 CURVE SMOOTH",
"-269 -75 OFFCURVE",
"-293 -87 OFFCURVE",
"-311 -120 CURVE",
"-328 -90 OFFCURVE",
"-349 -75 OFFCURVE",
"-384 -75 CURVE SMOOTH",
"-464 -75 OFFCURVE",
"-514 -154 OFFCURVE",
"-513 -250 CURVE SMOOTH",
"-513 -340 OFFCURVE",
"-469 -404 OFFCURVE",
"-405 -457 CURVE",
"-351 -394 LINE",
"-393 -356 OFFCURVE",
"-416 -310 OFFCURVE",
"-416 -254 CURVE SMOOTH",
"-416 -213 OFFCURVE",
"-403 -167 OFFCURVE",
"-379 -167 CURVE SMOOTH",
"-355 -167 OFFCURVE",
"-349 -194 OFFCURVE",
"-347 -240 CURVE",
"-276 -240 LINE",
"-278 -198 OFFCURVE",
"-269 -167 OFFCURVE",
"-245 -167 CURVE SMOOTH",
"-223 -167 OFFCURVE",
"-208 -210 OFFCURVE",
"-208 -255 CURVE SMOOTH",
"-208 -314 OFFCURVE",
"-235 -362 OFFCURVE",
"-276 -397 CURVE",
"-219 -457 LINE"
);
}
);
width = 0;
}
);
},
